<?xml version="1.0" standalone="no"?>
<!DOCTYPE svg PUBLIC "-//W3C//DTD SVG 1.1//EN" "http://www.w3.org/Graphics/SVG/1.1/DTD/svg11.dtd" >
<svg xmlns="http://www.w3.org/2000/svg">
<metadata></metadata>
<defs>
<font id="didot_headlinebold" horiz-adv-x="740" >
<font-face units-per-em="1000" ascent="800" descent="-200" />
<missing-glyph horiz-adv-x="225" />
<glyph unicode="ft" horiz-adv-x="565" d="M340 88v263h-138q-17 0 -22 -6.5t-5 -24.5v-300h56v-20h-227v20h27q17 0 20.5 3.5t3.5 20.5v410q0 155 124 216q48 24 115 24q115 0 115 -66q0 -19 -12.5 -33.5t-31.5 -14.5q-17 0 -29.5 12.5t-12.5 30.5q0 19 12 31q-15 22 -46 22q-114 0 -114 -185v-120h165v86l120 25 v-111h94v-20h-73q-21 0 -21 -24v-232q0 -40 8.5 -56.5t36.5 -16.5q29 0 49 20l10 -12q-9 -13 -40 -25.5t-76 -12.5q-63 0 -85.5 23t-22.5 73z" />
<glyph unicode="fh" horiz-adv-x="786" d="M340 44v531q0 98 -66 98q-24 0 -41.5 -7.5t-28 -24t-17 -32t-9 -42t-3 -43.5t-0.5 -46v-107h85v-20h-58q-17 0 -22 -6.5t-5 -24.5v-300h56v-20h-227v20h27q17 0 20.5 3.5t3.5 20.5v410q0 161 116 218q38 19 119 19q77 0 169 -22l1 -359q25 28 80 51t94 23q98 0 98 -138 v-226h45v-20h-215v20h25q15 0 20 6.5t5 24.5v177q0 51 -15 74t-58 23q-41 0 -79 -35v-270h44v-20h-212v20h21q17 0 22 4t5 20z" />
<glyph unicode="fj" horiz-adv-x="500" d="M399 612q0 -21 -15.5 -36.5t-36.5 -15.5q-19 0 -33 13t-14 33q0 26 24 46q-16 24 -45 24q-54 0 -79 -54t-25 -131v-120h85v-20h-58q-17 0 -22 -6.5t-5 -24.5v-300h82v-20h-253v20h27q17 0 20.5 3.5t3.5 20.5v380q0 68 24 128t75 101t120 41q45 0 85 -21t40 -61zM450 -20 q0 -156 -41 -220q-12 -19 -41 -37.5t-71 -18.5q-48 0 -73.5 20t-25.5 53q0 23 16.5 41t33.5 18q43 0 43 -48q0 -29 -44 -48q11 -17 33 -17t37.5 21t16.5 49q0 6 -2 58.5t-2 74.5v382v8.5v9t-0.5 7.5t-1.5 7.5t-3.5 5.5t-6 4t-8.5 1h-33v20h173v-391z" />
<glyph unicode="fb" horiz-adv-x="792" d="M775 194q0 -87 -65 -146.5t-145 -59.5q-36 0 -87 19q-29 11 -34 11q-16 0 -33 -18h-71v588q0 84 -62 84q-28 0 -48 -11t-30.5 -27t-16 -43.5t-7 -50.5t-1.5 -59v-110h85v-20q-66 -1 -74 -5q-11 -5 -11 -26v-300h61v-20h-232v20h15q24 0 30 3.5t6 20.5v410 q0 108 68.5 172.5t171.5 64.5q55 0 102 -8.5t63 -16.5v-336q30 20 76 36.5t83 16.5q65 -1 110.5 -48.5t45.5 -140.5zM651 174q0 83 -31 123.5t-82 40.5q-41 0 -78 -28v-214q0 -35 23 -60.5t67 -25.5q53 0 77 40t24 124z" />
<glyph unicode="ff" horiz-adv-x="556" d="M683 622q0 -18 -13 -35t-32 -17q-17 0 -29.5 12t-12.5 28q0 18 8.5 30t17.5 16q-18 20 -50 20q-37 0 -60.5 -13.5t-34 -41t-14 -56.5t-3.5 -74v-120h85v-20h-58q-16 0 -21.5 -6t-5.5 -25v-300h56v-20h-227v20h27q17 0 20.5 4t3.5 20v410q0 93 34 139q-33 41 -86 41 q-31 0 -52.5 -9.5t-33.5 -23t-18 -38t-7.5 -44.5t-1.5 -52v-96h85v-20q-66 -1 -74 -5q-11 -5 -11 -26v-300h61v-20h-232v20h33q11 0 14.5 4t3.5 20v370q0 102 56 171t168 69q29 0 61 -12t47 -30q64 82 192 82q40 0 72 -17t32 -55z" />
<glyph unicode="ffi" horiz-adv-x="792" d="M684 612q0 -21 -15.5 -36.5t-36.5 -15.5q-19 0 -33 13t-14 33q0 26 24 46q-16 24 -45 24q-54 0 -79 -54t-25 -131v-120h85v-20h-58q-17 0 -22 -6.5t-5 -24.5v-300h82v-20h-253v20h27q17 0 20.5 3.5t3.5 20.5v380q0 90 42 162q-40 48 -94 48q-57 0 -85 -54t-28 -129v-80 h85v-20h-58q-17 0 -22 -6.5t-5 -24.5v-300h61v-20h-232v20h27q17 0 20.5 3.5t3.5 20.5v340q0 76 33.5 147.5t94.5 101.5q42 21 95 21q66 0 117 -47q62 87 164 87q45 0 85 -21t40 -61zM780 0h-212v20h25q14 0 18.5 5t4.5 23v259q0 17 -0.5 24t-6.5 13.5t-19 6.5h-22v20h168 v-351h44v-20z" />
<glyph unicode="ffl" horiz-adv-x="808" d="M798 0h-231v20h25q18 0 25.5 4.5t7.5 19.5v574q0 23 -10.5 39t-32.5 16q-70 0 -96 -48.5t-26 -143.5v-110h85v-20q-66 -1 -74 -5q-11 -5 -11 -26v-300h61v-20h-239v20h35q15 0 19 4t4 20v410q0 91 38 144q-29 36 -86 36q-39 0 -63.5 -12t-35.5 -37t-14.5 -50t-3.5 -64 v-100h75v-20q-62 -1 -68 -5q-7 -4 -7 -26v-300h61v-20h-232v20h26q13 0 19 4.5t6 19.5v370q0 93 58 166.5t166 73.5q33 0 64.5 -11.5t48.5 -26.5q32 39 90 57t108 18q28 0 87.5 -5.5t67.5 -9.5v-656h53v-20z" />
<glyph unicode="&#xfb01;" horiz-adv-x="507" d="M399 612q0 -21 -15.5 -36.5t-36.5 -15.5q-19 0 -33 13t-14 33q0 26 24 46q-16 24 -45 24q-54 0 -79 -54t-25 -131v-120h85v-20h-58q-17 0 -22 -6.5t-5 -24.5v-300h82v-20h-253v20h27q17 0 20.5 3.5t3.5 20.5v380q0 68 24 128t75 101t120 41q45 0 85 -21t40 -61zM495 0 h-212v20h25q14 0 18.5 5t4.5 23v259q0 17 -0.5 24t-6.5 13.5t-19 6.5h-22v20h168v-351h44v-20z" />
<glyph unicode="&#xfb02;" horiz-adv-x="523" d="M513 0h-231v20h25q18 0 25.5 4.5t7.5 19.5v574q0 24 -17 39t-43 15q-28 0 -48 -11t-31 -27t-17 -43t-7.5 -51t-1.5 -59v-110h85v-20q-66 -1 -74 -5q-11 -5 -11 -26v-300h61v-20h-232v20h26q14 0 19.5 4.5t5.5 19.5v410q0 115 81 184q63 53 169 53q35 0 88.5 -4t66.5 -11 v-656h53v-20z" />
<glyph horiz-adv-x="1000" />
<glyph horiz-adv-x="1000" />
<glyph unicode="&#xd;" horiz-adv-x="1000" />
<glyph unicode=" "  horiz-adv-x="225" />
<glyph unicode="&#x09;" horiz-adv-x="225" />
<glyph unicode="&#xa0;" horiz-adv-x="225" />
<glyph unicode="!" horiz-adv-x="280" d="M227 600q-8 0 -14.5 -2.5t-10 -8t-6 -11t-3.5 -16t-1 -17t-0.5 -20.5t-0.5 -21l-23 -367h-53l-23 367q0 6 -0.5 16.5t-0.5 16t-1 14.5t-2 14t-2.5 11.5t-4.5 10t-7 7t-9 5t-12 1.5v19h174v-19zM196 41q0 -22 -15.5 -37.5t-37.5 -15.5t-37.5 15.5t-15.5 37.5t15.5 37.5 t37.5 15.5t37.5 -15.5t15.5 -37.5z" />
<glyph unicode="&#x22;" horiz-adv-x="337" d="M297 544q-4 0 -7 -1t-5 -4t-3 -6t-1.5 -8t-1 -8.5t-0.5 -10v-10.5l-6 -169h-67l-6 169v8t-0.5 8t-0.5 7.5t-0.5 6.5t-1.5 5.5t-2.5 5l-3.5 3.5t-5 3t-6 1v20h117v-20zM157 544q-4 0 -7 -1t-5 -4t-3 -6t-1.5 -8t-1 -8.5t-0.5 -10v-10.5l-6 -169h-67l-6 169v10t-0.5 10.5 t-1 8.5t-1.5 7.5t-3.5 5.5t-5.5 4.5t-8 1.5v20h117v-20z" />
<glyph unicode="#" horiz-adv-x="1104" d="M1086 388q0 -81 -58 -139.5t-174 -58.5q-105 0 -159.5 53.5t-54.5 140.5q0 84 58 142.5t163 58.5q121 0 173 -55t52 -142zM626 648h-57v-663h-13l-442 644v-609h82v-20h-172v20h15q34 1 45 8t11 37v524q0 40 -13 49.5t-49 9.5h-15v20h221l310 -461v412q0 18 -8 23.5 t-44 5.5h-23v20h152v-20zM961 387q0 76 -25.5 127.5t-73.5 51.5q-28 0 -48 -16t-29.5 -43t-14 -56t-4.5 -62q0 -80 26 -130t66 -50q103 0 103 178zM960 70h-194v30h194v-30z" />
<glyph unicode="$" horiz-adv-x="448" d="M398 156q0 -69 -46 -118.5t-111 -54.5v-109h-19v109h-2q-76 0 -170 42v101h17q12 -71 48 -98t107 -25v225q-92 69 -122 108.5t-30 101.5q0 66 41 110t111 48v104h19v-104q61 0 143 -37v-95h-18q-19 111 -124 110h-1v-216l14 -9q143 -93 143 -193zM222 369v205 q-36 -3 -59 -32t-23 -64q0 -46 82 -109zM329 104q-3 44 -88 113v-213q95 7 88 100z" />
<glyph unicode="%" horiz-adv-x="505" d="M465 104q0 -48 -30 -79t-69 -31q-40 0 -68.5 30t-28.5 78q0 47 29.5 75.5t75.5 28.5q38 0 64.5 -27t26.5 -75zM236 325q0 -48 -30 -79t-69 -31q-40 0 -68.5 30.5t-28.5 78.5q0 47 29.5 75t75.5 28q38 0 64.5 -27t26.5 -75zM441 425l-360 -425h-30l362 425h28zM178 325 q0 36 -9 60t-26 24t-29.5 -23t-12.5 -61q0 -41 11.5 -66t27.5 -25t27 28t11 63zM406 103q0 36 -9.5 60.5t-25.5 24.5q-17 0 -29.5 -24t-12.5 -61q0 -42 11.5 -66.5t28.5 -24.5q16 0 26.5 28t10.5 63z" />
<glyph unicode="&#x26;" horiz-adv-x="638" d="M589 341q0 -19 -12 -32t-25 -13q-19 0 -29.5 9.5t-10.5 25.5q0 19 24 29q0 5 -12 5q-53 0 -97 -104l-29 -70q89 -108 121.5 -140.5t48.5 -32.5t29.5 8.5t18 14.5t14.5 21l13 -10q-29 -56 -102 -56q-105 0 -187 95q-26 -51 -65.5 -77.5t-105.5 -26.5q-63 0 -105.5 43.5 t-42.5 106.5q0 31 9 55t32.5 45t37.5 30t51 31l-12.5 12.5t-12.5 13t-11.5 12.5t-12 14t-10.5 14t-10 15l-7.5 15t-6.5 16.5t-3.5 17t-1.5 18.5q0 62 46.5 103.5t124.5 41.5q58 0 94.5 -33.5t36.5 -90.5q0 -38 -19 -66.5t-40 -42t-55 -29.5l116 -128q4 9 15.5 36t18.5 42 t20.5 38.5t26.5 36t31.5 22.5t38.5 10q26 0 41.5 -12t15.5 -33zM329 458q0 51 -21.5 82.5t-61.5 31.5q-36 0 -55.5 -28t-19.5 -70q0 -22 14.5 -48t29 -42t41.5 -43q39 25 56 50t17 67zM339 108l-164 178q-13 -6 -26 -40.5t-13 -75.5q0 -60 35.5 -103t73.5 -43q27 0 48 21.5 t46 62.5z" />
<glyph unicode="'" horiz-adv-x="197" d="M157 544q-4 0 -7 -1t-5 -4t-3 -6t-1.5 -8t-1 -8.5t-0.5 -10v-10.5l-6 -168l-67 -1l-6 169v6q-1 36 -13 41q-3 1 -7 1v20h117v-20z" />
<glyph unicode="(" horiz-adv-x="256" d="M222 656q-26 -36 -42 -64t-39.5 -80t-35.5 -119t-12 -146q0 -185 89 -395l-25 -8q-115 220 -115 431q0 221 154 387z" />
<glyph unicode=")" horiz-adv-x="256" d="M99 656q115 -221 115 -429q0 -221 -154 -389l-26 6q26 36 42 64t39.5 80t35.5 119t12 146q0 185 -89 395z" />
<glyph unicode="*" horiz-adv-x="336" d="M83 638l63 -98l-11 -14l-102 57l17 37zM308 547l10 -39l-15 -33l-110 33v18zM182 496l75 -87l-29 -30l-37 -4l-24 114zM137 507l10 -14l-72 -90l-34 23l-11 35zM252 634l-67 -95l-16 7l15 113h40z" />
<glyph unicode="+" horiz-adv-x="345" d="M320 269h-123v-248h-50v248h-122v50h122v185h50v-185h123v-50z" />
<glyph unicode="," horiz-adv-x="204" d="M163 10q0 -87 -82 -135l-9 12q61 44 61 107q0 16 -7 23q-10 -23 -41 -23q-16 0 -29.5 14t-13.5 34q0 24 15 38.5t40 14.5q29 0 47.5 -21.5t18.5 -63.5z" />
<glyph unicode="-" horiz-adv-x="254" d="M224 170h-194v76h194v-76z" />
<glyph unicode="." horiz-adv-x="204" d="M155 41q0 -22 -15.5 -37.5t-37.5 -15.5t-37.5 15.5t-15.5 37.5t15.5 37.5t37.5 15.5t37.5 -15.5t15.5 -37.5z" />
<glyph unicode="/" horiz-adv-x="302" d="M288 694l-229 -808h-48l225 808h52z" />
<glyph unicode="0" horiz-adv-x="449" d="M419 317q0 -52 -10 -105t-31 -105.5t-61.5 -85t-94.5 -32.5q-49 0 -88 33t-60.5 83.5t-32.5 102t-11 96.5q0 55 12 107.5t35.5 99t64.5 75t93 28.5q67 0 125.5 -82t58.5 -215zM305 293q0 82 -6.5 142t-17 94t-24 50t-28.5 16q-37 0 -61 -87.5t-24 -188.5q0 -54 6 -119 t26 -128.5t50 -63.5q29 0 54 82.5t25 202.5z" />
<glyph unicode="1" horiz-adv-x="299" d="M279 0h-226v20h21q29 1 37 7t8 33v498l-101 -36v22l175 60h26v-584h60v-20z" />
<glyph unicode="2" horiz-adv-x="389" d="M349 133l-30 -133h-319q11 42 21 55q8 11 17 19.5t24 21t27 23.5q43 40 93.5 129.5t51.5 173.5q0 63 -26.5 105.5t-64.5 41.5q-32 -1 -58 -18t-39 -42l-17 7q3 26 44.5 62.5t103.5 36.5q67 0 115 -53t48 -133q0 -36 -16.5 -75t-38 -69.5t-58 -68t-60 -58.5t-62 -53 t-47.5 -40h184q45 0 58.5 11.5t28.5 56.5h20z" />
<glyph unicode="3" horiz-adv-x="374" d="M335 173v-6q-2 -67 -62 -123t-138 -56q-79 0 -109 30q-11 13 -11 29q0 15 11 26.5t27 11.5q13 0 24 -10.5t11 -24.5q0 -15 -11 -22q22 -20 68 -20q35 0 60.5 35.5t25.5 102.5q0 70 -26.5 114.5t-73.5 49.5l-23 3l1 18q43 16 71 67t28 101q0 31 -14.5 53.5t-42.5 23.5 q-40 0 -85 -52l-17 15q27 32 69 54t79 22q44 0 75.5 -33.5t31.5 -80.5q0 -46 -35.5 -86t-82.5 -66l-34 -19q80 0 131.5 -39.5t51.5 -117.5z" />
<glyph unicode="4" horiz-adv-x="380" d="M316 0h-99v213h-214l303 405h10v-618zM217 278v194l-144 -194h144z" />
<glyph unicode="5" horiz-adv-x="377" d="M185 371q68 0 115 -51.5t47 -120.5q0 -95 -57 -152.5t-145 -57.5q-73 0 -115 46l14 16q33 -34 75 -34q48 0 84.5 61t36.5 133q0 52 -22 94.5t-60 42.5q-45 0 -82 -54h-31l69 324q46 -22 112 -22q62 0 104 28v-90q-44 -26 -102 -26q-54 0 -111 19l-47 -214q43 58 115 58z " />
<glyph unicode="6" horiz-adv-x="412" d="M402 184q0 -89 -50.5 -142.5t-127.5 -53.5t-135.5 55.5t-58.5 162.5q0 137 96 275.5t221 176.5q0 -1 2 -10.5t2 -11.5q-51 -17 -89.5 -50.5t-60.5 -69.5t-37 -85t-20.5 -85t-9.5 -81q34 79 121 79q63 0 105 -43.5t42 -116.5zM296 169v14q0 65 -19.5 99.5t-50.5 34.5 q-38 0 -61 -38t-23 -82q0 -100 23 -145t54 -45q34 0 55.5 39.5t21.5 122.5z" />
<glyph unicode="7" horiz-adv-x="367" d="M375 604l-51 -108q-51 -107 -120 -275t-100 -288l-39 6q127 392 222 570h-175q-20 0 -34 -14.5t-18 -29.5l-5 -15h-22l10 154h332z" />
<glyph unicode="8" horiz-adv-x="404" d="M381 139q0 -20 -9.5 -43.5t-28.5 -49t-56.5 -42t-85.5 -16.5q-70 0 -120.5 35.5t-50.5 102.5q0 34 10.5 61.5t30 46.5t34 29.5t35.5 21.5l13 7l-5 3q-94 64 -94 156q0 67 41.5 115t117.5 48q64 0 106.5 -37.5t42.5 -92.5q0 -33 -8 -57t-26.5 -40.5t-32.5 -25t-43 -21.5 q46 -28 74.5 -58t39 -60t13 -45.5t2.5 -37.5zM300 481q0 42 -22 78t-66 36q-49 0 -71.5 -38.5t-21.5 -74.5q1 -34 24 -65t88 -66q28 14 48.5 55t20.5 75zM313 113q0 50 -37.5 93t-106.5 75q-26 -18 -50 -53.5t-24 -85.5q0 -57 30.5 -95.5t81.5 -38.5q55 0 80.5 30t25.5 75z " />
<glyph unicode="9" horiz-adv-x="411" d="M377 401q0 -90 -48 -187t-127 -170.5t-164 -95.5v19q50 17 90.5 49.5t65 69.5t42.5 83.5t26.5 85t13.5 80.5q-20 -35 -51.5 -55.5t-62.5 -20.5q-63 0 -102.5 43t-39.5 121q0 85 48.5 138t122.5 53q76 0 131 -55.5t55 -157.5zM265 413q0 93 -20 137.5t-50 44.5 q-26 0 -47 -46.5t-21 -111.5q0 -75 18 -112t45 -37q28 0 51.5 34t23.5 91z" />
<glyph unicode=":" horiz-adv-x="226" d="M166 321q0 -22 -15.5 -37.5t-37.5 -15.5t-37.5 15.5t-15.5 37.5t15.5 37.5t37.5 15.5t37.5 -15.5t15.5 -37.5zM166 41q0 -22 -15.5 -37.5t-37.5 -15.5t-37.5 15.5t-15.5 37.5t15.5 37.5t37.5 15.5t37.5 -15.5t15.5 -37.5z" />
<glyph unicode=";" horiz-adv-x="226" d="M166 321q0 -22 -15.5 -37.5t-37.5 -15.5t-37.5 15.5t-15.5 37.5t15.5 37.5t37.5 15.5t37.5 -15.5t15.5 -37.5zM179 10q0 -78 -86 -129l-9 13q65 47 65 100q0 16 -7 23q-10 -23 -37 -23q-17 0 -32 14t-15 34q0 24 15 38.5t40 14.5q29 0 47.5 -21.5t18.5 -63.5z" />
<glyph unicode="&#x3c;" horiz-adv-x="242" d="M202 -19l-192 314l192 314v-111l-119 -203l119 -203v-111z" />
<glyph unicode="=" horiz-adv-x="481" d="M446 346h-411v50h411v-50zM446 173h-411v50h411v-50z" />
<glyph unicode="&#x3e;" horiz-adv-x="242" d="M232 295l-192 -304v101l119 203l-119 203v101z" />
<glyph unicode="?" horiz-adv-x="306" d="M276 389q0 -38 -16.5 -66.5t-39.5 -45t-46 -31.5t-39.5 -35t-16.5 -47v-35h-22q-16 95 -16 133q0 21 7 35t35 19.5t57 7t52 15t23 40.5q0 87 -171 108l-43 1v133h23q0 -13 3.5 -19.5t6.5 -8t15 -3t18 -2.5q86 -17 128 -62t42 -137zM164 41q0 -22 -15.5 -37.5t-37.5 -15.5 t-37.5 15.5t-15.5 37.5t15.5 37.5t37.5 15.5t37.5 -15.5t15.5 -37.5z" />
<glyph unicode="@" horiz-adv-x="484" d="M444 414q-86 34 -171 34q-82 0 -182 -34v21q76 33 180 33q103 0 173 -33v-21zM444 -76q-70 -33 -173 -33q-104 0 -180 33v21q100 -34 182 -34q85 0 171 34v-21zM457 9q-20 -19 -95 -19q-80 0 -89 57q-56 -56 -126 -56q-30 0 -52 23.5t-22 53.5q0 22 11 40.5t25.5 29.5 t40 20.5t43 14t45.5 10.5t38 8q2 56 2 68q0 34 -25.5 54.5t-61.5 20.5q-16 0 -37 -6t-28 -15q25 -23 25 -45q0 -16 -11 -27.5t-27 -11.5q-14 0 -26 10.5t-12 24.5q0 50 57 82.5t115 32.5q78 0 112.5 -26.5t34.5 -88.5q0 -28 -3.5 -81t-3.5 -81v-5q-1 -80 38 -80q15 0 26 6z M276 172q-63 -21 -79 -34q-22 -18 -22 -52q0 -23 13 -34.5t32 -11.5q12 0 30.5 10t22.5 15q0 21 1.5 53.5t1.5 53.5z" />
<glyph unicode="A" horiz-adv-x="646" d="M91 69l229 597h36l193 -574q17 -51 34.5 -61.5t72.5 -10.5v-20h-297v20h79l-67 218h-192l-86 -218h81v-20h-184v20q49 0 68.5 8t32.5 41zM185 258h178l-83 251z" />
<glyph unicode="B" horiz-adv-x="620" d="M597 168q0 -93 -90 -144q-42 -24 -131 -24h-352v20h30q26 0 36 9.5t10 37.5v531q0 33 -10 41.5t-47 8.5h-19v20h333q97 0 133 -27q66 -49 66 -134q0 -59 -41.5 -101.5t-102.5 -62.5l51 -17t47 -21.5t46.5 -32t27.5 -43t13 -61.5zM465 163q0 76 -36.5 120t-137.5 45h-61 v-308h69q67 0 112 31q54 37 54 112zM426 485q0 78 -37 123q-32 40 -101 40h-58v-299q34 -1 67 1q129 8 129 135z" />
<glyph unicode="C" horiz-adv-x="610" d="M585 152l-14 -134q-72 -28 -191 -28q-146 0 -253 100.5t-107 253.5q0 73 21.5 132t57 96.5t82.5 62.5t95.5 35.5t99.5 10.5q43 0 106 -9t80 -16q14 -112 14 -138l-17 -2q-28 78 -73.5 111t-110.5 33q-103 0 -159 -78t-56 -231q0 -143 58.5 -241.5t165.5 -98.5 q138 0 184 143z" />
<glyph unicode="D" horiz-adv-x="719" d="M699 338q0 -163 -96 -250.5t-231 -87.5h-349v20q31 0 44 1.5t23 12t10 33.5v534q0 14 -3.5 22.5t-8 13.5t-16 7.5t-19 3t-25.5 0.5h-5v20h335q46 0 92 -10.5t91.5 -35t80 -61t56 -94.5t21.5 -129zM558 331q0 169 -73 243t-194 74h-61v-628h85q50 0 92 15.5t77 50t54.5 97 t19.5 148.5z" />
<glyph unicode="E" horiz-adv-x="556" d="M541 0h-513v20h15q23 0 33 2t17 12.5t7 32.5v542q0 39 -35 39h-37v20h471v-121h-20q-6 53 -27.5 77t-77.5 24h-144v-298h124q34 0 40 11t6 74h20v-172h-20v67h-127q-17 0 -30 -8.5t-13 -26.5v-275h182q64 0 84 20t26 77h19v-117z" />
<glyph unicode="F" horiz-adv-x="508" d="M501 546h-19q-13 51 -32.5 76.5t-60.5 25.5h-159v-294h122q36 0 45.5 12t9.5 71h20v-172h-20v69h-141q-36 0 -36 -29v-285h85v-20h-279v20h7q36 0 46.5 6.5t10.5 34.5v532q0 26 -8 39t-18 15t-30 2h-9v19h466v-122z" />
<glyph unicode="G" horiz-adv-x="687" d="M678 255h-67q-2 -165 0 -186l6 -22q-46 -26 -119.5 -42.5t-139.5 -16.5q-45 0 -90.5 12t-91 39.5t-80 67t-56 101t-20.5 136.5q2 147 102 242t255 95q103 0 195 -28l5 -126h-17q-17 66 -61 99.5t-110 33.5q-44 0 -82.5 -16t-72.5 -50.5t-54 -96.5t-20 -146 q0 -343 214 -343q77 0 101 31q14 19 14 64v120q0 32 -38 32h-44v20h271v-20z" />
<glyph unicode="H" horiz-adv-x="760" d="M730 0h-277v20h28q33 0 41 7.5t8 42.5v263h-300v-313h69v-20h-271v20h7q42 0 53.5 6.5t11.5 36.5v513q0 38 -6.5 55t-24.5 17h-41v20h269v-20h-67v-294h300v222q0 44 -4 58t-23 14h-39v20h266v-20h-70v-628h70v-20z" />
<glyph unicode="I" horiz-adv-x="330" d="M290 0h-255v20h7q40 0 49 6t9 37v541q0 17 -1 25t-6 13.5t-16 5.5h-42v20h255v-20h-60v-628h60v-20z" />
<glyph unicode="J" horiz-adv-x="325" d="M300 648h-70v-624q0 -167 -82 -243q-40 -37 -116 -37q-43 0 -72.5 19t-29.5 58q0 22 13.5 37t35.5 15q17 0 29 -13.5t12 -30.5t-12.5 -28t-24.5 -14q3 -10 18 -15.5t28 -5.5q31 0 52 41q21 40 21 144q0 21 -1 52t-1 39v548q0 41 -5 49.5t-30 8.5h-36v20h271v-20z" />
<glyph unicode="K" horiz-adv-x="682" d="M706 0h-282v20h57l-241 280l-10 -13v-267h62v-20h-264v20h20q32 1 42 9t10 38v496q0 59 -7 72t-44 13h-14v20h257v-20h-62v-338l281 338h-72v20h184v-20h-53q-13 0 -21.5 -1.5t-20.5 -9.5t-25 -24l-179 -216l248 -294q69 -83 93 -83h41v-20z" />
<glyph unicode="L" horiz-adv-x="535" d="M541 0h-514v20q41 0 57 8.5t16 38.5v529q0 35 -13 43.5t-60 8.5v20h278v-20h-75v-628q94 0 181 2q27 1 46.5 10.5t32.5 28.5t20 36t15 45h16v-142z" />
<glyph unicode="M" horiz-adv-x="851" d="M826 0h-264v20h20q27 0 33 5.5t6 36.5v578l-237 -653h-9l-260 654v-621h81v-20h-171v20h24q27 1 36.5 9.5t9.5 35.5v527q0 37 -7.5 46.5t-38.5 9.5h-24v20h217l188 -496l181 496h215v-20h-75v-628h75v-20z" />
<glyph unicode="N" horiz-adv-x="659" d="M626 648h-57v-663h-13l-442 644v-609h82v-20h-172v20h15q34 1 45 8t11 37v524q0 40 -13 49.5t-49 9.5h-15v20h221l310 -461v412q0 18 -8 23.5t-44 5.5h-23v20h152v-20z" />
<glyph unicode="O" d="M720 345q0 -81 -34 -150t-87 -113t-115.5 -69t-122.5 -25q-59 0 -118 23.5t-109.5 66t-82 111t-31.5 149.5q0 78 33 144t85 107.5t113.5 65t121.5 23.5q141 0 244 -95.5t103 -237.5zM580 344q0 140 -54.5 227t-151.5 86q-99 -1 -156.5 -95t-57.5 -226q0 -151 54 -238 t159 -88q93 -1 150 92.5t57 241.5z" />
<glyph unicode="P" horiz-adv-x="583" d="M568 478q0 -78 -39.5 -131t-102.5 -76q-46 -16 -93 -16q-56 0 -103 15v-250h73v-20h-271v20q43 0 55.5 7t12.5 40v509q0 27 -4 42t-16.5 21.5t-23 7.5t-36.5 1v20h316q112 0 171 -54.5t61 -135.5zM440 480q0 168 -172 168h-38v-358q24 -10 56 -10q38 0 67 16 q38 22 62.5 68t24.5 116z" />
<glyph unicode="Q" d="M785 -63q-80 -80 -213 -80q-32 0 -75 10t-97.5 42.5t-85.5 80.5q-121 18 -207.5 111t-86.5 237q0 138 108 238.5t253 101.5q141 1 240 -94t99 -239q0 -132 -80.5 -228t-209.5 -124q5 -12 13 -24q57 -76 170 -76q91 0 162 60zM580 339q0 57 -10.5 109.5t-32.5 101 t-63.5 78t-96.5 29.5q-68 0 -119 -51.5t-74.5 -124t-23.5 -151.5q0 -141 58 -230.5t169 -89.5q82 0 137.5 94t55.5 235z" />
<glyph unicode="R" horiz-adv-x="667" d="M693 -3h-12q-155 -3 -205 36q-22 17 -33.5 41.5t-13 35.5t-4.5 45q-9 106 -32 137.5t-111 40.5l-52 5v-318h72v-20h-276v20h15q34 0 46.5 8t12.5 37v533q0 30 -13.5 39.5t-45.5 10.5h-18v20h344q88 0 130 -29q57 -39 55 -124q0 -44 -20 -78t-38.5 -47.5t-37.5 -22.5 q-38 -17 -61 -21q2 -1 35 -12t59.5 -28.5t44.5 -46.5q16 -25 23 -84.5t22 -91.5q9 -20 26 -36t31 -22q18 -8 57 -10v-18zM429 503q-7 145 -157 145h-42v-289q66 -6 80 -6q46 0 75 27.5t37 59t7 63.5z" />
<glyph unicode="S" horiz-adv-x="479" d="M449 180q0 -84 -63.5 -139t-154.5 -55q-102 0 -201 43v119h17q14 -75 61.5 -106.5t107.5 -31.5q58 0 91.5 29t32.5 90q0 19 -6.5 35.5t-13.5 27.5t-24 25t-27 20.5t-35 22t-35 21.5q-46 29 -67 44t-45.5 40.5t-33.5 55t-9 70.5q0 77 61.5 132.5t150.5 55.5q97 0 165 -34 v-112h-17q-9 58 -42.5 89.5t-80.5 31.5q-62 0 -93.5 -38t-31.5 -85q0 -46 27 -73t119 -87q78 -51 102 -77q45 -47 45 -114z" />
<glyph unicode="T" horiz-adv-x="534" d="M539 547h-17q-6 50 -31 75.5t-82 25.5h-71v-628h74v-20h-279v20h39q23 0 29.5 11t6.5 43v485q0 65 -7 77t-45 12h-29q-57 0 -83 -25t-32 -76h-17v121h544v-121z" />
<glyph unicode="U" horiz-adv-x="688" d="M684 648h-73v-317q0 -158 -61.5 -249.5t-170.5 -91.5q-50 0 -98 14.5t-92 45t-71.5 86.5t-27.5 130v330q0 32 -12.5 42t-45.5 10h-25v20h313v-20h-100v-338q0 -116 19 -182.5t54.5 -92t95.5 -25.5q34 0 66.5 14.5t64.5 47.5t51.5 97t19.5 151v285q0 28 -16.5 35.5 t-61.5 7.5h-19v20h190v-20z" />
<glyph unicode="V" horiz-adv-x="598" d="M615 648q-49 -2 -64 -10.5t-28 -44.5l-159 -445l-53 -178h-14q-15 43 -24 69l-204 557q-8 22 -26.5 37t-41.5 15h-23v20h297v-20h-88l166 -474l169 474h-87v20h180v-20z" />
<glyph unicode="W" horiz-adv-x="861" d="M883 648h-11q-35 0 -48 -11t-25 -51q-119 -379 -120 -382q-11 -31 -28 -89.5t-29 -101.5l-11 -43h-13q-18 53 -28 86l-120 392l-9 33q-6 -18 -9 -28l-134 -415l-19 -68h-13q-15 45 -24 73l-174 543q-12 40 -20.5 51t-28.5 11h-36v20h263v-20h-59l139 -470l106 328l-9 33 q-21 75 -32.5 92t-41.5 17h-24v20h261v-20h-61l130 -457l144 457h-93v20h177v-20z" />
<glyph unicode="X" horiz-adv-x="589" d="M602 0h-279v20h69l-136 257l-160 -257h77v-20h-179v20q57 0 73 7t38 42l142 225l-166 307q-19 34 -27 39q-11 8 -67 8v20h284v-20h-73l128 -241l142 241h-86v20h174v-20q-48 -1 -63 -10t-40 -50l-117 -196l162 -309q15 -29 34 -46t35 -17h35v-20z" />
<glyph unicode="Y" horiz-adv-x="519" d="M559 648q-41 0 -55.5 -10.5t-35.5 -55.5l-135 -283v-279h78v-20h-288v20h40q40 0 40 37v244l-130 258q-28 55 -46 72t-47 17h-12v20h263v-20h-63l156 -329l157 329h-84v20h162v-20z" />
<glyph unicode="Z" horiz-adv-x="491" d="M489 124l-15 -124h-471l333 648h-209q-73 0 -106 -110h-18l18 130h462l-331 -648h221q32 0 59.5 30t39.5 74h17z" />
<glyph unicode="[" horiz-adv-x="293" d="M252 648h-69v-932h67v-20h-140v972h142v-20z" />
<glyph unicode="\" horiz-adv-x="356" d="M341 -14h-47l-274 658h48z" />
<glyph unicode="]" horiz-adv-x="313" d="M193 -304h-140v20h67v932h-69v20h142v-972z" />
<glyph unicode="^" horiz-adv-x="315" d="M295 530l-6 -18l-122 118h-10l-125 -124l-12 6l133 227h17z" />
<glyph unicode="_" horiz-adv-x="417" d="M422 -132h-427v60h427v-60z" />
<glyph unicode="`" horiz-adv-x="221" d="M155 438l-17 -5l-112 162l40 33l51 -3z" />
<glyph unicode="a" horiz-adv-x="398" d="M404 9q-20 -19 -95 -19q-80 0 -89 57q-61 -56 -126 -56q-30 0 -52 23.5t-22 53.5q0 19 6.5 35.5t22.5 29t28.5 21t38 17t36.5 12t39.5 10t31.5 7.5q2 56 2 59q0 36 -23 60.5t-57 24.5q-19 0 -40 -9t-32 -23q3 -2 14.5 -11t16 -16t4.5 -17q0 -16 -14.5 -32.5t-30.5 -16.5 q-19 0 -32 13t-13 32q0 10 12 32q22 40 67.5 61.5t96.5 21.5q78 0 112.5 -26.5t34.5 -88.5q0 -28 -3.5 -86t-3.5 -86v-5q0 -21 1 -33t10 -25.5t27 -13.5q12 0 28 9zM223 182q-51 -17 -76 -37t-25 -59q0 -22 14.5 -34t32.5 -12q12 0 29.5 10t21.5 15q0 21 1.5 58.5t1.5 58.5z " />
<glyph unicode="b" horiz-adv-x="486" d="M469 193q0 -89 -56 -147t-134 -58q-51 0 -93 18q-24 12 -37 12q-19 0 -33 -18h-71v629q0 26 -3.5 32.5t-17.5 6.5h-28v20h169v-358q34 20 47.5 27.5t41.5 16.5t56 9q78 0 118.5 -54.5t40.5 -135.5zM345 174q0 66 -29 115t-78 49q-32 0 -73 -28v-225q0 -37 26.5 -56 t61.5 -18q43 1 67.5 46t24.5 117z" />
<glyph unicode="c" horiz-adv-x="369" d="M360 72q-14 -25 -54 -54.5t-95 -29.5q-80 0 -136.5 54t-56.5 145q0 83 60.5 139t145.5 56q55 0 95.5 -22.5t40.5 -54.5q0 -24 -14 -38.5t-34 -14.5q-19 0 -34 12t-15 35q0 25 31 39q-12 23 -52 23q-36 0 -61.5 -39t-25.5 -113q0 -87 31 -136.5t69 -49.5q27 0 51.5 18 t40.5 42z" />
<glyph unicode="d" horiz-adv-x="492" d="M489 0h-172v50q-17 -21 -56 -40.5t-78 -19.5q-73 0 -119 52t-46 126q0 83 54 148.5t136 65.5q31 0 62.5 -13t46.5 -28v291q0 21 -5.5 28.5t-23.5 7.5h-37v20h186v-668h52v-20zM317 70v251q-31 30 -66 30q-37 0 -72 -40t-35 -120q0 -66 28.5 -111t69.5 -45q45 0 75 35z " />
<glyph unicode="e" horiz-adv-x="400" d="M388 215h-248v-16q0 -78 27 -132t77 -54q74 0 124 73l15 -13q-21 -36 -63 -59.5t-92 -23.5q-89 0 -150 56.5t-61 141.5q0 81 55 137t149 56q53 0 94 -21t57 -61q16 -38 16 -84zM276 235q-8 82 -22 105q-15 21 -38 22q-42 0 -58 -31t-18 -96h136z" />
<glyph unicode="f" horiz-adv-x="272" d="M399 612q0 -21 -15.5 -36.5t-36.5 -15.5q-19 0 -33 13t-14 33q0 26 24 46q-16 24 -45 24q-54 0 -79 -54t-25 -131v-120h85v-20h-58q-17 0 -22 -6.5t-5 -24.5v-300h82v-20h-253v20h27q17 0 20.5 3.5t3.5 20.5v380q0 68 24 128t75 101t120 41q45 0 85 -21t40 -61z" />
<glyph unicode="g" horiz-adv-x="432" d="M457 -128q0 -77 -58.5 -125t-157.5 -58q-10 -1 -32 -1q-202 0 -202 119q0 63 90 112q-38 7 -62.5 31.5t-24.5 55.5q0 28 12 53t24.5 38.5t33.5 30.5q-27 19 -43 50t-16 64q0 59 54 99.5t126 40.5q100 0 129 -62q11 25 30.5 41t41.5 16q23 0 40 -14.5t16 -32.5 q1 -20 -12 -34t-30 -14q-14 0 -26.5 10.5t-12.5 24.5q0 10 8 21t18 15q-5 3 -9 3q-13 0 -26 -11.5t-13 -25.5q0 -5 11.5 -32t11.5 -53q0 -55 -51.5 -92t-117.5 -37q-34 0 -64 11t-33 11q-10 0 -28 -16q-26 -25 -26 -49q0 -19 40 -27.5t87 -8.5q23 0 62.5 2.5t62.5 2.5 q66 0 106.5 -38t40.5 -121zM202 363q-63 -4 -63 -117q0 -121 66 -121q30 0 45 38t15 81q0 26 -2 45t-8 37.5t-19.5 28t-33.5 8.5zM422 -145q0 73 -137 73q-13 0 -41 -2q-57 -6 -79 -21q-40 -27 -40 -78q0 -57 38.5 -84.5t98.5 -27.5q61 0 110.5 38t49.5 102z" />
<glyph unicode="h" horiz-adv-x="501" d="M492 0h-215v20h25q15 0 20 6.5t5 24.5v177q0 51 -15 74t-58 23q-17 0 -41 -9.5t-38 -25.5v-270h44v-20h-212v20h21q17 0 22 4t5 20v585q0 28 -7.5 33.5t-33.5 5.5h-7v20h168v-378q88 74 174 74q98 0 98 -138v-226h45v-20z" />
<glyph unicode="i" horiz-adv-x="237" d="M194 545q0 -28 -19.5 -47.5t-47.5 -19.5t-48 19.5t-20 47.5q0 29 19.5 48.5t48.5 19.5q28 0 47.5 -20t19.5 -48zM225 0h-212v20h25q14 0 18.5 5t4.5 23v259q0 17 -0.5 24t-6.5 13.5t-19 6.5h-22v20h168v-351h44v-20z" />
<glyph unicode="j" horiz-adv-x="230" d="M185 553q0 -26 -19 -45t-45 -19q-27 0 -46 19t-19 45q0 27 19 46t46 19q26 0 45 -19t19 -46zM180 -20q0 -156 -41 -220q-12 -19 -41 -37.5t-71 -18.5q-48 0 -73.5 20t-25.5 53q0 23 16.5 41t33.5 18q43 0 43 -48q0 -29 -44 -48q11 -17 33 -17t37.5 21t16.5 49 q0 6 -2 58.5t-2 74.5v382v8.5v9t-0.5 7.5t-1.5 7.5t-3.5 5.5t-6 4t-8.5 1h-33v20h173v-391z" />
<glyph unicode="k" horiz-adv-x="444" d="M465 0h-192v20h30l-128 183v-183h44v-20h-212v20h22q16 0 21 4t5 20v588q0 22 -5 29t-23 7h-20v20h168v-479l149 142h-51v20h140v-20h-62l-92 -89l170 -242h36v-20z" />
<glyph unicode="l" horiz-adv-x="230" d="M220 0h-212v20h25q13 0 18 4.5t5 19.5v576q0 29 -4.5 38.5t-20.5 9.5h-23v20h168v-668h44v-20z" />
<glyph unicode="m" horiz-adv-x="750" d="M743 0h-219v20q32 0 42 3t10 15v185q0 52 -10 80.5t-40 28.5q-42 0 -91 -41v-271h43v-20h-211v20q32 0 40 4t8 24v175q0 53 -9 81t-37 28q-33 0 -89 -42v-270h45v-20h-217v20h18q19 0 26.5 4.5t7.5 19.5v264q0 24 -6 33.5t-27 9.5h-19v20h172v-61q21 21 68.5 46t90.5 25 q45 0 65.5 -17.5t28.5 -52.5q81 69 144 69q119 0 119 -125v-235h47v-20z" />
<glyph unicode="n" horiz-adv-x="498" d="M491 0h-222v20h35q13 0 16.5 4.5t3.5 23.5v165v10q0 29 -0.5 41.5t-3.5 29.5t-9.5 24t-18.5 12t-30 5q-27 0 -82 -45v-270h42v-20h-210v20h22q17 0 21.5 4.5t4.5 19.5v264q0 25 -4 34t-23 9h-21v20h168v-61q20 20 69 46.5t87 26.5q64 0 86 -33t22 -105v-225h47v-20z" />
<glyph unicode="o" horiz-adv-x="482" d="M464 186q0 -81 -58 -139.5t-174 -58.5q-105 0 -159.5 53.5t-54.5 140.5q0 84 58 142.5t163 58.5q121 0 173 -55t52 -142zM339 185q0 76 -25.5 127.5t-73.5 51.5q-28 0 -48 -16t-29.5 -43t-14 -56t-4.5 -62q0 -80 26 -130t66 -50q103 0 103 178z" />
<glyph unicode="p" horiz-adv-x="507" d="M489 203q0 -92 -49.5 -151.5t-127.5 -59.5q-76 0 -137 46v-322h64v-20h-232v20h22q17 0 21.5 3.5t4.5 20.5v589q0 13 -4 17.5t-17 4.5h-27v20h168v-44q78 58 150 58q82 0 123 -54t41 -128zM362 177q0 81 -31 125t-77 42q-37 -2 -79 -39v-246q45 -35 85 -35 q47 -1 74.5 40.5t27.5 112.5z" />
<glyph unicode="q" horiz-adv-x="498" d="M496 -304h-233v20h38q18 0 22.5 5.5t4.5 20.5v297q-18 -23 -57 -36.5t-73 -13.5q-74 0 -127.5 55.5t-53.5 130.5q0 89 58.5 148t147.5 59q46 0 106 -26l119 30v-670h48v-20zM328 61v274q-31 18 -68 18q-47 0 -81.5 -51t-34.5 -121q0 -61 30.5 -108.5t80.5 -47.5 q46 0 73 36z" />
<glyph unicode="r" horiz-adv-x="359" d="M369 319q0 -22 -16.5 -38.5t-36.5 -16.5q-19 0 -36 13.5t-17 33.5q0 10 7 21t16 15q-12 4 -18 4q-15 0 -41 -19.5t-47 -45.5v-266h56v-20h-224v20h24q14 0 19 5.5t5 22.5v259q0 26 -4.5 35t-19.5 9h-24v20h168v-61q63 71 120 71q32 0 50.5 -17.5t18.5 -44.5z" />
<glyph unicode="s" horiz-adv-x="302" d="M282 96q-1 -51 -38.5 -79.5t-90.5 -28.5q-40 0 -74 6t-48 12l-14 7v83h18q2 -45 25.5 -66t55.5 -21q65 0 65 64q0 7 -2 14t-7.5 14t-10 12.5t-13 14t-13.5 12.5t-15.5 12.5t-13.5 11.5q-27 23 -39.5 35.5t-24.5 32t-12 39.5q0 49 33 80.5t101 31.5q34 0 65 -9t42 -18v-69 h-18q-2 76 -62 76q-31 0 -49 -13t-18 -37q0 -10 5 -20t15 -21t18.5 -19t23 -20t19.5 -17q30 -27 41 -38t23.5 -34t12.5 -48z" />
<glyph unicode="t" horiz-adv-x="276" d="M275 30q-9 -13 -40.5 -25.5t-76.5 -12.5q-62 0 -85 27.5t-23 79.5l2 358l120 25v-111h94v-20h-73q-21 0 -21 -24l-2 -232q0 -40 8.5 -56.5t36.5 -16.5q26 0 50 24z" />
<glyph unicode="u" horiz-adv-x="492" d="M478 0h-165v61q-89 -71 -150 -71q-111 0 -111 147v173q0 28 -4.5 34.5t-21.5 6.5h-22v20h168v-238q0 -22 1.5 -34.5t6.5 -29t18 -24t34 -7.5q37 0 81 46v241q0 18 -5.5 22t-26.5 4h-22v20h174v-313q0 -26 7 -32t29 -6h9v-20z" />
<glyph unicode="v" horiz-adv-x="355" d="M380 351q-21 0 -30 -1.5t-19 -11t-18 -30.5l-126 -325h-12l-121 325q-11 30 -20.5 36.5t-35.5 6.5h-17v20h236v-20h-54l67 -203l79 203h-47v20h118v-20z" />
<glyph unicode="w" horiz-adv-x="567" d="M586 351h-14q-21 0 -30 -5.5t-16 -27.5l-115 -339h-11l-109 290l-109 -290h-11l-125 352q-5 15 -14 17.5t-46 2.5v20h215v-20h-37l64 -197l55 146l-18 51h-37v20h205v-20h-7q-29 0 -29 -20q0 -9 5 -24l51 -145l63 189h-38v20h108v-20z" />
<glyph unicode="x" horiz-adv-x="427" d="M437 0h-229v20h47l-77 117l-97 -117h48v-20h-136v20h19q26 0 41.5 7t34.5 31l79 97l-115 174q-15 22 -35 22h-27v20h229v-20h-46l74 -114l91 114h-49v20h135v-20h-39q-22 0 -37 -19l-89 -110l102 -160q16 -24 25.5 -33t22.5 -9h28v-20z" />
<glyph unicode="y" horiz-adv-x="344" d="M364 351h-17q-4 0 -6.5 -0.5t-5 -0.5t-4.5 -1.5t-3.5 -2.5t-3.5 -4l-3 -4.5t-2.5 -6t-3 -7t-3.5 -9t-4 -10.5l-207 -536q-14 -37 -27 -52q-17 -21 -44 -21q-25 0 -40 14.5t-15 34.5t14 33.5t33 13.5q20 0 31 -16t11 -34q6 3 10 14l92 234l-125 315q-1 3 -3.5 10t-3.5 9 t-3.5 7.5t-4 7t-4.5 5t-5.5 4.5t-6.5 2t-8 1h-32v20h237v-20h-55l73 -207l79 207h-49v20h109v-20z" />
<glyph unicode="z" horiz-adv-x="335" d="M328 88l-12 -88h-307l186 351h-74q-44 0 -63.5 -13.5t-30.5 -49.5h-16l12 83h304l-181 -351h75q39 0 61.5 20.5t29.5 47.5h16z" />
<glyph unicode="{" horiz-adv-x="409" d="M390 -200q0 -31 -23.5 -45.5t-55.5 -14.5q-85 0 -140.5 86t-55.5 176v19q0 19 3 50t3.5 49t-4.5 39t-21.5 34.5t-45.5 20.5v15q29 7 45.5 20.5t21.5 34.5t4.5 39t-3.5 49t-3 50v19q0 55 22 114t68.5 103.5t104.5 44.5q31 0 55.5 -14.5t24.5 -45.5q0 -17 -10.5 -29 t-29.5 -12q-16 0 -25.5 10t-9.5 27q0 12 6.5 21.5t14.5 11.5q-5 11 -32 11q-63 0 -86.5 -40.5t-23.5 -113.5q0 -17 3.5 -71.5t3.5 -71.5q0 -59 -35 -105t-102 -60q2 0 4 -0.5t4.5 -1.5t4.5 -1q62 -18 93 -61t31 -100q0 -17 -3.5 -71.5t-3.5 -71.5q0 -76 24 -115t96 -39 q18 0 22 11q-6 1 -14 11t-8 22q0 16 9.5 26.5t25.5 10.5q19 0 30 -12t11 -29z" />
<glyph unicode="|" horiz-adv-x="217" d="M142 -157h-67v764h67v-764z" />
<glyph unicode="}" horiz-adv-x="409" d="M359 214q-30 -8 -47 -22t-21.5 -35.5t-4 -40.5t4 -51t3.5 -52v-10q0 -56 -21.5 -115t-66.5 -103.5t-102 -44.5q-32 0 -58.5 14.5t-26.5 45.5q0 17 10.5 29t29.5 12q16 0 26 -11t10 -27q0 -24 -22 -31q2 -12 26 -12q72 1 94 38.5t22 115.5q0 17 -3.5 71.5t-3.5 71.5 q0 57 31 100t93 61q3 1 7 2.5t6 1.5q-2 0 -4 0.5t-4.5 1.5t-4.5 1q-62 18 -93 61t-31 100q0 17 3.5 71.5t3.5 71.5q0 77 -24 116.5t-96 39.5q-26 0 -26 -10q8 -1 17 -11.5t9 -22.5q0 -17 -9.5 -28t-25.5 -11q-19 0 -30 12t-11 29q0 31 25.5 45.5t62.5 14.5q57 0 101.5 -44 t65 -102.5t20.5 -114.5v-10q0 -20 -3.5 -52t-4 -51.5t4 -41.5t21.5 -36t47 -22v-15z" />
<glyph unicode="~" horiz-adv-x="460" d="M405 740q-23 -47 -54 -72t-60 -25q-22 0 -70 31.5t-72 31.5q-50 0 -112 -56l-6 7q26 33 67 62t71 29q39 0 74 -27.5t69 -27.5q48 0 84 50z" />
<glyph unicode="&#xa1;" horiz-adv-x="280" d="M53 -214q8 0 14.5 2.5t10 8t6 11t3.5 16t1 17t0.5 20.5t0.5 21l23 367h53l23 -367q0 -6 0.5 -16.5t0.5 -16t1 -14.5t2 -14t2.5 -11.5t4.5 -10t7 -7t9 -5t12 -1.5v-19h-174v19zM84 345q0 22 15.5 37.5t37.5 15.5t37.5 -15.5t15.5 -37.5t-15.5 -37.5t-37.5 -15.5 t-37.5 15.5t-15.5 37.5z" />
<glyph unicode="&#xa2;" horiz-adv-x="412" d="M232 639h21v-158q50 -3 83.5 -22.5t33.5 -48.5q0 -18 -13 -32t-31 -14q-17 0 -29 12t-12 29q0 27 19 39q-4 7 -19.5 12t-30.5 5h-1v-337q4 -1 14 -1q21 0 48.5 19.5t41.5 39.5l15 -10q-12 -21 -43.5 -47t-75.5 -34v-162h-21v159h-9q-80 0 -136.5 54t-56.5 145 q0 82 59 137.5t143 57.5v157zM167 309q0 -137 65 -176v324q-28 -11 -46.5 -48.5t-18.5 -99.5z" />
<glyph unicode="&#xa3;" horiz-adv-x="442" d="M427 0h-397v20h29q16 0 19 4t3 20v350q0 118 58 181t159 63q38 0 83 -22.5t45 -60.5q0 -21 -16.5 -38t-35.5 -17q-20 0 -35.5 14.5t-14.5 31.5q1 29 27 49q-22 22 -51 22t-48.5 -10t-29.5 -22.5t-15 -40.5t-5.5 -46.5t-0.5 -57.5v-9v-100h105v-22h-78q-16 0 -21.5 -6 t-5.5 -25v-258h226v-20z" />
<glyph unicode="&#xa4;" horiz-adv-x="497" d="M409 322v-24h-246v24h246zM409 272v-24h-246v24h246zM472 128l-11 -114q-59 -24 -153 -24q-117 0 -202.5 85.5t-85.5 215.5q0 62 17.5 112t45.5 82t66 53t76.5 30t79.5 9q34 0 85 -7.5t64 -13.5q11 -95 11 -117l-15 -1q-22 66 -57 91t-89 25q-82 0 -127 -63.5t-45 -193.5 q0 -121 46.5 -203t132.5 -82q112 0 146 117z" />
<glyph unicode="&#xa5;" horiz-adv-x="514" d="M554 632q-47 0 -61 -9t-36 -53l-88 -168h143v-20h-152l-35 -66v-84h147v-20h-147v-192h79v-20h-275v20h37q14 0 23 3q16 5 16 28v161h-152v20h152v62l-45 88h-147v20h137l-81 156q-24 48 -42 63q-12 11 -59 11v20h253v-20h-59l111 -230h73l118 230h-71v20h161v-20z M338 382h-55l27 -54z" />
<glyph unicode="&#xa6;" horiz-adv-x="217" d="M142 292h-67v315h67v-315zM142 -157h-67v314h67v-314z" />
<glyph unicode="&#xa7;" horiz-adv-x="413" d="M369 599q0 -21 -14.5 -35.5t-36.5 -14.5q-17 0 -28.5 13.5t-11.5 29.5t9.5 28t19.5 16q-5 14 -33 14q-47 0 -70.5 -41t-23.5 -159v-586h-80v524q0 164 85 243q40 37 88 37q42 0 69 -17t27 -52zM323 -24q0 -164 -85 -243q-40 -37 -78 -37q-90 0 -90 67q0 21 13 36t35 15 q17 0 27.5 -13t10.5 -30q0 -29 -28 -38q13 -19 31 -19q47 0 65.5 41.5t18.5 138.5v604h80v-522z" />
<glyph unicode="&#xa8;" horiz-adv-x="267" d="M315 508q0 -20 -14 -35t-34 -15t-35 15t-15 35t15 34t35 14t34 -14t14 -34zM100 508q0 -20 -14 -35t-34 -15t-34.5 15t-14.5 35t14.5 34t34.5 14t34 -14t14 -34z" />
<glyph unicode="&#xa9;" horiz-adv-x="742" d="M692 325q0 -140 -94 -239t-227 -99t-227 99t-94 239t94 239.5t227 99.5t227 -99.5t94 -239.5zM661 325q0 130 -84.5 222.5t-206.5 92.5q-121 0 -203.5 -92t-82.5 -223q0 -130 83.5 -222t204.5 -92t205 92t84 222zM509 219l-12 -65q-54 -18 -109 -18q-74 0 -131 52 t-57 139q0 93 60 140.5t138 47.5q27 0 54 -5t40 -10l13 -5l3 -70h-17q-15 37 -35.5 53.5t-55.5 16.5q-51 0 -83.5 -50t-32.5 -117q0 -76 34 -123.5t82 -47.5q39 0 58.5 17t34.5 47z" />
<glyph unicode="&#xab;" horiz-adv-x="367" d="M332 294q-3 0 -8 -1t-18 -7t-22.5 -15.5t-17.5 -29t-8 -44.5q0 -26 6 -47t14.5 -33t18 -20.5t16.5 -11.5t10 -3v-18q-6 1 -15 4t-33 13.5t-42 24t-33 37t-15 50.5q0 29 15 52.5t34.5 35t43 19.5t36.5 10t18 2v-18zM182 294q-4 0 -10.5 -1.5t-18 -8t-21.5 -16t-17 -28.5 t-7 -43q0 -26 6 -47.5t14.5 -33t18.5 -20t16.5 -11.5t9.5 -3v-18q-6 1 -15 4t-33 13.5t-42 24t-33 37t-15 50.5q0 30 15 53t35.5 35t44 19.5t36 9.5t16.5 2v-18z" />
<glyph unicode="&#xac;" horiz-adv-x="391" d="M297 114v123h-248v50h298v-173h-50z" />
<glyph unicode="&#xad;" horiz-adv-x="254" d="M224 170h-194v76h194v-76z" />
<glyph unicode="&#xae;" horiz-adv-x="725" d="M45 309q0 132 92.5 225t224.5 93t225 -93t93 -225t-93 -224.5t-225 -92.5t-224.5 92.5t-92.5 224.5zM74 309q0 -120 84 -204t204 -84t204.5 84t84.5 204t-84.5 204.5t-204.5 84.5t-204 -84.5t-84 -204.5zM411 406q0 39 -19 49.5t-69 10.5v-139h11q30 0 53.5 24t23.5 55z M526 167l1 -20q-40 -4 -46 -4q-35 0 -58 23t-28 61q-7 50 -15 61q-13 18 -51 18h-6v-102q0 -20 5.5 -28.5t21.5 -9.5h11v-20h-143v20h9q15 2 21.5 12t6.5 36v213q0 26 -6.5 33t-30.5 7v20h148q54 0 81.5 -22.5t27.5 -62.5q0 -13 -4.5 -24.5t-12 -20t-15.5 -15t-18.5 -11 l-17.5 -7.5t-14 -5.5t-8 -2.5q15 -5 41.5 -19.5t31.5 -24.5q3 -7 6 -37t16 -48t46 -20z" />
<glyph unicode="&#xaf;" horiz-adv-x="279" d="M343 479h-279v35h279v-35z" />
<glyph unicode="&#xb0;" horiz-adv-x="142" d="M137 546q0 -27 -19.5 -46.5t-46.5 -19.5t-46.5 19.5t-19.5 46.5t19.5 46.5t46.5 19.5t46.5 -19.5t19.5 -46.5zM107 546q0 15 -10.5 25.5t-25.5 10.5t-25.5 -10.5t-10.5 -25.5t10.5 -25.5t25.5 -10.5t25.5 10.5t10.5 25.5z" />
<glyph unicode="&#xb1;" horiz-adv-x="443" d="M393 604q0 -16 -10 -27.5t-27 -11.5q-13 0 -21 10t-8 23q0 23 26 32q-4 10 -18.5 20t-30.5 10q-7 0 -11 -1v-685q0 -164 -85 -243q-40 -37 -78 -37q-39 0 -64.5 18.5t-25.5 45.5q0 16 10 27.5t27 11.5q13 0 21 -10t8 -23q0 -23 -26 -32q4 -10 18.5 -20t30.5 -10q7 0 11 1 v685q0 164 85 243q40 37 78 37q39 0 64.5 -18.5t25.5 -45.5zM243 -88v720q-7 -7 -12 -17q-41 -78 -41 -175v-710q7 7 12 17q41 78 41 165z" />
<glyph unicode="&#xb4;" horiz-adv-x="221" d="M42 430l-16 6l33 189l51 3l40 -33z" />
<glyph unicode="&#xb6;" horiz-adv-x="587" d="M567 648h-31q-33 0 -46 -13.5t-13 -58.5v-600q0 -159 -84 -237q-20 -19 -54.5 -32.5t-69.5 -13.5q-45 0 -75 18t-30 52q0 21 13 36t35 15q17 0 28 -13t11 -30q0 -28 -26 -37q11 -19 47 -19q38 0 56 32q29 52 29 213v310q-42 -13 -69 -13q-88 0 -158 60.5t-70 160.5 q0 82 55 136t167 54h285v-20z" />
<glyph unicode="&#xb7;" horiz-adv-x="226" d="M166 196q0 -22 -15.5 -37.5t-37.5 -15.5t-37.5 15.5t-15.5 37.5t15.5 37.5t37.5 15.5t37.5 -15.5t15.5 -37.5z" />
<glyph unicode="&#xb8;" horiz-adv-x="629" d="M394 1l-9 -11q-18 -25 -18 -45q0 -11 30.5 -43.5t30.5 -49.5q0 -22 -17.5 -35.5t-39.5 -13.5q-31 0 -56 34l10 8q13 -14 26 -14q28 0 28 31q0 14 -22.5 43t-22.5 41q0 11 9 28t19 27h32z" />
<glyph unicode="&#xba;" horiz-adv-x="636" d="M624 215h-141q1 -4 1 -29q0 -83 -64 -144q26 -25 75 -25q25 0 56.5 19.5t52.5 49.5l15 -13q-21 -36 -58.5 -59.5t-77.5 -23.5q-71 0 -112 24q-43 -26 -129 -26q-109 0 -166.5 53t-57.5 141q0 82 62.5 141.5t168.5 59.5q81 0 110 -16q33 14 116 14q46 0 81.5 -20.5 t51.5 -61.5q16 -38 16 -84zM246 7q42 0 69 26q-77 60 -77 155q0 92 71 151q-19 25 -62 25q-47 0 -75 -55.5t-28 -124.5q0 -81 32 -129t70 -48zM507 235q0 50 -23 88.5t-56 38.5q-16 0 -31 -11q39 -25 57 -51.5t26 -64.5h27zM311 235v-26q0 -30 8 -49.5t31 -55.5q9 38 9 81 q0 19 -4 50q-5 32 -21 67q-22 -40 -23 -67z" />
<glyph unicode="&#xbb;" horiz-adv-x="367" d="M35 82q3 0 8 1t18 7t22.5 15.5t17.5 29t8 44.5q0 26 -6 47t-14.5 33t-18 20.5t-16.5 11.5t-10 3v18q6 -1 15 -4t33 -13.5t42 -24t33 -37t15 -50.5q0 -29 -15 -52.5t-34.5 -35t-43 -19.5t-36.5 -10t-18 -2v18zM185 82q4 0 10.5 1.5t18 8t21.5 16t17 28.5t7 43 q0 26 -6 47.5t-14.5 33t-18.5 20t-16.5 11.5t-9.5 3v18q6 -1 15 -4t33 -13.5t42 -24t33 -37t15 -50.5q0 -30 -15 -53t-35.5 -35t-44 -19.5t-36 -9.5t-16.5 -2v18z" />
<glyph unicode="&#xbf;" horiz-adv-x="306" d="M30 36q0 38 16.5 66.5t39.5 45t46 31.5t39.5 35t16.5 47v35h22q16 -95 16 -133q0 -21 -7 -35t-35 -19.5t-57 -7t-52 -15t-23 -40.5q0 -87 171 -108l43 -1v-133h-23q0 13 -3.5 19.5t-6.5 8t-15 3t-18 2.5q-86 17 -128 62t-42 137zM142 384q0 22 15.5 37.5t37.5 15.5 t37.5 -15.5t15.5 -37.5t-15.5 -37.5t-37.5 -15.5t-37.5 15.5t-15.5 37.5z" />
<glyph unicode="&#xc0;" horiz-adv-x="666" d="M101 69l229 597h36l193 -574q17 -51 34.5 -61.5t72.5 -10.5v-20h-297v20h79l-67 218h-192l-86 -218h81v-20h-184v20q49 0 68.5 8t32.5 41zM195 258h178l-83 251zM242 721l-4 39l35 43l168 -97l-7 -17z" />
<glyph unicode="&#xc1;" horiz-adv-x="666" d="M101 69l229 597h36l193 -574q17 -51 34.5 -61.5t72.5 -10.5v-20h-297v20h79l-67 218h-192l-86 -218h81v-20h-184v20q49 0 68.5 8t32.5 41zM195 258h178l-83 251zM472 760l-4 -39l-193 -32l-4 17l166 97z" />
<glyph unicode="&#xc2;" horiz-adv-x="666" d="M101 69l229 597h36l193 -574q17 -51 34.5 -61.5t72.5 -10.5v-20h-297v20h79l-67 218h-192l-86 -218h81v-20h-184v20q49 0 68.5 8t32.5 41zM195 258h178l-83 251zM481 659l-13 -10l-116 55h-7l-115 -54l-16 9l131 111h7z" />
<glyph unicode="&#xc3;" horiz-adv-x="666" d="M516 792q-23 -47 -54 -72t-60 -25q-22 0 -70 31.5t-72 31.5q-50 0 -112 -56l-6 7q26 33 67 62t71 29q39 0 74 -27.5t69 -27.5q48 0 84 50zM101 69l229 597h36l193 -574q17 -51 34.5 -61.5t72.5 -10.5v-20h-297v20h79l-67 218h-192l-86 -218h81v-20h-184v20q49 0 68.5 8 t32.5 41zM195 258h178l-83 251z" />
<glyph unicode="&#xc4;" horiz-adv-x="666" d="M101 69l229 597h36l193 -574q17 -51 34.5 -61.5t72.5 -10.5v-20h-297v20h79l-67 218h-192l-86 -218h81v-20h-184v20q49 0 68.5 8t32.5 41zM195 258h178l-83 251zM556 666q0 -20 -14 -35t-34 -15t-35 15t-15 35t15 34t35 14t34 -14t14 -34zM242 666q0 -20 -14 -35t-34 -15 t-35 15t-15 35t15 34t35 14t34 -14t14 -34z" />
<glyph unicode="&#xc5;" horiz-adv-x="666" d="M101 69l229 597h36l193 -574q17 -51 34.5 -61.5t72.5 -10.5v-20h-297v20h79l-67 218h-192l-86 -218h81v-20h-184v20q49 0 68.5 8t32.5 41zM195 258h178l-83 251zM422 746q0 -27 -19.5 -46.5t-46.5 -19.5t-46.5 19.5t-19.5 46.5t19.5 46.5t46.5 19.5t46.5 -19.5 t19.5 -46.5zM401 746q0 19 -13 32t-32 13t-32 -13t-13 -32t13 -32t32 -13t32 13t13 32z" />
<glyph unicode="&#xc6;" horiz-adv-x="742" d="M727 0h-533v20h20q30 0 41 8.5t11 38.5v176h-115l-88 -223h91v-20h-184v20h24q28 2 42 11.5t25 37.5l205 536v6q0 18 -7 27.5t-28 9.5h-37v20h491v-111h-18q-5 52 -26 71.5t-68 19.5h-177v-303h146q33 0 38 6q8 10 8 74h18v-162h-18v62h-149q-43 0 -43 -33v-272h220 q53 0 72.5 19t21.5 70h17v-109zM266 263v289l-108 -289h108z" />
<glyph unicode="&#xc7;" horiz-adv-x="610" d="M585 152l-14 -134q-72 -28 -191 -28h-5q-18 -25 -18 -45q0 -11 30.5 -43.5t30.5 -49.5q0 -22 -17.5 -35.5t-39.5 -13.5q-31 0 -56 34l10 8q13 -14 26 -14q28 0 28 31q0 14 -22.5 43t-22.5 41q0 18 20 46q-135 13 -229.5 111t-94.5 241q0 73 21.5 132t57 96.5t82.5 62.5 t95.5 35.5t99.5 10.5q43 0 106 -9t80 -16q14 -112 14 -138l-17 -2q-28 78 -73.5 111t-110.5 33q-103 0 -159 -78t-56 -231q0 -143 58.5 -241.5t165.5 -98.5q138 0 184 143z" />
<glyph unicode="&#xc8;" horiz-adv-x="556" d="M541 0h-513v20h15q23 0 33 2t17 12.5t7 32.5v542q0 39 -35 39h-37v20h471v-121h-20q-6 53 -27.5 77t-77.5 24h-144v-298h124q34 0 40 11t6 74h20v-172h-20v67h-127q-17 0 -30 -8.5t-13 -26.5v-275h182q64 0 84 20t26 77h19v-117zM207 731l-4 39l35 43l168 -97l-7 -17z " />
<glyph unicode="&#xc9;" horiz-adv-x="556" d="M541 0h-513v20h15q23 0 33 2t17 12.5t7 32.5v542q0 39 -35 39h-37v20h471v-121h-20q-6 53 -27.5 77t-77.5 24h-144v-298h124q34 0 40 11t6 74h20v-172h-20v67h-127q-17 0 -30 -8.5t-13 -26.5v-275h182q64 0 84 20t26 77h19v-117zM439 760l-4 -39l-193 -32l-4 17l166 97z " />
<glyph unicode="&#xca;" horiz-adv-x="556" d="M541 0h-513v20h15q23 0 33 2t17 12.5t7 32.5v542q0 39 -35 39h-37v20h471v-121h-20q-6 53 -27.5 77t-77.5 24h-144v-298h124q34 0 40 11t6 74h20v-172h-20v67h-127q-17 0 -30 -8.5t-13 -26.5v-275h182q64 0 84 20t26 77h19v-117zM419 704l-13 -10l-116 55h-7l-115 -54 l-16 9l131 111h7z" />
<glyph unicode="&#xcb;" horiz-adv-x="556" d="M541 0h-513v20h15q23 0 33 2t17 12.5t7 32.5v542q0 39 -35 39h-37v20h471v-121h-20q-6 53 -27.5 77t-77.5 24h-144v-298h124q34 0 40 11t6 74h20v-172h-20v67h-127q-17 0 -30 -8.5t-13 -26.5v-275h182q64 0 84 20t26 77h19v-117zM481 743q0 -20 -14 -35t-34 -15t-35 15 t-15 35t15 34t35 14t34 -14t14 -34zM200 743q0 -20 -14 -35t-34 -15t-35 15t-15 35t15 34t35 14t34 -14t14 -34z" />
<glyph unicode="&#xcc;" horiz-adv-x="330" d="M292 714l-5 -17l-247 37l-3 38l44 42zM290 0h-255v20h7q40 0 49 6t9 37v541q0 17 -1 25t-6 13.5t-16 5.5h-42v20h255v-20h-60v-628h60v-20z" />
<glyph unicode="&#xcd;" horiz-adv-x="330" d="M281 768l-5 -39l-238 -32l-5 17l207 97zM290 0h-255v20h7q40 0 49 6t9 37v541q0 17 -1 25t-6 13.5t-16 5.5h-42v20h255v-20h-60v-628h60v-20z" />
<glyph unicode="&#xce;" horiz-adv-x="330" d="M293 690l-14 -11l-111 47h-7l-116 -45l-15 9l131 97h7zM290 0h-255v20h7q40 0 49 6t9 37v541q0 17 -1 25t-6 13.5t-16 5.5h-42v20h255v-20h-60v-628h60v-20z" />
<glyph unicode="&#xcf;" horiz-adv-x="330" d="M294 753q0 -20 -14 -35t-34 -15t-35 15t-15 35t15 34t35 14t34 -14t14 -34zM128 753q0 -20 -14 -35t-34 -15t-35 15t-15 35t15 34t35 14t34 -14t14 -34zM290 0h-255v20h7q40 0 49 6t9 37v541q0 17 -1 25t-6 13.5t-16 5.5h-42v20h255v-20h-60v-628h60v-20z" />
<glyph unicode="&#xd0;" horiz-adv-x="719" d="M23 303v20h77v278q0 14 -3.5 22.5t-8 13.5t-16 7.5t-19 3t-25.5 0.5h-5v20h335q46 0 92 -10.5t91.5 -35t80 -61t56 -94.5t21.5 -129q0 -163 -96 -250.5t-231 -87.5h-349v20q31 0 44 1.5t23 12t10 33.5v236h-77zM558 331q0 169 -73 243t-194 74h-61v-325h80v-20h-80v-283 h85q50 0 92 15.5t77 50t54.5 97t19.5 148.5z" />
<glyph unicode="&#xd1;" horiz-adv-x="659" d="M626 648h-57v-663h-13l-442 644v-609h82v-20h-172v20h15q34 1 45 8t11 37v524q0 40 -13 49.5t-49 9.5h-15v20h221l310 -461v412q0 18 -8 23.5t-44 5.5h-23v20h152v-20zM553 792q-23 -47 -54 -72t-60 -25q-22 0 -70 31.5t-72 31.5q-50 0 -112 -56l-6 7q26 33 67 62t71 29 q39 0 74 -27.5t69 -27.5q48 0 84 50z" />
<glyph unicode="&#xd2;" d="M720 345q0 -81 -34 -150t-87 -113t-115.5 -69t-122.5 -25q-59 0 -118 23.5t-109.5 66t-82 111t-31.5 149.5q0 78 33 144t85 107.5t113.5 65t121.5 23.5q141 0 244 -95.5t103 -237.5zM580 344q0 140 -54.5 227t-151.5 86q-99 -1 -156.5 -95t-57.5 -226q0 -151 54 -238 t159 -88q93 -1 150 92.5t57 241.5zM261 731l-4 39l35 43l168 -97l-7 -17z" />
<glyph unicode="&#xd3;" d="M720 345q0 -81 -34 -150t-87 -113t-115.5 -69t-122.5 -25q-59 0 -118 23.5t-109.5 66t-82 111t-31.5 149.5q0 78 33 144t85 107.5t113.5 65t121.5 23.5q141 0 244 -95.5t103 -237.5zM580 344q0 140 -54.5 227t-151.5 86q-99 -1 -156.5 -95t-57.5 -226q0 -151 54 -238 t159 -88q93 -1 150 92.5t57 241.5zM463 770l-4 -39l-193 -32l-4 17l166 97z" />
<glyph unicode="&#xd4;" d="M553 706l-8 -12l-166 50h-7l-165 -52l-9 11l174 107h7zM720 345q0 -81 -34 -150t-87 -113t-115.5 -69t-122.5 -25q-59 0 -118 23.5t-109.5 66t-82 111t-31.5 149.5q0 78 33 144t85 107.5t113.5 65t121.5 23.5q141 0 244 -95.5t103 -237.5zM580 344q0 140 -54.5 227 t-151.5 86q-99 -1 -156.5 -95t-57.5 -226q0 -151 54 -238t159 -88q93 -1 150 92.5t57 241.5z" />
<glyph unicode="&#xd5;" d="M552 799q-23 -47 -54 -72t-60 -25q-22 0 -70 31.5t-72 31.5q-50 0 -112 -56l-6 7q26 33 67 62t71 29q39 0 74 -27.5t69 -27.5q48 0 84 50zM720 345q0 -81 -34 -150t-87 -113t-115.5 -69t-122.5 -25q-59 0 -118 23.5t-109.5 66t-82 111t-31.5 149.5q0 78 33 144t85 107.5 t113.5 65t121.5 23.5q141 0 244 -95.5t103 -237.5zM580 344q0 140 -54.5 227t-151.5 86q-99 -1 -156.5 -95t-57.5 -226q0 -151 54 -238t159 -88q93 -1 150 92.5t57 241.5z" />
<glyph unicode="&#xd6;" d="M673 691q0 -20 -14 -35t-34 -15t-34.5 15t-14.5 35t14.5 34t34.5 14t34 -14t14 -34zM165 691q0 -20 -14 -35t-34 -15t-35 15t-15 35t15 34t35 14t34 -14t14 -34zM720 345q0 -81 -34 -150t-87 -113t-115.5 -69t-122.5 -25q-59 0 -118 23.5t-109.5 66t-82 111t-31.5 149.5 q0 78 33 144t85 107.5t113.5 65t121.5 23.5q141 0 244 -95.5t103 -237.5zM580 344q0 144 -52.5 233.5t-153.5 89.5q-71 0 -120.5 -49t-71.5 -122t-22 -160q0 -157 51 -246.5t162 -89.5q98 0 152.5 95.5t54.5 248.5z" />
<glyph unicode="&#xd7;" horiz-adv-x="443" d="M393 152l-35 -36l-140 141l-133 -133l-35 35l133 133l-131 131l35 35l131 -131l131 131l35 -35l-131 -131z" />
<glyph unicode="&#xd8;" d="M720 345q0 -81 -34 -150t-87 -113t-115.5 -69t-122.5 -25q-84 0 -164 44l-63 -114l-18 9l64 115q-72 46 -116 121.5t-44 174.5q0 78 33 144t85 107.5t113.5 65t121.5 23.5q72 0 143 -30l70 126l19 -10l-70 -125q84 -42 134.5 -119.5t50.5 -174.5zM580 344q0 168 -70 250 l-287 -516q53 -68 150 -68q99 0 153 91t54 243zM160 336q0 -158 50 -239l285 514q-49 46 -121 46q-71 0 -120.5 -46.5t-71.5 -117t-22 -157.5z" />
<glyph unicode="&#xd9;" horiz-adv-x="688" d="M457 667l-7 -17l-193 82l-5 48l28 34zM684 648h-73v-317q0 -158 -61.5 -249.5t-170.5 -91.5q-50 0 -98 14.5t-92 45t-71.5 86.5t-27.5 130v330q0 32 -12.5 42t-45.5 10h-25v20h313v-20h-100v-338q0 -116 19 -182.5t54.5 -92t95.5 -25.5q34 0 66.5 14.5t64.5 47.5t51.5 97 t19.5 151v285q0 28 -16.5 35.5t-61.5 7.5h-19v20h190v-20z" />
<glyph unicode="&#xda;" horiz-adv-x="688" d="M553 780l-5 -48l-193 -83l-7 17l177 148zM684 648h-73v-317q0 -158 -61.5 -249.5t-170.5 -91.5q-50 0 -98 14.5t-92 45t-71.5 86.5t-27.5 130v330q0 32 -12.5 42t-45.5 10h-25v20h313v-20h-100v-338q0 -116 19 -182.5t54.5 -92t95.5 -25.5q34 0 66.5 14.5t64.5 47.5 t51.5 97t19.5 151v285q0 28 -16.5 35.5t-61.5 7.5h-19v20h190v-20z" />
<glyph unicode="&#xdb;" horiz-adv-x="688" d="M570 709l-8 -14l-161 59h-7l-163 -59l-8 14l171 111h7zM684 648h-73v-317q0 -158 -61.5 -249.5t-170.5 -91.5q-50 0 -98 14.5t-92 45t-71.5 86.5t-27.5 130v330q0 32 -12.5 42t-45.5 10h-25v20h313v-20h-100v-338q0 -116 19 -182.5t54.5 -92t95.5 -25.5q34 0 66.5 14.5 t64.5 47.5t51.5 97t19.5 151v285q0 28 -16.5 35.5t-61.5 7.5h-19v20h190v-20z" />
<glyph unicode="&#xdc;" horiz-adv-x="688" d="M636 743q0 -20 -14 -35t-34 -15t-35 15t-15 35t15 34t35 14t34 -14t14 -34zM204 743q0 -20 -14 -35t-34 -15t-35 15t-15 35t15 34t35 14t34 -14t14 -34zM684 648h-73v-317q0 -158 -61.5 -249.5t-170.5 -91.5q-50 0 -98 14.5t-92 45t-71.5 86.5t-27.5 130v330 q0 32 -12.5 42t-45.5 10h-25v20h313v-20h-100v-338q0 -116 19 -182.5t54.5 -92t95.5 -25.5q34 0 66.5 14.5t64.5 47.5t51.5 97t19.5 151v285q0 28 -16.5 35.5t-61.5 7.5h-19v20h190v-20z" />
<glyph unicode="&#xdd;" horiz-adv-x="519" d="M559 648q-41 0 -55.5 -10.5t-35.5 -55.5l-135 -283v-279h78v-20h-288v20h40q40 0 40 37v244l-130 258q-28 55 -46 72t-47 17h-12v20h263v-20h-63l156 -329l157 329h-84v20h162v-20zM423 787l-3 -48l-158 -87l-10 16l145 150z" />
<glyph unicode="&#xde;" horiz-adv-x="592" d="M577 366q0 -99 -74.5 -159t-167.5 -60q-64 0 -104 14v-141h73v-20h-272v20h31q22 2 30 10t8 36v510q0 49 -16.5 60.5t-64.5 11.5v20h278v-20h-67v-90h114q112 0 172 -55.5t60 -136.5zM440 367q0 73 -50 124.5t-122 51.5h-37v-362q28 -13 58 -13q72 0 111.5 55t39.5 144z " />
<glyph unicode="&#xdf;" horiz-adv-x="539" d="M517 116q0 -66 -38.5 -96t-88.5 -30q-22 0 -50.5 6t-46.5 12l-18 5v83h10q13 -87 103 -87q25 0 39.5 17t14.5 46q0 7 -2 13.5t-8 13.5t-10 12t-14 12.5t-14.5 10.5t-17.5 11.5t-17 11.5q-90 61 -90 112q0 44 42 90q40 42 61 69q51 65 51 139q0 56 -30.5 80.5t-75.5 24.5 q-34 0 -58 -11q-74 -32 -74 -177v-464h61v-20h-232v20h33q12 0 15 4t3 20v410q0 113 74 187q52 52 154 52q73 0 112 -32.5t39 -89.5q0 -85 -56 -155q-5 -6 -21 -23.5t-24 -28.5q-14 -18 -14 -36q0 -7 3.5 -14.5t11 -15.5t14 -14t19 -15t18.5 -13.5t20 -13.5t17 -11 q31 -21 45 -32t27 -33t13 -50z" />
<glyph unicode="&#xe0;" horiz-adv-x="398" d="M404 9q-20 -19 -95 -19q-80 0 -89 57q-61 -56 -126 -56q-30 0 -52 23.5t-22 53.5q0 19 6.5 35.5t22.5 29t28.5 21t38 17t36.5 12t39.5 10t31.5 7.5q2 56 2 59q0 36 -23 60.5t-57 24.5q-19 0 -40 -9t-32 -23q3 -2 14.5 -11t16 -16t4.5 -17q0 -16 -14.5 -32.5t-30.5 -16.5 q-19 0 -32 13t-13 32q0 10 12 32q22 40 67.5 61.5t96.5 21.5q78 0 112.5 -26.5t34.5 -88.5q0 -28 -3.5 -86t-3.5 -86v-5q0 -21 1 -33t10 -25.5t27 -13.5q12 0 28 9zM223 182q-51 -17 -76 -37t-25 -59q0 -22 14.5 -34t32.5 -12q12 0 29.5 10t21.5 15q0 21 1.5 58.5t1.5 58.5z M226 438l-17 -5l-112 162l40 33l51 -3z" />
<glyph unicode="&#xe1;" horiz-adv-x="398" d="M404 9q-20 -19 -95 -19q-80 0 -89 57q-61 -56 -126 -56q-30 0 -52 23.5t-22 53.5q0 19 6.5 35.5t22.5 29t28.5 21t38 17t36.5 12t39.5 10t31.5 7.5q2 56 2 59q0 36 -23 60.5t-57 24.5q-19 0 -40 -9t-32 -23q3 -2 14.5 -11t16 -16t4.5 -17q0 -16 -14.5 -32.5t-30.5 -16.5 q-19 0 -32 13t-13 32q0 10 12 32q22 40 67.5 61.5t96.5 21.5q78 0 112.5 -26.5t34.5 -88.5q0 -28 -3.5 -86t-3.5 -86v-5q0 -21 1 -33t10 -25.5t27 -13.5q12 0 28 9zM223 182q-51 -17 -76 -37t-25 -59q0 -22 14.5 -34t32.5 -12q12 0 29.5 10t21.5 15q0 21 1.5 58.5t1.5 58.5z M186 430l-16 6l33 189l51 3l40 -33z" />
<glyph unicode="&#xe2;" horiz-adv-x="398" d="M404 9q-20 -19 -95 -19q-80 0 -89 57q-61 -56 -126 -56q-30 0 -52 23.5t-22 53.5q0 19 6.5 35.5t22.5 29t28.5 21t38 17t36.5 12t39.5 10t31.5 7.5q2 56 2 59q0 36 -23 60.5t-57 24.5q-19 0 -40 -9t-32 -23q3 -2 14.5 -11t16 -16t4.5 -17q0 -16 -14.5 -32.5t-30.5 -16.5 q-19 0 -32 13t-13 32q0 10 12 32q22 40 67.5 61.5t96.5 21.5q78 0 112.5 -26.5t34.5 -88.5q0 -28 -3.5 -86t-3.5 -86v-5q0 -21 1 -33t10 -25.5t27 -13.5q12 0 28 9zM223 182q-51 -17 -76 -37t-25 -59q0 -22 14.5 -34t32.5 -12q12 0 29.5 10t21.5 15q0 21 1.5 58.5t1.5 58.5z M314 432l-10 -12l-92 82h-7l-95 -82l-13 12l109 151h11z" />
<glyph unicode="&#xe3;" horiz-adv-x="398" d="M404 9q-20 -19 -95 -19q-80 0 -89 57q-61 -56 -126 -56q-30 0 -52 23.5t-22 53.5q0 19 6.5 35.5t22.5 29t28.5 21t38 17t36.5 12t39.5 10t31.5 7.5q2 56 2 59q0 36 -23 60.5t-57 24.5q-19 0 -40 -9t-32 -23q3 -2 14.5 -11t16 -16t4.5 -17q0 -16 -14.5 -32.5t-30.5 -16.5 q-19 0 -32 13t-13 32q0 10 12 32q22 40 67.5 61.5t96.5 21.5q78 0 112.5 -26.5t34.5 -88.5q0 -28 -3.5 -86t-3.5 -86v-5q0 -21 1 -33t10 -25.5t27 -13.5q12 0 28 9zM223 182q-51 -17 -76 -37t-25 -59q0 -22 14.5 -34t32.5 -12q12 0 29.5 10t21.5 15q0 21 1.5 58.5t1.5 58.5z M316 544q-9 -47 -31 -73.5t-47 -26.5q-19 0 -56.5 28t-56.5 28q-37 0 -58 -44h-6q33 94 93 94q20 0 56 -25.5t56 -25.5q18 0 27 8.5t17 36.5h6z" />
<glyph unicode="&#xe4;" horiz-adv-x="398" d="M404 9q-20 -19 -95 -19q-80 0 -89 57q-61 -56 -126 -56q-30 0 -52 23.5t-22 53.5q0 19 6.5 35.5t22.5 29t28.5 21t38 17t36.5 12t39.5 10t31.5 7.5q2 56 2 59q0 36 -23 60.5t-57 24.5q-19 0 -40 -9t-32 -23q3 -2 14.5 -11t16 -16t4.5 -17q0 -16 -14.5 -32.5t-30.5 -16.5 q-19 0 -32 13t-13 32q0 10 12 32q22 40 67.5 61.5t96.5 21.5q78 0 112.5 -26.5t34.5 -88.5q0 -28 -3.5 -86t-3.5 -86v-5q0 -21 1 -33t10 -25.5t27 -13.5q12 0 28 9zM223 182q-51 -17 -76 -37t-25 -59q0 -22 14.5 -34t32.5 -12q12 0 29.5 10t21.5 15q0 21 1.5 58.5t1.5 58.5z M343 488q0 -20 -14 -35t-34 -15t-35 15t-15 35t15 34t35 14t34 -14t14 -34zM128 488q0 -20 -14 -35t-34 -15t-34.5 15t-14.5 35t14.5 34t34.5 14t34 -14t14 -34z" />
<glyph unicode="&#xe5;" horiz-adv-x="398" d="M404 9q-20 -19 -95 -19q-80 0 -89 57q-61 -56 -126 -56q-30 0 -52 23.5t-22 53.5q0 19 6.5 35.5t22.5 29t28.5 21t38 17t36.5 12t39.5 10t31.5 7.5q2 56 2 59q0 36 -23 60.5t-57 24.5q-19 0 -40 -9t-32 -23q3 -2 14.5 -11t16 -16t4.5 -17q0 -16 -14.5 -32.5t-30.5 -16.5 q-19 0 -32 13t-13 32q0 10 12 32q22 40 67.5 61.5t96.5 21.5q78 0 112.5 -26.5t34.5 -88.5q0 -28 -3.5 -86t-3.5 -86v-5q0 -21 1 -33t10 -25.5t27 -13.5q12 0 28 9zM223 182q-51 -17 -76 -37t-25 -59q0 -22 14.5 -34t32.5 -12q12 0 29.5 10t21.5 15q0 21 1.5 58.5t1.5 58.5z M265 506q0 -27 -19.5 -46.5t-46.5 -19.5t-46.5 19.5t-19.5 46.5t19.5 46.5t46.5 19.5t46.5 -19.5t19.5 -46.5zM244 506q0 19 -13 32t-32 13t-32 -13t-13 -32t13 -32t32 -13t32 13t13 32z" />
<glyph unicode="&#xe6;" horiz-adv-x="620" d="M608 215h-263v-16q0 -76 37.5 -128t99.5 -52t106 62l15 -8q-22 -38 -64.5 -60.5t-92.5 -22.5q-128 0 -185 77q-12 -13 -33 -29q-55 -47 -124 -47q-40 0 -62 22t-22 55q0 53 38 81q25 19 105 40q35 9 65 12q2 48 2 64q0 41 -32.5 62t-62.5 21q-24 0 -38 -5t-26 -24 q2 -2 10 -9t13 -12t10 -13.5t5 -16.5q0 -17 -15.5 -33t-32.5 -16q-18 0 -30.5 15t-12.5 30q0 10 8 30q20 46 63.5 66t91.5 20q78 0 113 -42q50 43 138 43q69 0 108 -24.5t52 -57.5q16 -40 16 -84zM491 235q-12 127 -67 127q-40 0 -58.5 -29.5t-20.5 -97.5h146zM250 82 q-22 38 -22 100q-16 -4 -47 -16q-58 -23 -58 -80q0 -27 13.5 -39.5t33.5 -12.5q40 0 80 48z" />
<glyph unicode="&#xe7;" horiz-adv-x="369" d="M360 72q-14 -25 -54 -54.5t-95 -29.5h-3q-18 -25 -18 -45q0 -11 30.5 -43.5t30.5 -49.5q0 -22 -17.5 -35.5t-39.5 -13.5q-31 0 -56 34l10 8q13 -14 26 -14q28 0 28 31q0 14 -22.5 43t-22.5 41q0 20 21 47q-69 10 -114.5 62.5t-45.5 133.5q0 83 60.5 139t145.5 56 q55 0 95.5 -22.5t40.5 -54.5q0 -24 -14 -38.5t-34 -14.5q-19 0 -34 12t-15 35q0 25 31 39q-12 23 -52 23q-36 0 -61.5 -39t-25.5 -113q0 -87 31 -136.5t69 -49.5q27 0 51.5 18t40.5 42z" />
<glyph unicode="&#xe8;" horiz-adv-x="400" d="M388 215h-248v-16q0 -78 27 -132t77 -54q74 0 124 73l15 -13q-21 -36 -63 -59.5t-92 -23.5q-89 0 -150 56.5t-61 141.5q0 81 55 137t149 56q53 0 94 -21t57 -61q16 -38 16 -84zM276 235q-8 82 -22 105q-15 21 -38 22q-42 0 -58 -31t-18 -96h136zM225 438l-17 -5l-112 162 l40 33l51 -3z" />
<glyph unicode="&#xe9;" horiz-adv-x="400" d="M388 215h-248v-16q0 -78 27 -132t77 -54q74 0 124 73l15 -13q-21 -36 -63 -59.5t-92 -23.5q-89 0 -150 56.5t-61 141.5q0 81 55 137t149 56q53 0 94 -21t57 -61q16 -38 16 -84zM276 235q-8 82 -22 105q-15 21 -38 22q-42 0 -58 -31t-18 -96h136zM219 430l-16 6l33 189 l51 3l40 -33z" />
<glyph unicode="&#xea;" horiz-adv-x="400" d="M388 215h-248v-16q0 -78 27 -132t77 -54q74 0 124 73l15 -13q-21 -36 -63 -59.5t-92 -23.5q-89 0 -150 56.5t-61 141.5q0 81 55 137t149 56q53 0 94 -21t57 -61q16 -38 16 -84zM276 235q-8 82 -22 105q-15 21 -38 22q-42 0 -58 -31t-18 -96h136zM359 434l-10 -12l-92 82 h-7l-95 -82l-13 12l109 151h11z" />
<glyph unicode="&#xeb;" horiz-adv-x="400" d="M388 215h-248v-16q0 -78 27 -132t77 -54q74 0 124 73l15 -13q-21 -36 -63 -59.5t-92 -23.5q-89 0 -150 56.5t-61 141.5q0 81 55 137t149 56q53 0 94 -21t57 -61q16 -38 16 -84zM276 235q-8 82 -22 105q-15 21 -38 22q-42 0 -58 -31t-18 -96h136zM366 484q0 -20 -14 -35 t-34 -15t-35 15t-15 35t15 34t35 14t34 -14t14 -34zM151 484q0 -20 -14 -35t-34 -15t-34.5 15t-14.5 35t14.5 34t34.5 14t34 -14t14 -34z" />
<glyph unicode="&#xec;" horiz-adv-x="237" d="M163 438l-17 -5l-112 162l40 33l51 -3zM225 0h-212v20h25q14 0 18.5 5t4.5 23v259q0 17 -0.5 24t-6.5 13.5t-19 6.5h-22v20h168v-351h44v-20z" />
<glyph unicode="&#xed;" horiz-adv-x="237" d="M103 430l-16 6l33 189l51 3l40 -33zM225 0h-212v20h25q14 0 18.5 5t4.5 23v259q0 17 -0.5 24t-6.5 13.5t-19 6.5h-22v20h168v-351h44v-20z" />
<glyph unicode="&#xee;" horiz-adv-x="237" d="M225 0h-212v20h25q14 0 18.5 5t4.5 23v259q0 17 -0.5 24t-6.5 13.5t-19 6.5h-22v20h168v-351h44v-20zM245 432l-10 -12l-92 82h-7l-95 -82l-13 12l109 151h11z" />
<glyph unicode="&#xef;" horiz-adv-x="237" d="M219 466q0 -20 -14 -35t-34 -15t-35 15t-15 35t15 34t35 14t34 -14t14 -34zM91 466q0 -20 -14 -35t-34 -15t-35 15t-15 35t15 34t35 14t34 -14t14 -34zM225 0h-212v20h25q14 0 18.5 5t4.5 23v259q0 17 -0.5 24t-6.5 13.5t-19 6.5h-22v20h168v-351h44v-20z" />
<glyph unicode="&#xf0;" horiz-adv-x="482" d="M365 655l-99 -59q83 -79 140.5 -188.5t57.5 -220.5q0 -82 -57 -140.5t-172 -58.5q-106 0 -161.5 53t-55.5 141q0 84 58.5 142.5t165.5 58.5q65 0 105 -58q-15 62 -50.5 129.5t-74.5 113.5l-105 -63l-5 7l105 62q-47 56 -111 94l23 20q66 -25 131 -86l100 59zM339 187 q0 86 -24.5 136.5t-73.5 50.5q-37 0 -59.5 -30.5t-30 -69.5t-7.5 -87q0 -87 26 -138.5t69 -51.5q100 0 100 190z" />
<glyph unicode="&#xf1;" horiz-adv-x="519" d="M501 0h-222v20h35q13 0 16.5 4.5t3.5 23.5v165v10q0 29 -0.5 41.5t-3.5 29.5t-9.5 24t-18.5 12t-30 5q-27 0 -82 -45v-270h42v-20h-210v20h22q17 0 21.5 4.5t4.5 19.5v264q0 25 -4 34t-23 9h-21v20h168v-61q20 20 69 46.5t87 26.5q64 0 86 -33t22 -105v-225h47v-20z M386 600q-9 -47 -31 -73.5t-47 -26.5q-19 0 -56.5 28t-56.5 28q-37 0 -58 -44h-6q33 94 93 94q20 0 56 -25.5t56 -25.5q18 0 27 8.5t17 36.5h6z" />
<glyph unicode="&#xf2;" horiz-adv-x="482" d="M464 186q0 -81 -58 -139.5t-174 -58.5q-105 0 -159.5 53.5t-54.5 140.5q0 84 58 142.5t163 58.5q121 0 173 -55t52 -142zM339 185q0 76 -25.5 127.5t-73.5 51.5q-28 0 -48 -16t-29.5 -43t-14 -56t-4.5 -62q0 -80 26 -130t66 -50q103 0 103 178zM235 438l-17 -5l-112 162 l40 33l51 -3z" />
<glyph unicode="&#xf3;" horiz-adv-x="482" d="M464 186q0 -81 -58 -139.5t-174 -58.5q-105 0 -159.5 53.5t-54.5 140.5q0 84 58 142.5t163 58.5q121 0 173 -55t52 -142zM339 185q0 76 -25.5 127.5t-73.5 51.5q-28 0 -48 -16t-29.5 -43t-14 -56t-4.5 -62q0 -80 26 -130t66 -50q103 0 103 178zM263 430l-16 6l33 189 l51 3l40 -33z" />
<glyph unicode="&#xf4;" horiz-adv-x="482" d="M464 186q0 -81 -58 -139.5t-174 -58.5q-105 0 -159.5 53.5t-54.5 140.5q0 84 58 142.5t163 58.5q121 0 173 -55t52 -142zM339 185q0 76 -25.5 127.5t-73.5 51.5q-28 0 -48 -16t-29.5 -43t-14 -56t-4.5 -62q0 -80 26 -130t66 -50q103 0 103 178zM384 432l-10 -12l-92 82 h-7l-95 -82l-13 12l109 151h11z" />
<glyph unicode="&#xf5;" horiz-adv-x="482" d="M464 186q0 -81 -58 -139.5t-174 -58.5q-105 0 -159.5 53.5t-54.5 140.5q0 84 58 142.5t163 58.5q121 0 173 -55t52 -142zM339 185q0 76 -25.5 127.5t-73.5 51.5q-28 0 -48 -16t-29.5 -43t-14 -56t-4.5 -62q0 -80 26 -130t66 -50q103 0 103 178zM365 548q-9 -47 -31 -73.5 t-47 -26.5q-19 0 -56.5 28t-56.5 28q-37 0 -58 -44h-6q33 94 93 94q20 0 56 -25.5t56 -25.5q18 0 27 8.5t17 36.5h6z" />
<glyph unicode="&#xf6;" horiz-adv-x="482" d="M464 186q0 -81 -58 -139.5t-174 -58.5q-105 0 -159.5 53.5t-54.5 140.5q0 84 58 142.5t163 58.5q121 0 173 -55t52 -142zM339 185q0 76 -25.5 127.5t-73.5 51.5q-28 0 -48 -16t-29.5 -43t-14 -56t-4.5 -62q0 -80 26 -130t66 -50q103 0 103 178zM393 488q0 -20 -14 -35 t-34 -15t-35 15t-15 35t15 34t35 14t34 -14t14 -34zM178 488q0 -20 -14 -35t-34 -15t-34.5 15t-14.5 35t14.5 34t34.5 14t34 -14t14 -34z" />
<glyph unicode="&#xf7;" horiz-adv-x="475" d="M281 434q0 -18 -12 -30t-29 -12t-28.5 12t-11.5 30q0 17 12 30t28 13q17 0 29 -13t12 -30zM450 269h-425v50h425v-50zM281 143q0 -18 -12 -30t-29 -12t-28.5 12t-11.5 30t11.5 30t28.5 12t29 -12t12 -30z" />
<glyph unicode="&#xf8;" horiz-adv-x="482" d="M464 186q0 -81 -58 -139.5t-174 -58.5q-45 0 -83 11l-47 -84l-18 7l47 83q-113 44 -113 177q0 84 58 142.5t163 58.5q53 0 97 -13l58 102l18 -7l-57 -101q109 -44 109 -178zM144 187q0 -71 21 -121l144 255q-26 43 -69 43q-28 0 -48 -16t-29.5 -43t-14 -56t-4.5 -62z M339 185q0 66 -20 115l-143 -253q25 -40 60 -40q103 0 103 178z" />
<glyph unicode="&#xf9;" horiz-adv-x="492" d="M478 0h-165v61q-89 -71 -150 -71q-111 0 -111 147v173q0 28 -4.5 34.5t-21.5 6.5h-22v20h168v-238q0 -22 1.5 -34.5t6.5 -29t18 -24t34 -7.5q37 0 81 46v241q0 18 -5.5 22t-26.5 4h-22v20h174v-313q0 -26 7 -32t29 -6h9v-20zM257 438l-17 -5l-112 162l40 33l51 -3z" />
<glyph unicode="&#xfa;" horiz-adv-x="492" d="M478 0h-165v61q-89 -71 -150 -71q-111 0 -111 147v173q0 28 -4.5 34.5t-21.5 6.5h-22v20h168v-238q0 -22 1.5 -34.5t6.5 -29t18 -24t34 -7.5q37 0 81 46v241q0 18 -5.5 22t-26.5 4h-22v20h174v-313q0 -26 7 -32t29 -6h9v-20zM239 430l-16 6l33 189l51 3l40 -33z" />
<glyph unicode="&#xfb;" horiz-adv-x="492" d="M478 0h-165v61q-89 -71 -150 -71q-111 0 -111 147v173q0 28 -4.5 34.5t-21.5 6.5h-22v20h168v-238q0 -22 1.5 -34.5t6.5 -29t18 -24t34 -7.5q37 0 81 46v241q0 18 -5.5 22t-26.5 4h-22v20h174v-313q0 -26 7 -32t29 -6h9v-20zM371 432l-10 -12l-92 82h-7l-95 -82l-13 12 l109 151h11z" />
<glyph unicode="&#xfc;" horiz-adv-x="492" d="M478 0h-165v61q-89 -71 -150 -71q-111 0 -111 147v173q0 28 -4.5 34.5t-21.5 6.5h-22v20h168v-238q0 -22 1.5 -34.5t6.5 -29t18 -24t34 -7.5q18 0 41 12.5t40 30.5v244q0 18 -5.5 22t-26.5 4h-22v20h174v-313q0 -26 7 -32t29 -6h9v-20zM409 483q0 -20 -14 -35t-34 -15 t-35 15t-15 35t15 34t35 14t34 -14t14 -34zM153 483q0 -20 -14 -35t-34 -15t-34.5 15t-14.5 35t14.5 34t34.5 14t34 -14t14 -34z" />
<glyph unicode="&#xfd;" horiz-adv-x="344" d="M364 351h-17q-4 0 -6.5 -0.5t-5 -0.5t-4.5 -1.5t-3.5 -2.5t-3.5 -4l-3 -4.5t-2.5 -6t-3 -7t-3.5 -9t-4 -10.5l-207 -536q-14 -37 -27 -52q-17 -21 -44 -21q-25 0 -40 14.5t-15 34.5t14 33.5t33 13.5q20 0 31 -16t11 -34q6 3 10 14l92 234l-125 315q-1 3 -3.5 10t-3.5 9 t-3.5 7.5t-4 7t-4.5 5t-5.5 4.5t-6.5 2t-8 1h-32v20h237v-20h-55l73 -207l79 207h-49v20h109v-20zM210 430l-16 6l33 189l51 3l40 -33z" />
<glyph unicode="&#xfe;" horiz-adv-x="508" d="M490 201q0 -86 -48.5 -147.5t-129.5 -61.5q-78 0 -136 46v-322h64v-20h-232v20h22q16 0 21 3.5t5 20.5v896q0 13 -4 17.5t-17 4.5h-27v20h168v-351q78 58 149 58q84 0 124.5 -54.5t40.5 -129.5zM363 177q0 71 -26.5 119t-79.5 48q-38 0 -81 -39v-246q40 -35 85 -35 q38 0 62 25.5t32 57.5t8 70z" />
<glyph unicode="&#xff;" horiz-adv-x="344" d="M364 487q0 -20 -14 -35t-34 -15t-35 15t-15 35t15 34t35 14t34 -14t14 -34zM116 487q0 -20 -14 -35t-34 -15t-35 15t-15 35t15 34t35 14t34 -14t14 -34zM364 351h-17q-4 0 -6.5 -0.5t-5 -0.5t-4.5 -1.5t-3.5 -2.5t-3.5 -4l-3 -4.5t-2.5 -6t-3 -7t-3.5 -9t-4 -10.5 l-207 -536q-14 -37 -27 -52q-17 -21 -41 -21q-22 0 -34 12.5t-12 29.5q0 16 11.5 29t29.5 13q14 0 25 -12.5t11 -25.5q6 3 10 14l92 234l-125 315q-1 3 -3.5 10t-3.5 9t-3.5 7.5t-4 7t-4.5 5t-5.5 4.5t-6.5 2t-8 1h-32v20h237v-20h-55l73 -207l79 207h-49v20h109v-20z" />
<glyph unicode="&#x152;" horiz-adv-x="788" d="M773 0h-316q-42 -12 -95 -12q-58 0 -118 24.5t-110.5 67.5t-82 111t-30.5 147t34 145.5t85 107.5t113 64t121 23q55 0 94 -10h263v-111h-17q-5 51 -26.5 71t-78.5 20l-88 1q86 -34 144 -117.5t56 -192.5q-2 -117 -61 -197t-150 -122h137q65 0 84.5 16t25.5 71h16v-107z M581 345v9q0 243 -139 290v-299h139zM581 325h-96q-17 0 -30 -8.5t-13 -26.5v-263h5q128 53 134 298zM312 16v634q-57 -7 -105.5 -99t-45.5 -227q3 -142 49.5 -222.5t101.5 -85.5z" />
<glyph unicode="&#x153;" horiz-adv-x="779" d="M767 215h-273v-7q0 -72 37 -130.5t106 -58.5q31 0 55 11.5t33.5 21.5t23.5 30l13 -9q-22 -38 -60.5 -60.5t-85.5 -22.5q-56 0 -109 16t-79 49q-60 -67 -197 -67q-92 0 -152.5 55.5t-60.5 139.5q0 81 62.5 140.5t158.5 59.5q55 0 108.5 -16t84.5 -46q70 60 166 60 q121 0 153 -82q16 -40 16 -84zM650 235q-12 124 -69 124q-32 0 -58.5 -34t-28.5 -90h156zM339 189q0 83 -23.5 129.5t-66.5 46.5q-35 0 -59.5 -28t-35 -67.5t-10.5 -84.5q0 -83 30 -130.5t73 -47.5q92 0 92 182z" />
<glyph unicode="&#x178;" horiz-adv-x="519" d="M559 648q-41 0 -55.5 -10.5t-35.5 -55.5l-135 -283v-279h78v-20h-288v20h40q40 0 40 37v244l-130 258q-28 55 -46 72t-47 17h-12v20h263v-20h-63l156 -329l157 329h-84v20h162v-20zM544 743q0 -20 -14 -35t-34 -15t-35 15t-15 35t15 34t35 14t34 -14t14 -34zM133 743 q0 -20 -14 -35t-34 -15t-35 15t-15 35t15 34t35 14t34 -14t14 -34z" />
<glyph unicode="&#x2c6;" horiz-adv-x="257" d="M237 432l-10 -12l-92 82h-7l-95 -82l-13 12l109 151h11z" />
<glyph unicode="&#x2dc;" horiz-adv-x="287" d="M290 600q-9 -47 -31 -73.5t-47 -26.5q-19 0 -56.5 28t-56.5 28q-37 0 -58 -44h-6q33 94 93 94q20 0 56 -25.5t56 -25.5q18 0 27 8.5t17 36.5h6z" />
<glyph unicode="&#x2000;" horiz-adv-x="410" />
<glyph unicode="&#x2001;" horiz-adv-x="820" />
<glyph unicode="&#x2002;" horiz-adv-x="410" />
<glyph unicode="&#x2003;" horiz-adv-x="820" />
<glyph unicode="&#x2004;" horiz-adv-x="273" />
<glyph unicode="&#x2005;" horiz-adv-x="205" />
<glyph unicode="&#x2006;" horiz-adv-x="136" />
<glyph unicode="&#x2007;" horiz-adv-x="136" />
<glyph unicode="&#x2008;" horiz-adv-x="102" />
<glyph unicode="&#x2009;" horiz-adv-x="164" />
<glyph unicode="&#x200a;" horiz-adv-x="45" />
<glyph unicode="&#x2010;" horiz-adv-x="254" d="M224 170h-194v76h194v-76z" />
<glyph unicode="&#x2011;" horiz-adv-x="254" d="M224 170h-194v76h194v-76z" />
<glyph unicode="&#x2012;" horiz-adv-x="254" d="M224 170h-194v76h194v-76z" />
<glyph unicode="&#x2013;" horiz-adv-x="513" d="M483 184h-453v31h453v-31z" />
<glyph unicode="&#x2014;" horiz-adv-x="805" d="M765 184h-725v31h725v-31z" />
<glyph unicode="&#x2018;" horiz-adv-x="139" d="M117 676q-48 -38 -60 -77q-1 -5 -1 -9q0 -5 4 -8.5t7 -3.5t9 3.5t11 3.5q12 0 22 -13.5t10 -30.5q0 -18 -11.5 -33t-26.5 -15q-22 0 -36.5 19.5t-14.5 43.5q0 33 15.5 63t30.5 44.5t31 25.5z" />
<glyph unicode="&#x2019;" horiz-adv-x="139" d="M22 503q48 37 60 78q1 5 1 9q0 5 -4 8.5t-7 3.5t-9 -3.5t-11 -3.5q-12 0 -22 13.5t-10 30.5q0 18 11.5 33t26.5 15q22 0 36.5 -19.5t14.5 -43.5q0 -33 -15.5 -63t-30.5 -44.5t-31 -25.5z" />
<glyph unicode="&#x201a;" horiz-adv-x="129" d="M12 -99q48 37 60 78q1 5 1 9q0 5 -4 8.5t-7 3.5t-9 -3.5t-11 -3.5q-12 0 -22 13.5t-10 30.5q0 18 11.5 33t26.5 15q22 0 36.5 -19.5t14.5 -43.5q0 -33 -15.5 -63t-30.5 -44.5t-31 -25.5z" />
<glyph unicode="&#x201c;" horiz-adv-x="259" d="M118 677q-49 -38 -61 -78q-1 -5 -1 -9q0 -5 4 -8.5t7 -3.5t9.5 3.5t11.5 3.5q11 0 21 -13.5t10 -30.5q0 -18 -11.5 -33t-26.5 -15q-22 0 -36.5 19.5t-14.5 43.5q0 33 15.5 63t30.5 44.5t31 25.5zM248 677q-49 -38 -61 -78q-1 -5 -1 -9q0 -5 4 -8.5t7 -3.5t9.5 3.5 t11.5 3.5q11 0 21 -13.5t10 -30.5q0 -18 -11.5 -33t-26.5 -15q-22 0 -36.5 19.5t-14.5 43.5q0 33 15.5 63t30.5 44.5t31 25.5z" />
<glyph unicode="&#x201d;" horiz-adv-x="259" d="M141 503q49 38 61 78q1 5 1 9q0 5 -4 8.5t-7 3.5t-9.5 -3.5t-11.5 -3.5q-11 0 -21 13.5t-10 30.5q0 18 11.5 33t26.5 15q22 0 36.5 -19.5t14.5 -43.5q0 -33 -15.5 -63t-30.5 -44.5t-31 -25.5zM11 503q49 38 61 78q1 5 1 9q0 5 -4 8.5t-7 3.5t-9.5 -3.5t-11.5 -3.5 q-11 0 -21 13.5t-10 30.5q0 18 11.5 33t26.5 15q22 0 36.5 -19.5t14.5 -43.5q0 -33 -15.5 -63t-30.5 -44.5t-31 -25.5z" />
<glyph unicode="&#x201e;" horiz-adv-x="259" d="M141 -98q49 38 61 78q1 5 1 9q0 5 -4 8.5t-7 3.5t-9.5 -3.5t-11.5 -3.5q-11 0 -21 13.5t-10 30.5q0 18 11.5 33t26.5 15q22 0 36.5 -19.5t14.5 -43.5q0 -33 -15.5 -63t-30.5 -44.5t-31 -25.5zM11 -98q49 38 61 78q1 5 1 9q0 5 -4 8.5t-7 3.5t-9.5 -3.5t-11.5 -3.5 q-11 0 -21 13.5t-10 30.5q0 18 11.5 33t26.5 15q22 0 36.5 -19.5t14.5 -43.5q0 -33 -15.5 -63t-30.5 -44.5t-31 -25.5z" />
<glyph unicode="&#x2022;" horiz-adv-x="366" d="M306 340q0 -51 -36 -87t-87 -36t-87 36t-36 87t36 87t87 36t87 -36t36 -87z" />
<glyph unicode="&#x2026;" horiz-adv-x="764" d="M715 41q0 -22 -15.5 -37.5t-37.5 -15.5t-37.5 15.5t-15.5 37.5t15.5 37.5t37.5 15.5t37.5 -15.5t15.5 -37.5zM435 41q0 -22 -15.5 -37.5t-37.5 -15.5t-37.5 15.5t-15.5 37.5t15.5 37.5t37.5 15.5t37.5 -15.5t15.5 -37.5zM155 41q0 -22 -15.5 -37.5t-37.5 -15.5 t-37.5 15.5t-15.5 37.5t15.5 37.5t37.5 15.5t37.5 -15.5t15.5 -37.5z" />
<glyph unicode="&#x202f;" horiz-adv-x="164" />
<glyph unicode="&#x2039;" horiz-adv-x="217" d="M182 294q-4 0 -10.5 -1.5t-18 -8t-21.5 -16t-17 -28.5t-7 -43q0 -26 6 -47.5t14.5 -33t18.5 -20t16.5 -11.5t9.5 -3v-18q-6 1 -15 4t-33 13.5t-42 24t-33 37t-15 50.5q0 30 15 53t35.5 35t44 19.5t36 9.5t16.5 2v-18z" />
<glyph unicode="&#x203a;" horiz-adv-x="217" d="M35 82q4 0 10.5 1.5t18 8t21.5 16t17 28.5t7 43q0 26 -6 47.5t-14.5 33t-18.5 20t-16.5 11.5t-9.5 3v18q6 -1 15 -4t33 -13.5t42 -24t33 -37t15 -50.5q0 -30 -15 -53t-35.5 -35t-44 -19.5t-36 -9.5t-16.5 -2v18z" />
<glyph unicode="&#x205f;" horiz-adv-x="205" />
<glyph unicode="&#x20ac;" horiz-adv-x="497" d="M409 322v-24h-246v24h246zM409 272v-24h-246v24h246zM472 128l-11 -114q-59 -24 -153 -24q-117 0 -202.5 85.5t-85.5 215.5q0 62 17.5 112t45.5 82t66 53t76.5 30t79.5 9q34 0 85 -7.5t64 -13.5q11 -95 11 -117l-15 -1q-22 66 -57 91t-89 25q-82 0 -127 -63.5t-45 -193.5 q0 -121 46.5 -203t132.5 -82q112 0 146 117z" />
<glyph unicode="&#x2122;" horiz-adv-x="736" d="M706 325h-128v20h12q6 0 9.5 1t5.5 5t2 13v273l-98 -312h-15l-115 306h-1v-286h36v-20h-91v20h4q11 0 16.5 1t9 5.5t3.5 13.5v250q0 18 -5 21.5t-26 3.5h-2v20h106l92 -240l79 240h102v-20h-33v-295h37v-20zM313 590h-19q-3 49 -35 49h-59v-289h41v-21h-147v20h9 q20 0 27 6t7 22v224q0 25 -5 32t-20 7h-38q-33 0 -36 -47h-18l4 67h287q1 -57 2 -70z" />
</font>
</defs>
</svg>
