<?xml version="1.0" standalone="no"?>
<!DOCTYPE svg PUBLIC "-//W3C//DTD SVG 1.1//EN" "http://www.w3.org/Graphics/SVG/1.1/DTD/svg11.dtd" >
<svg xmlns="http://www.w3.org/2000/svg" xmlns:xlink="http://www.w3.org/1999/xlink" version="1.1">
<metadata>
Created by FontForge 20150913 at Fri Apr 15 12:12:11 2016
 By Jimmy Wärting
Copyright (c) 2010-2015 Typodermic Fonts Inc.
</metadata>
<defs>
<font id="-Regular" horiz-adv-x="1107" >
  <font-face 
    font-family="."
    font-weight="250"
    font-stretch="normal"
    units-per-em="2048"
    panose-1="2 11 2 3 3 6 2 2 0 4"
    ascent="1550"
    descent="-498"
    x-height="1051"
    cap-height="1417"
    bbox="-168 -498 1919 1960"
    underline-thickness="40"
    underline-position="-292"
    unicode-range="U+0008-25FC"
  />
<missing-glyph horiz-adv-x="748" 
d="M68 0v1365h544v-1365h-544zM136 68h408v1229h-408v-1229z" />
    <glyph glyph-name=".notdef" horiz-adv-x="748" 
d="M68 0v1365h544v-1365h-544zM136 68h408v1229h-408v-1229z" />
    <glyph glyph-name=".null" horiz-adv-x="0" 
 />
    <glyph glyph-name=".null" horiz-adv-x="0" 
 />
    <glyph glyph-name="nonmarkingreturn" unicode="&#x9;" horiz-adv-x="682" 
 />
    <glyph glyph-name="nonmarkingreturn" unicode="&#xd;" horiz-adv-x="682" 
 />
    <glyph glyph-name="controlETB" horiz-adv-x="593" 
 />
    <glyph glyph-name="space" unicode=" " horiz-adv-x="593" 
 />
    <glyph glyph-name="exclam" unicode="!" horiz-adv-x="339" 
d="M188 0h-36v152h36v-152zM180 279h-20q-6 342 -6 866v272h32v-272q0 -524 -6 -866z" />
    <glyph glyph-name="quotedbl" unicode="&#x22;" horiz-adv-x="598" 
d="M160 885h-21v532h21v-532zM459 885h-21v532h21v-532z" />
    <glyph glyph-name="numbersign" unicode="#" horiz-adv-x="1120" 
d="M657 0h-22l55 483h-309l-57 -483h-23l55 483h-237l2 21h237l48 414h-240l2 22h240l57 477h24l-55 -477h307l58 477h22l-55 -477h235l-2 -22h-235l-49 -414h239l-2 -21h-239zM692 504l47 414h-307l-49 -414h309z" />
    <glyph glyph-name="dollar" unicode="$" horiz-adv-x="1148" 
d="M592 -117h-23v82q-433 9 -448 453h22q9 -421 426 -430v700q-77 5 -136 17t-114.5 37t-92 63t-58 97.5t-21.5 137.5q0 79 23.5 143t72 114.5t131.5 79t195 30.5v92h23v-92q184 -4 288.5 -124t112.5 -320h-22q-11 195 -109.5 307t-269.5 116v-677q60 -4 101 -8.5t90 -15.5
t82 -26.5t66 -41.5t52 -61t31 -85t12 -113q0 -182 -116.5 -285t-317.5 -108v-82zM592 686v-698q190 5 302 102.5t112 267.5q0 59 -10.5 105t-27.5 79t-47.5 57t-61 38.5t-78 24.5t-88 15t-101.5 9zM569 709v677q-108 -2 -187 -29t-125 -74.5t-67.5 -107.5t-21.5 -135
q0 -56 11.5 -101.5t29.5 -77t48.5 -56.5t61 -40t76 -26.5t83 -17.5t91.5 -12z" />
    <glyph glyph-name="percent" unicode="%" horiz-adv-x="1349" 
d="M291 707q-219 0 -219 385q0 374 219 374q225 0 225 -372q0 -196 -59 -291.5t-166 -95.5zM291 727q203 0 203 367q0 185 -51.5 268.5t-151.5 83.5q-99 0 -149 -84t-50 -270q0 -365 199 -365zM182 -43h-26l991 1503h27zM1053 -47q-219 0 -219 385q0 375 219 375
q225 0 225 -373q0 -196 -59 -291.5t-166 -95.5zM1053 -27q202 0 202 367q0 185 -51 268.5t-151 83.5q-99 0 -149 -84t-50 -270q0 -365 199 -365z" />
    <glyph glyph-name="ampersand" unicode="&#x26;" horiz-adv-x="1089" 
d="M1100 0h-29l-207 236q-147 -285 -422 -285q-168 0 -271 108t-103 263q0 72 18.5 132.5t46.5 103t74.5 82.5t88.5 65.5t103 56.5l-43 49q-140 156 -137 354q0 143 83 221t214 78q266 0 266 -307q0 -74 -19.5 -131t-60.5 -101t-88 -75t-118 -66l-60 -30l422 -482l12 31
q82 199 91 406h22q-12 -228 -90 -414l-21 -39zM442 -29q264 0 406 281l-434 493q-58 -29 -100 -54.5t-87 -64t-73 -80t-46 -99t-18 -125.5q0 -143 98 -247t254 -104zM242 1165q-3 -189 131 -342l45 -51l69 33q66 31 112.5 61.5t84.5 72.5t57 96t19 122q0 287 -244 287
q-122 0 -198 -71.5t-76 -207.5z" />
    <glyph glyph-name="quotesingle" unicode="'" horiz-adv-x="299" 
d="M160 885h-21v532h21v-532z" />
    <glyph glyph-name="parenleft" unicode="(" horiz-adv-x="446" 
d="M473 -305h-29q-149 199 -228 444t-79 504q0 528 307 911h29q-315 -387 -315 -911q0 -529 315 -948z" />
    <glyph glyph-name="parenright" unicode=")" horiz-adv-x="446" 
d="M2 -305h-31q318 419 318 948q0 524 -318 911h31q307 -383 307 -911q0 -259 -79 -504t-228 -444z" />
    <glyph glyph-name="asterisk" unicode="*" horiz-adv-x="864" 
d="M672 717l-19 -12l-221 307l-223 -310l-19 15l226 307l-353 113l9 20l348 -115v375h20v-375l353 115l6 -20l-355 -113z" />
    <glyph glyph-name="plus" unicode="+" horiz-adv-x="1087" 
d="M553 283h-21v440h-442v22h442v443h21v-443h442v-22h-442v-440z" />
    <glyph glyph-name="comma" unicode="," horiz-adv-x="380" 
d="M170 -143v22q27 10 27 121h-27v152h37v-132q0 -73 -7 -113t-30 -50z" />
    <glyph glyph-name="hyphen" unicode="-" horiz-adv-x="647" 
d="M561 649h-475v21h475v-21z" />
    <glyph glyph-name="period" unicode="." horiz-adv-x="380" 
d="M207 0h-37v152h37v-152z" />
    <glyph glyph-name="slash" unicode="/" horiz-adv-x="577" 
d="M23 0h-23l553 1417h25z" />
    <glyph glyph-name="zero" unicode="0" horiz-adv-x="1134" 
d="M563 -49q-434 0 -434 764q0 749 434 749q443 0 443 -745q0 -385 -116 -576.5t-327 -191.5zM563 -29q199 0 310.5 187t111.5 561q0 725 -422 725q-203 0 -308 -175.5t-105 -553.5q0 -744 413 -744z" />
    <glyph glyph-name="one" unicode="1" horiz-adv-x="1046" 
d="M563 0h-20v1151h-275v20h213q38 0 50 12.5t12 49.5v184h20v-1417z" />
    <glyph glyph-name="two" unicode="2" horiz-adv-x="1134" 
d="M999 0h-866q0 101 21 180t73 155t138.5 146.5t218.5 147.5q185 109 239 150q105 80 135 175q17 54 17 125q0 96 -29.5 167.5t-83 114t-122.5 63t-154 20.5q-193 0 -301.5 -114.5t-114.5 -346.5v-22h-20q0 250 115.5 376.5t320.5 126.5q88 0 161 -22t130 -66.5t88.5 -120
t31.5 -176.5q0 -36 -3.5 -67t-13 -59.5t-18.5 -51.5t-29 -47.5t-35 -42t-45 -40.5t-51.5 -38.5t-62 -40t-67.5 -40t-78 -44.5q-243 -137 -339 -270.5t-101 -317.5h845v-20z" />
    <glyph glyph-name="three" unicode="3" horiz-adv-x="1134" 
d="M598 741h-137v21h137q76 0 136.5 22t98 56.5t62.5 80.5t35 90.5t10 90.5q0 156 -107 249t-270 93q-181 0 -285 -117.5t-104 -316.5h-20q0 208 107 331t300 123q173 0 286.5 -97.5t113.5 -260.5q0 -49 -10.5 -97t-35 -94t-60 -81.5t-90 -57.5t-120.5 -24
q169 0 261.5 -103.5t92.5 -269.5q0 -195 -124 -311.5t-326 -116.5q-203 0 -309.5 121t-106.5 344h21q0 -211 105 -328t296 -117q189 0 306.5 111t117.5 297q0 161 -96 261.5t-285 100.5z" />
    <glyph glyph-name="four" unicode="4" horiz-adv-x="1132" 
d="M887 0h-23v379h-723v24l711 1014h35v-1018h143v-20h-143v-379zM864 399v1000l-700 -1000h700z" />
    <glyph glyph-name="five" unicode="5" horiz-adv-x="1134" 
d="M135 365h23q12 -177 124.5 -285.5t278.5 -108.5q186 0 302 134.5t116 355.5q0 204 -104.5 313t-296.5 109q-64 0 -117.5 -13.5t-109.5 -47.5t-104.5 -101t-86.5 -164h-21l27 860h786v-20h-764l-28 -799q70 162 173 233.5t249 71.5q198 0 307.5 -116.5t109.5 -329.5
q0 -228 -121 -367t-315 -139q-179 0 -300 116t-128 298z" />
    <glyph glyph-name="six" unicode="6" horiz-adv-x="1134" 
d="M979 1110h-23q-24 169 -113.5 251.5t-234.5 82.5q-230 0 -342 -186.5t-112 -593.5q78 118 196 190t246 72q189 0 297 -123t108 -346q0 -221 -116 -363.5t-303 -142.5q-449 0 -449 711q0 420 116.5 611t358.5 191q156 0 253.5 -91.5t117.5 -262.5zM154 631
q9 -660 428 -660q177 0 288 137.5t111 348.5q0 213 -102 330.5t-283 117.5q-127 0 -245 -75.5t-197 -198.5z" />
    <glyph glyph-name="seven" unicode="7" horiz-adv-x="1132" 
d="M430 0h-22q26 368 191 768t382 629h-862v20h893v-18q-223 -226 -392.5 -631t-189.5 -768z" />
    <glyph glyph-name="eight" unicode="8" horiz-adv-x="1130" 
d="M563 -49q-201 0 -318.5 116.5t-117.5 321.5q0 154 102.5 258.5t272.5 104.5q-67 2 -122.5 24.5t-91.5 57.5t-60.5 81t-35 92.5t-10.5 94.5q0 168 106 265t275 97q171 0 277 -96.5t106 -265.5q0 -47 -10.5 -94t-35.5 -93t-61 -81t-91.5 -57.5t-122.5 -24.5
q170 0 273 -104.5t103 -258.5q0 -206 -118 -322t-320 -116zM563 -29q195 0 306.5 109.5t111.5 308.5q0 73 -23.5 134.5t-72 111.5t-131 78t-191.5 28t-191.5 -28t-130 -78t-71 -111.5t-23.5 -134.5q0 -199 110.5 -308.5t305.5 -109.5zM924 1102q0 157 -100 249.5t-261 92.5
t-260.5 -92t-99.5 -250q0 -48 8 -91t32.5 -90t62.5 -81t104.5 -56t152.5 -22t152.5 22t105 56t62.5 81t32.5 90.5t8.5 90.5z" />
    <glyph glyph-name="nine" unicode="9" horiz-adv-x="1134" 
d="M156 305h22q23 -169 112.5 -251.5t233.5 -82.5q230 0 343.5 186.5t113.5 594.5q-78 -118 -197 -190.5t-245 -72.5q-189 0 -297.5 123.5t-108.5 345.5q0 220 116.5 363t303.5 143q448 0 448 -710q0 -420 -117 -611.5t-360 -191.5q-155 0 -251.5 91t-116.5 263zM981 786
q-12 658 -428 658q-178 0 -288.5 -136.5t-110.5 -349.5t102 -330.5t283 -117.5q126 0 246 76t196 200z" />
    <glyph glyph-name="colon" unicode=":" horiz-adv-x="380" 
d="M207 0h-37v152h37v-152zM207 723h-37v151h37v-151z" />
    <glyph glyph-name="semicolon" unicode=";" horiz-adv-x="378" 
d="M207 723h-37v151h37v-151zM170 -143v22q27 10 27 121h-27v152h37v-132q0 -73 -7 -113t-30 -50z" />
    <glyph glyph-name="less" unicode="&#x3c;" horiz-adv-x="1087" 
d="M995 205l-905 516v22l905 517v-25l-884 -502l884 -502v-26z" />
    <glyph glyph-name="equal" unicode="=" horiz-adv-x="1087" 
d="M995 940h-905v21h905v-21zM995 506h-905v22h905v-22z" />
    <glyph glyph-name="greater" unicode="&#x3e;" horiz-adv-x="1087" 
d="M995 721l-905 -516v26l883 502l-883 502v25l905 -517v-22z" />
    <glyph glyph-name="question" unicode="?" horiz-adv-x="1069" 
d="M547 281h-23v51q0 142 51 241.5t164 167.5q105 62 160 138.5t55 199.5q0 365 -426 365q-187 0 -299 -115.5t-112 -322.5h-21q0 215 113.5 336.5t318.5 121.5q216 0 331.5 -95t115.5 -290q0 -128 -56.5 -210.5t-168.5 -147.5q-108 -61 -155.5 -156.5t-47.5 -232.5v-51z
M553 0h-37v152h37v-152z" />
    <glyph glyph-name="at" unicode="@" horiz-adv-x="1482" 
d="M1290 -35l10 -18q-79 -59 -221 -92t-295 -33q-171 0 -304.5 54.5t-218.5 153t-129 232t-44 295.5q0 169 46.5 312t132 247t214 162.5t285.5 58.5q132 0 242 -36t198 -110.5t137.5 -201t49.5 -293.5q0 -124 -15.5 -220.5t-40 -154.5t-58.5 -95.5t-66.5 -51.5t-67.5 -14
q-144 0 -144 229q0 33 3 68q-34 -121 -128.5 -209t-222.5 -88q-85 0 -144.5 52t-85.5 129.5t-26 170.5q0 209 99.5 346t261.5 137q25 0 47 -2.5t49.5 -11.5t50 -24.5t45.5 -43t38.5 -65t26 -93t11.5 -124.5l53 342h21l-68 -445q-10 -53 -10 -147q0 -199 123 -199
q32 0 61.5 13.5t60 49.5t53 91.5t36.5 148t14 211.5q0 131 -31 236t-85.5 176t-131.5 118t-165.5 68t-190.5 21q-202 0 -352 -98.5t-227.5 -269t-77.5 -390.5q0 -157 43 -287t125.5 -225.5t212 -148t294.5 -52.5q154 0 292 31t214 90zM653 182q148 0 252.5 124t104.5 325
q0 86 -17 150t-42 100t-60.5 57.5t-66.5 28t-66 6.5q-153 0 -246.5 -130.5t-93.5 -330.5q0 -137 60.5 -233.5t174.5 -96.5z" />
    <glyph glyph-name="A" unicode="A" horiz-adv-x="1220" 
d="M1217 0h-25l-170 399h-825l-168 -399h-25l602 1417h10zM1014 420l-402 954l-405 -954h807z" />
    <glyph glyph-name="B" unicode="B" horiz-adv-x="1257" 
d="M692 0h-532v1417h585q201 0 293 -86t92 -235q0 -82 -24.5 -147.5t-65 -104t-89.5 -58.5t-101 -20q44 -3 85.5 -15.5t84.5 -40.5t74.5 -69t52 -105.5t20.5 -144.5q0 -185 -117 -288t-358 -103zM182 20h510q230 0 342.5 98t112.5 273q0 188 -100 276.5t-275 88.5h-590v-736
zM182 778h590q336 0 336 318q0 138 -87.5 219.5t-275.5 81.5h-563v-619z" />
    <glyph glyph-name="C" unicode="C" horiz-adv-x="1304" 
d="M1204 487h21q-40 -249 -184.5 -392.5t-366.5 -143.5q-126 0 -232.5 48t-186 139.5t-124.5 235t-45 324.5q0 352 160.5 559t435.5 207q116 0 214.5 -39.5t166.5 -109t110 -162.5t52 -201h-21q-22 218 -162.5 355t-359.5 137q-263 0 -419.5 -201.5t-156.5 -544.5
q0 -175 43.5 -315t120.5 -229t179 -136t221 -47q209 0 347.5 136.5t186.5 379.5z" />
    <glyph glyph-name="D" unicode="D" horiz-adv-x="1316" 
d="M694 0h-534v1417h493q264 0 428 -187.5t164 -506.5q0 -324 -152 -523.5t-399 -199.5zM182 20h512q236 0 382.5 194.5t146.5 508.5q0 311 -158 492.5t-412 181.5h-471v-1377z" />
    <glyph glyph-name="E" unicode="E" horiz-adv-x="1204" 
d="M1126 0h-966v1417h938v-20h-916v-639h862v-21h-862v-717h944v-20z" />
    <glyph glyph-name="F" unicode="F" horiz-adv-x="1118" 
d="M989 707h-807v-707h-22v1417h907v-20h-885v-668h807v-22z" />
    <glyph glyph-name="G" unicode="G" horiz-adv-x="1400" 
d="M1274 0h-21v444q-20 -99 -61 -183.5t-105.5 -156t-162.5 -112.5t-219 -41q-145 0 -263 59t-195.5 161.5t-119 241t-41.5 298.5q0 213 70.5 381.5t213 270t337.5 101.5q153 0 278.5 -61t201.5 -171.5t85 -250.5h-21q-19 206 -169.5 334.5t-372.5 128.5
q-144 0 -259.5 -57.5t-190 -158t-114 -234t-39.5 -287.5q0 -156 40.5 -290t116 -233.5t190.5 -156t256 -56.5q119 0 213.5 41t155.5 109t101 161t57 191t17 205h-512v20h533v-698z" />
    <glyph glyph-name="H" unicode="H" horiz-adv-x="1353" 
d="M1194 0h-23v754h-989v-754h-22v1417h22v-643h989v643h23v-1417z" />
    <glyph glyph-name="I" unicode="I" horiz-adv-x="358" 
d="M190 0h-22v1417h22v-1417z" />
    <glyph glyph-name="J" unicode="J" horiz-adv-x="1011" 
d="M831 383v1034h21v-1034q0 -199 -108.5 -315.5t-309.5 -116.5q-190 0 -291.5 111.5t-101.5 328.5v80h20v-80q0 -205 98 -312.5t275 -107.5q190 0 293.5 111t103.5 301z" />
    <glyph glyph-name="K" unicode="K" horiz-adv-x="1204" 
d="M1204 0h-28l-584 813l-410 -414v-399h-22v1417h22v-989l979 989h33l-586 -588z" />
    <glyph glyph-name="L" unicode="L" horiz-adv-x="1075" 
d="M1059 0h-899v1417h22v-1397h877v-20z" />
    <glyph glyph-name="M" unicode="M" horiz-adv-x="1564" 
d="M1401 0h-21v1395l-579 -1395h-31l-584 1395v-1395h-22v1417h37l585 -1397l580 1397h35v-1417z" />
    <glyph glyph-name="N" unicode="N" horiz-adv-x="1353" 
d="M1198 0h-27l-991 1393v-1393h-22v1417h30l988 -1388v1388h22v-1417z" />
    <glyph glyph-name="O" unicode="O" horiz-adv-x="1372" 
d="M690 -49q-300 0 -458 191t-158 554q0 361 161.5 564.5t454.5 203.5q291 0 449.5 -204t158.5 -570q0 -368 -155 -553.5t-453 -185.5zM690 -29q289 0 437.5 180.5t148.5 538.5q0 356 -152.5 555t-433.5 199q-284 0 -439 -197.5t-155 -550.5q0 -354 152.5 -539.5
t441.5 -185.5z" />
    <glyph glyph-name="P" unicode="P" horiz-adv-x="1206" 
d="M735 545h-553v-545h-22v1417h575q177 0 287.5 -127t110.5 -317q0 -189 -109.5 -308.5t-288.5 -119.5zM182 565h553q169 0 272 114t103 294q0 179 -104 301.5t-271 122.5h-553v-832z" />
    <glyph glyph-name="Q" unicode="Q" horiz-adv-x="1372" 
d="M1192 -195h-29l-162 215q-129 -69 -311 -69q-300 0 -458 191t-158 554q0 361 161.5 564.5t454.5 203.5q291 0 449.5 -204t158.5 -570q0 -485 -278 -655zM690 -29q168 0 299 70l-315 420h31l303 -410q268 162 268 639q0 356 -152.5 555t-433.5 199q-284 0 -439 -197.5
t-155 -550.5q0 -354 152.5 -539.5t441.5 -185.5z" />
    <glyph glyph-name="R" unicode="R" horiz-adv-x="1298" 
d="M1163 0h-20v375q0 71 -16 122t-56 91.5t-114 61t-183 20.5h-592v-670h-22v1417h641q187 0 290 -96t103 -270q0 -151 -93 -254t-255 -115q169 -7 243 -81.5t74 -225.5v-375zM182 692h592q104 0 183 29.5t124.5 81.5t67.5 114t22 134q0 166 -95.5 256t-274.5 90h-619v-705z
" />
    <glyph glyph-name="S" unicode="S" horiz-adv-x="1198" 
d="M1085 999h-24q-12 214 -136.5 329.5t-363.5 115.5q-219 0 -326.5 -95t-107.5 -259q0 -60 15.5 -109.5t40 -84t63.5 -62t78.5 -44t93 -28.5t98 -18t102.5 -11q171 -15 216 -23q181 -34 246 -144q44 -74 44 -189q0 -203 -132 -314.5t-376 -111.5q-246 0 -391 117.5
t-151 355.5h22q3 -227 142 -340t378 -113q235 0 361.5 106t126.5 302q0 84 -27.5 143.5t-57.5 91t-103 52.5t-109 26t-130 13q-41 4 -61 6q-95 9 -163 21.5t-138 39.5t-113.5 65.5t-70.5 102t-27 147.5q0 174 113 275.5t346 101.5q255 0 383 -122t139 -343z" />
    <glyph glyph-name="T" unicode="T" horiz-adv-x="1058" 
d="M543 0h-23v1397h-510v20h1039v-20h-506v-1397z" />
    <glyph glyph-name="U" unicode="U" horiz-adv-x="1331" 
d="M1157 471v946h23v-946q0 -255 -136.5 -387.5t-390.5 -132.5q-236 0 -368.5 126.5t-132.5 377.5v962h20v-962q0 -240 126 -362t355 -122q247 0 375.5 126t128.5 374z" />
    <glyph glyph-name="V" unicode="V" horiz-adv-x="1124" 
d="M565 0h-10l-551 1417h25l530 -1374l541 1374h20z" />
    <glyph glyph-name="W" unicode="W" horiz-adv-x="1652" 
d="M1268 0h-25l-422 1386l-418 -1386h-24l-369 1417h23l358 -1380l420 1380h25l419 -1380l359 1380h22z" />
    <glyph glyph-name="X" unicode="X" horiz-adv-x="1146" 
d="M1143 0h-29l-543 705l-536 -705h-29l553 723l-530 694h26l516 -676l519 676h26l-528 -694z" />
    <glyph glyph-name="Y" unicode="Y" horiz-adv-x="1136" 
d="M580 0h-23v625l-557 792h29l538 -770l541 770h29l-557 -792v-625z" />
    <glyph glyph-name="Z" unicode="Z" horiz-adv-x="1075" 
d="M1038 0h-997v20l969 1377h-951v20h979v-20l-972 -1377h972v-20z" />
    <glyph glyph-name="bracketleft" unicode="[" horiz-adv-x="532" 
d="M508 -279h-330v1815h330v-23h-309v-1769h309v-23z" />
    <glyph glyph-name="backslash" unicode="\" horiz-adv-x="577" 
d="M578 0h-25l-553 1417h23z" />
    <glyph glyph-name="bracketright" unicode="]" horiz-adv-x="520" 
d="M344 -279h-332v23h310v1769h-310v23h332v-1815z" />
    <glyph glyph-name="asciicircum" unicode="^" horiz-adv-x="905" 
d="M860 1010h-31l-376 387l-379 -387h-31l401 407h17z" />
    <glyph glyph-name="underscore" unicode="_" horiz-adv-x="915" 
d="M924 -217h-930v20h930v-20z" />
    <glyph glyph-name="grave" unicode="`" horiz-adv-x="753" 
d="M614 1184l-481 352l17 23l471 -363z" />
    <glyph glyph-name="a" unicode="a" horiz-adv-x="1046" 
d="M918 0h-21v291q-26 -135 -159 -227.5t-304 -92.5q-364 0 -364 299q0 84 28 142.5t86.5 93.5t131.5 53.5t180 28.5q40 3 89.5 5t83.5 3.5t72 4t63 6.5t46.5 11t33 18.5t13.5 27.5q0 197 -87.5 295t-295.5 98q-201 0 -294 -89.5t-99 -258.5h-21q10 370 414 370
q218 0 311 -103.5t93 -311.5v-664zM897 365v264q-10 -18 -33.5 -28.5t-64.5 -15.5t-80.5 -7t-105 -5.5t-115.5 -7.5q-102 -10 -169.5 -25t-125 -47t-84.5 -87t-27 -136q0 -276 342 -276q64 0 127.5 14.5t122 45.5t104.5 74t75 104.5t34 132.5z" />
    <glyph glyph-name="b" unicode="b" horiz-adv-x="1122" 
d="M158 0h-21v1436h21v-754q16 86 52 155t81 113.5t99.5 74t106.5 42t103 12.5q206 0 329.5 -141t123.5 -408q0 -270 -124 -414.5t-329 -144.5q-52 0 -103 11t-106 39.5t-99.5 72t-81 114.5t-52.5 161v-369zM600 -6q195 0 313.5 137.5t118.5 398.5q0 257 -117 392t-315 135
q-89 0 -163.5 -30.5t-125 -82t-86 -120.5t-51.5 -144.5t-16 -155.5q0 -251 123.5 -390.5t318.5 -139.5z" />
    <glyph glyph-name="c" unicode="c" horiz-adv-x="1001" 
d="M918 381h22q-22 -183 -142 -296.5t-292 -113.5q-198 0 -317 146.5t-119 421.5q0 272 118 406t324 134q187 0 301.5 -109t128.5 -296h-24q-13 185 -121.5 284t-284.5 99q-197 0 -308.5 -128.5t-111.5 -389.5q0 -264 111.5 -404.5t302.5 -140.5q161 0 276.5 105t135.5 282z
" />
    <glyph glyph-name="d" unicode="d" horiz-adv-x="1122" 
d="M987 0h-22v369q-16 -90 -52 -161t-81 -114.5t-100 -72t-106 -39.5t-104 -11q-205 0 -328.5 144.5t-123.5 414.5q0 267 123 408t329 141q52 0 104 -12.5t106.5 -42t99.5 -74t81 -113.5t52 -155v754h22v-1436zM522 -6q195 0 319 139.5t124 390.5q0 80 -16 155.5t-51 144.5
t-86 120.5t-125.5 82t-164.5 30.5q-198 0 -314 -135t-116 -392q0 -261 117.5 -398.5t312.5 -137.5z" />
    <glyph glyph-name="e" unicode="e" horiz-adv-x="1015" 
d="M934 309h24q-43 -161 -151 -249.5t-262 -88.5q-475 0 -475 574q0 246 122 390t338 144q211 0 327 -151t116 -396h-881q6 -538 453 -538q142 0 243.5 81t145.5 234zM92 553h860q-5 231 -114 367.5t-308 136.5q-208 0 -323 -136t-115 -368z" />
    <glyph glyph-name="f" unicode="f" horiz-adv-x="514" 
d="M180 0h-22v1030h-140v21h140v125q0 135 65.5 197.5t206.5 62.5h86v-23h-86q-250 0 -250 -237v-125h342v-21h-342v-1030z" />
    <glyph glyph-name="g" unicode="g" horiz-adv-x="1130" 
d="M979 -10v393q-21 -104 -71.5 -183t-115.5 -122.5t-131 -64.5t-131 -21q-213 0 -336.5 136.5t-123.5 403.5q0 266 126 406.5t334 140.5q52 0 103.5 -11t107.5 -39t101.5 -70.5t82.5 -112.5t54 -158v363h20v-1061q0 -234 -120 -361t-324 -127q-206 0 -311 89t-109 288h21
q4 -191 105 -272.5t294 -81.5q189 0 306.5 120.5t117.5 344.5zM530 12q90 0 165.5 30.5t127 81t87.5 118.5t52.5 142t16.5 151q0 250 -125.5 386t-323.5 136q-200 0 -319 -135t-119 -390q0 -256 117.5 -388t320.5 -132z" />
    <glyph glyph-name="h" unicode="h" horiz-adv-x="1103" 
d="M975 0h-21v680q0 89 -17 155.5t-46.5 108.5t-75.5 67.5t-99 35.5t-122 10q-89 0 -163.5 -30.5t-125 -82t-86 -120.5t-51.5 -144.5t-16 -155.5v-524h-21v1436h21v-754q20 107 67 186.5t109.5 124t128.5 65.5t137 21q92 0 158 -18t118.5 -61.5t78.5 -123t26 -196.5v-680z
" />
    <glyph glyph-name="i" unicode="i" horiz-adv-x="301" 
d="M162 0h-21v1051h21v-1051zM166 1176h-29v260h29v-260z" />
    <glyph glyph-name="j" unicode="j" horiz-adv-x="452" 
d="M317 1176h-28v260h28v-260zM293 1051h20v-1291q0 -134 -64.5 -196t-205.5 -62h-88v23h88q250 0 250 235v1291z" />
    <glyph glyph-name="k" unicode="k" horiz-adv-x="1009" 
d="M1004 0h-25l-436 635l-381 -340v-295h-21v1436h21v-1112l817 727h31l-451 -402z" />
    <glyph glyph-name="l" unicode="l" horiz-adv-x="301" 
d="M162 0h-21v1436h21v-1436z" />
    <glyph glyph-name="m" unicode="m" horiz-adv-x="1611" 
d="M1485 0h-23v680q0 111 -19.5 186t-59 116.5t-90 58t-122.5 16.5q-151 0 -248.5 -110.5t-97.5 -266.5v-680h-20v680q0 111 -20 186.5t-60 116.5t-90.5 57.5t-122.5 16.5q-92 0 -163.5 -46t-113 -123.5t-62.5 -170t-21 -193.5v-524h-21v1051h21v-369q16 107 54 186.5
t89 124t105 65.5t112 21q141 0 221 -75.5t84 -251.5q25 155 129.5 241t224.5 86q75 0 129 -18t97.5 -61.5t65.5 -123t22 -196.5v-680z" />
    <glyph glyph-name="n" unicode="n" horiz-adv-x="1116" 
d="M989 0h-22v680q0 89 -17.5 155.5t-48 108.5t-78 67.5t-101 35.5t-122.5 10q-89 0 -164 -30.5t-126.5 -82t-87.5 -120.5t-53 -144.5t-17 -155.5v-524h-21v1051h21v-369q20 107 68 186.5t111.5 124t130.5 65.5t138 21q93 0 160 -18t121 -61.5t81 -123t27 -196.5v-680z" />
    <glyph glyph-name="o" unicode="o" 
d="M557 -29q-226 0 -356.5 152.5t-130.5 400.5q0 252 132 403.5t355 151.5q222 0 351.5 -151t129.5 -404q0 -250 -130.5 -401.5t-350.5 -151.5zM557 -6q211 0 335 145t124 385q0 245 -123 389t-336 144q-214 0 -339.5 -146t-125.5 -387q0 -239 124.5 -384.5t340.5 -145.5z
" />
    <glyph glyph-name="p" unicode="p" horiz-adv-x="1122" 
d="M158 -498h-21v1549h21v-369q16 90 52.5 161t81 114.5t99.5 71.5t106 39t103 11q205 0 329 -144.5t124 -414.5q0 -267 -123.5 -408t-329.5 -141q-65 0 -130.5 21.5t-129 65.5t-113 124.5t-69.5 186.5v-867zM600 -6q199 0 315.5 134t116.5 392q0 261 -118.5 399t-313.5 138
t-318.5 -140t-123.5 -393q0 -79 16 -154t51.5 -144t86 -120t125 -81.5t163.5 -30.5z" />
    <glyph glyph-name="q" unicode="q" horiz-adv-x="1126" 
d="M524 -6q111 0 198.5 46t139.5 123t78.5 169t26.5 192q0 253 -124 393t-319 140t-312.5 -137.5t-117.5 -399.5q0 -258 116 -392t314 -134zM989 -498h-22v867q-16 -86 -52 -155t-81 -113.5t-99.5 -74.5t-106.5 -42.5t-104 -12.5q-206 0 -329 141t-123 408
q0 270 123.5 414.5t328.5 144.5q53 0 104 -11t106 -39t100 -71.5t81 -114.5t52 -161v369h22v-1549z" />
    <glyph glyph-name="r" unicode="r" horiz-adv-x="684" 
d="M145 0h-22v1051h22v-369q20 107 68 186.5t112 124t131 65.5t138 21h78v-24q-16 2 -78 2q-89 0 -164 -30.5t-127 -82t-88 -120.5t-53 -144.5t-17 -155.5v-524z" />
    <glyph glyph-name="s" unicode="s" horiz-adv-x="987" 
d="M901 733h-18q-12 167 -99 245.5t-284 78.5q-206 0 -295.5 -62t-89.5 -182q0 -121 78 -171t305 -81q25 -3 77 -8.5t79 -9t71 -12.5t68 -20t54 -31.5t45.5 -46.5t26.5 -64.5t11 -87.5q0 -136 -106 -223t-314 -87q-215 0 -330.5 98t-120.5 269h23q4 -166 115.5 -255
t312.5 -89q197 0 297 79.5t100 207.5q0 44 -8.5 78.5t-21 57.5t-38 41t-47.5 28t-61 18.5t-68.5 12.5t-80.5 11t-86 13q-123 18 -196.5 37t-122 50t-66 74t-17.5 111q0 130 95 198t311 68q109 0 186 -23t122.5 -69.5t67 -108t25.5 -145.5z" />
    <glyph glyph-name="t" unicode="t" horiz-adv-x="559" 
d="M283 0h-23v1030h-242v21h242v366h23v-366h239v-21h-239v-1030z" />
    <glyph glyph-name="u" unicode="u" 
d="M979 0h-23v369q-17 -86 -51.5 -155t-78 -113.5t-97.5 -74.5t-107.5 -42.5t-109.5 -12.5q-92 0 -158.5 18t-119.5 61.5t-80 123.5t-27 197v680h20v-680q0 -111 25 -186.5t75.5 -116t113.5 -57.5t151 -17q89 0 163 30.5t125 82t87 120t52.5 143.5t16.5 154v527h23v-1051z
" />
    <glyph glyph-name="v" unicode="v" horiz-adv-x="968" 
d="M502 0h-21l-467 1051h29l449 -1018l434 1018h28z" />
    <glyph glyph-name="w" unicode="w" horiz-adv-x="1400" 
d="M1040 0h-22l-320 1010l-319 -1010h-23l-333 1051h24l320 -1018l319 1018h25l319 -1018l320 1018h22z" />
    <glyph glyph-name="x" unicode="x" horiz-adv-x="1015" 
d="M942 0h-29l-438 514l-436 -514h-29l451 530l-443 521h29l428 -504l430 504h29l-445 -521z" />
    <glyph glyph-name="y" unicode="y" horiz-adv-x="960" 
d="M287 -498h-29l215 502l-463 1047h29l448 -1018l435 1018h28z" />
    <glyph glyph-name="z" unicode="z" horiz-adv-x="897" 
d="M856 0h-815v20l770 1010h-739v21h770v-19l-776 -1012h790v-20z" />
    <glyph glyph-name="braceleft" unicode="{" horiz-adv-x="616" 
d="M571 -281h-39q-70 0 -120 8.5t-84 29t-54 45t-30.5 67t-13.5 83.5t-3 105q0 25 5.5 172.5t5.5 167.5q0 123 -34.5 172t-123.5 49v23q89 0 123.5 49.5t34.5 173.5q0 19 -5.5 164t-5.5 172q0 65 3 106t13.5 83.5t30.5 67t54 44.5t84 28.5t120 8.5h39v-22h-39
q-56 0 -98.5 -7t-73 -18t-51 -32.5t-33 -44t-18.5 -59t-8 -70.5t-2 -85q0 -40 5 -165t5 -171q0 -213 -119 -233q119 -25 119 -234q0 -41 -5 -167.5t-5 -172.5q0 -51 2 -85t8 -70.5t18.5 -58.5t33 -43.5t51 -32.5t73 -18t98.5 -7h39v-23z" />
    <glyph glyph-name="bar" unicode="|" horiz-adv-x="337" 
d="M180 -266h-22v1837h22v-1837z" />
    <glyph glyph-name="braceright" unicode="}" horiz-adv-x="620" 
d="M86 -281h-41v23h41q65 0 112 8t78 27t49.5 42t28 62.5t12.5 77.5t3 98q0 46 -5.5 172.5t-5.5 167.5q0 209 121 234q-121 20 -121 233q0 46 5.5 171t5.5 165q0 73 -4.5 116t-20 86t-46 65t-82.5 35.5t-130 13.5h-41v22h41q69 0 119 -8.5t84 -28.5t54 -44.5t31 -67t14 -84
t3 -105.5q0 -27 -5 -172t-5 -164q0 -124 34 -173.5t124 -49.5v-23q-90 0 -124 -48.5t-34 -172.5q0 -19 5 -166.5t5 -173.5q0 -64 -3.5 -105.5t-14 -83.5t-30.5 -66.5t-54 -45t-84 -29t-119 -8.5z" />
    <glyph glyph-name="asciitilde" unicode="~" horiz-adv-x="1142" 
d="M1051 756v-31q-60 -75 -127 -108t-158 -33q-53 0 -109 23.5t-98 52t-100.5 52t-114.5 23.5q-149 0 -254 -153v30q114 144 254 144q57 0 116.5 -24t102 -52t98 -52t105.5 -24q84 0 153 35.5t132 116.5z" />
    <glyph glyph-name="nonbreakingspace" unicode="&#xa0;" horiz-adv-x="593" 
 />
    <glyph glyph-name="exclamdown" unicode="&#xa1;" horiz-adv-x="339" 
d="M152 1417h36v-151h-36v151zM160 1139h20q6 -342 6 -867v-272h-32v272q0 525 6 867z" />
    <glyph glyph-name="cent" unicode="&#xa2;" horiz-adv-x="1040" 
d="M541 0h-23v147q-197 2 -311.5 148t-114.5 420q0 267 113 402t313 140v160h23v-160q183 -5 296.5 -111t125.5 -292h-23q-13 182 -120 280t-279 103v-1069q155 4 266 115t133 274h21q-14 -109 -68.5 -200t-147 -149t-204.5 -61v-147zM518 168v1069q-191 -5 -298 -135
t-107 -387q0 -265 107.5 -405t297.5 -142z" />
    <glyph glyph-name="sterling" unicode="&#xa3;" horiz-adv-x="1071" 
d="M104 590v20h246q-6 7 -8 11q-95 122 -153 232.5t-58 215.5q0 197 110.5 296t295.5 99q199 0 304 -118t105 -379h-22q0 250 -99 363.5t-288 113.5q-175 0 -280 -95t-105 -280q0 -108 54.5 -213t151.5 -221l21 -25h360v-20h-346q86 -121 86 -246t-88 -248q28 4 41 4
q56 0 106.5 -20t84.5 -44.5t88.5 -44.5t117.5 -20q80 0 125 29.5t70 93.5v-41q-19 -46 -67.5 -74t-127.5 -28q-52 0 -97 13.5t-78.5 32t-65.5 37.5t-72 32.5t-84 13.5h-24q-21 0 -33 -6q-54 -62 -136 -92.5t-155 -30.5v20q75 0 152 28.5t126 92.5q95 119 95 252
q0 117 -92 246h-261z" />
    <glyph glyph-name="currency" unicode="&#xa4;" horiz-adv-x="1054" 
d="M956 338l-16 -16l-137 137q-119 -109 -279 -109q-162 0 -274 109l-137 -137l-15 16l138 135q-113 116 -113 279q0 159 110 278l-133 133l15 17l133 -136q121 111 276 111q160 0 279 -113l137 138l14 -17l-137 -137q113 -119 113 -274q0 -156 -113 -279zM907 752
q0 159 -112 271t-271 112q-158 0 -268.5 -112t-110.5 -271q0 -158 110.5 -269.5t268.5 -111.5q160 0 271.5 111.5t111.5 269.5z" />
    <glyph glyph-name="yen" unicode="&#xa5;" horiz-adv-x="1130" 
d="M946 231h-373v-231h-20v231h-369v21h369v285h-369v20h369v223l-463 637h27l446 -614l449 614h28l-467 -637v-223h373v-20h-373v-285h373v-21z" />
    <glyph glyph-name="brokenbar" unicode="&#xa6;" horiz-adv-x="600" 
d="M309 -266h-20v780h20v-780zM309 1571v-709h-20v709h20z" />
    <glyph glyph-name="section" unicode="&#xa7;" horiz-adv-x="1099" 
d="M100 94h21q6 -175 119.5 -277t310.5 -102q98 0 176 29t125 77t71.5 107t24.5 123q0 47 -9 83.5t-23 61.5t-40 43.5t-50 29t-62.5 19.5t-68 13t-78 10.5t-80.5 12.5q-122 17 -197 38t-122.5 54.5t-65 78.5t-17.5 115q0 219 248 264q-137 30 -188.5 90t-51.5 169
q0 140 97.5 225.5t308.5 85.5q108 0 186 -29t123 -84t66.5 -123t25.5 -157h-18q-14 180 -102 275t-281 95q-202 0 -293.5 -78t-91.5 -210q0 -45 7 -77t26 -58.5t45.5 -44.5t72 -34t99 -27.5t133.5 -25.5q29 -5 77.5 -11t78 -9.5t71.5 -13t67.5 -21t54.5 -32.5t45 -48t27 -68
t11 -92q0 -192 -170 -272q40 -20 64 -36.5t48.5 -44.5t36 -69t11.5 -98q0 -69 -25 -131t-74 -113.5t-131.5 -81.5t-187.5 -30q-212 0 -329 109.5t-122 289.5zM774 307q93 37 137.5 106t44.5 158q0 59 -11.5 101.5t-38 69t-56.5 42t-79 25.5t-92.5 15.5t-111 15t-121.5 20.5
q-154 -13 -222 -76.5t-68 -173.5q0 -128 76.5 -179t306.5 -85q16 -3 106 -16.5t129 -22.5z" />
    <glyph glyph-name="dieresis" unicode="&#xa8;" horiz-adv-x="739" 
d="M168 1298h-35v152h35v-152zM606 1298h-37v152h37v-152z" />
    <glyph glyph-name="copyright" unicode="&#xa9;" horiz-adv-x="1447" 
d="M723 -18q-183 0 -339.5 98t-247.5 266t-91 365t91 365t247.5 266t339.5 98q139 0 265 -58t217 -156t144.5 -232.5t53.5 -282.5t-53.5 -282.5t-144.5 -232.5t-217 -156t-265 -58zM723 2q135 0 257.5 56t210 151t139.5 226t52 276q0 143 -52 274t-139.5 225.5t-210 150.5
t-257.5 56q-132 0 -253.5 -56t-210 -150.5t-141 -225.5t-52.5 -274q0 -193 89 -356.5t240.5 -258t327.5 -94.5zM973 637h22q-10 -96 -84 -156.5t-178 -60.5q-127 0 -195.5 75t-68.5 205q0 143 68.5 220t201.5 77q111 0 181.5 -57t76.5 -152h-22q-10 92 -73.5 139.5
t-162.5 47.5q-121 0 -184 -70t-63 -205q0 -122 62.5 -190t178.5 -68q94 0 161 51t79 144z" />
    <glyph glyph-name="ordfeminine" unicode="&#xaa;" horiz-adv-x="712" 
d="M586 637h-21v131q-26 -64 -94 -105.5t-156 -41.5q-202 0 -202 167q0 59 33 97t82.5 52.5t107.5 22t108 8t84.5 8.5t36.5 25q0 107 -46.5 158t-158.5 51q-111 0 -158.5 -46.5t-49.5 -141.5h-21q3 211 229 211q123 0 174.5 -58t51.5 -174v-364zM565 840v129
q-18 -11 -71.5 -15.5t-111.5 -8.5t-115.5 -15.5t-94.5 -47t-37 -94.5q0 -73 41.5 -110t138.5 -37q94 0 168.5 53t81.5 146z" />
    <glyph glyph-name="guillemotleft" unicode="&#xab;" horiz-adv-x="966" 
d="M373 309l-273 369l273 371l16 -19l-262 -350l262 -352zM836 309l-273 369l273 371l16 -19l-262 -350l262 -352z" />
    <glyph glyph-name="logicalnot" unicode="&#xac;" horiz-adv-x="1214" 
d="M1118 0h-20v1030h-1004v21h1024v-1051z" />
    <glyph glyph-name="sfthyphen" unicode="&#xad;" horiz-adv-x="647" 
d="M561 649h-475v21h475v-21z" />
    <glyph glyph-name="registered" unicode="&#xae;" horiz-adv-x="1447" 
d="M975 352h-21v191q0 72 -38 107.5t-138 35.5h-286v-334h-23v711h322q94 0 147 -49.5t53 -134.5q0 -69 -40.5 -120t-112.5 -61q137 -12 137 -155v-191zM492 707h286q97 0 144 48.5t47 123.5q0 79 -45 121t-133 42h-299v-335zM723 -18q-183 0 -339.5 98t-247.5 266t-91 365
t91 365t247.5 266t339.5 98q139 0 265 -58t217 -156t144.5 -232.5t53.5 -282.5t-53.5 -282.5t-144.5 -232.5t-217 -156t-265 -58zM723 2q135 0 257.5 56t210 151t139.5 226t52 276q0 143 -52 274t-139.5 225.5t-210 150.5t-257.5 56q-132 0 -253.5 -56t-210 -150.5
t-141 -225.5t-52.5 -274q0 -193 89 -356.5t240.5 -258t327.5 -94.5z" />
    <glyph glyph-name="macron" unicode="&#xaf;" horiz-adv-x="997" 
d="M864 1380h-731v21h731v-21z" />
    <glyph glyph-name="degree" unicode="&#xb0;" horiz-adv-x="858" 
d="M428 758q-164 0 -244 94t-80 246t79.5 245t244.5 93q164 0 244 -93t80 -245q0 -151 -80.5 -245.5t-243.5 -94.5zM428 780q153 0 228 87.5t75 230.5q0 141 -75 228t-228 87t-227 -86.5t-74 -228.5q0 -143 74 -230.5t227 -87.5z" />
    <glyph glyph-name="plusminus" unicode="&#xb1;" horiz-adv-x="1087" 
d="M553 283h-21v440h-442v22h442v443h21v-443h442v-22h-442v-440zM995 145h-905v23h905v-23z" />
    <glyph glyph-name="twosuperior" unicode="&#xb2;" horiz-adv-x="630" 
d="M535 733h-441q0 103 48 174t175 146q111 65 139 90q51 44 54 115v12q0 176 -188 176q-193 0 -199 -238h-21q0 131 57.5 194.5t162.5 63.5q96 0 153 -48t57 -148q0 -45 -11 -77t-41.5 -60.5t-59 -46.5t-90.5 -52q-119 -68 -167 -131.5t-50 -148.5h422v-21z" />
    <glyph glyph-name="threesuperior" unicode="&#xb3;" horiz-adv-x="630" 
d="M330 1098h-72v20h72q45 0 78.5 16t51.5 41.5t27 53t9 55.5q0 75 -52.5 118.5t-132.5 43.5q-90 0 -137 -52t-47 -153h-23q0 109 52.5 167t154.5 58q88 0 145.5 -48t57.5 -134q0 -59 -30 -108t-91 -66q67 -12 104.5 -61.5t37.5 -120.5q0 -102 -63 -161.5t-167 -59.5
q-103 0 -157 62t-54 173h21q0 -103 49.5 -159t140.5 -56q97 0 152 53t55 148q0 75 -45 122.5t-137 47.5z" />
    <glyph glyph-name="acute" unicode="&#xb4;" horiz-adv-x="753" 
d="M621 1536l-482 -352l-6 12l471 363z" />
    <glyph glyph-name="paragraph" unicode="&#xb6;" horiz-adv-x="997" 
d="M846 -213h-23v1657h-405v-1657h-21v1192q-88 2 -150.5 25.5t-93 61t-43 75.5t-12.5 80q0 108 80 175.5t238 67.5h514l-84 -20v-1657z" />
    <glyph glyph-name="periodcentered" unicode="&#xb7;" horiz-adv-x="380" 
d="M207 662h-37v151h37v-151z" />
    <glyph glyph-name="cedilla" unicode="&#xb8;" horiz-adv-x="301" 
d="M133 -498v23q25 11 25 121h-25v131h35v-111q0 -73 -7 -113.5t-28 -50.5z" />
    <glyph glyph-name="onesuperior" unicode="&#xb9;" horiz-adv-x="587" 
d="M315 733h-20v567h-133v21h104q29 0 29 27v96h20v-711z" />
    <glyph glyph-name="ordmasculine" unicode="&#xba;" horiz-adv-x="770" 
d="M387 621q-127 0 -199.5 83.5t-72.5 219.5q0 141 74 225t198 84q123 0 194.5 -84t71.5 -225q0 -136 -72 -219.5t-194 -83.5zM387 641q114 0 180 77t66 206q0 135 -65 210.5t-181 75.5t-183 -76t-67 -210q0 -129 67 -206t183 -77z" />
    <glyph glyph-name="guillemotright" unicode="&#xbb;" horiz-adv-x="966" 
d="M131 309l-16 19l264 352l-264 350l16 19l272 -371zM594 309l-16 19l264 352l-264 350l16 19l272 -371z" />
    <glyph glyph-name="onequarter" unicode="&#xbc;" horiz-adv-x="1259" 
d="M233 733h-20v567h-133v21h104q29 0 29 27v96h20v-711zM100 -43h-26l991 1503h27zM1118 -20h-22v182h-359v22l355 506h26v-506h70v-22h-70v-182zM1096 184v473l-334 -473h334z" />
    <glyph glyph-name="onehalf" unicode="&#xbd;" horiz-adv-x="1288" 
d="M233 733h-20v567h-133v21h104q29 0 29 27v96h20v-711zM100 -43h-26l991 1503h27zM1217 -20h-441q0 103 48 173.5t175 145.5q111 65 139 90q51 44 54 115v12q0 176 -188 176q-193 0 -199 -237h-21q0 131 57.5 194.5t162.5 63.5q96 0 153 -48.5t57 -148.5q0 -30 -5 -54.5
t-18.5 -45.5t-26 -35.5t-41 -33.5t-49 -31t-62.5 -35q-119 -68 -167 -132t-50 -149h422v-20z" />
    <glyph glyph-name="threequarters" unicode="&#xbe;" horiz-adv-x="1253" 
d="M307 1098h-71v20h71q45 0 78.5 16t51.5 41.5t27 53t9 55.5q0 76 -52.5 119t-131.5 43q-90 0 -137.5 -52t-47.5 -153h-22q0 109 52.5 167t154.5 58q88 0 145.5 -48t57.5 -134q0 -59 -30 -108t-91 -66q67 -12 104 -61.5t37 -120.5q0 -102 -62.5 -161.5t-166.5 -59.5
q-103 0 -157 62t-54 173h20q0 -103 50 -159t141 -56q97 0 151.5 53t54.5 148q0 75 -45 122.5t-137 47.5zM117 -43h-27l991 1503h27zM1112 -20h-22v182h-359v22l354 506h27v-506h70v-22h-70v-182zM1090 184v473l-334 -473h334z" />
    <glyph glyph-name="questiondown" unicode="&#xbf;" horiz-adv-x="1069" 
d="M524 1137h23v-52q0 -142 -51 -241.5t-164 -167.5q-105 -62 -160 -138.5t-55 -199.5q0 -365 426 -365q187 0 299 116t112 323h21q0 -215 -114 -337t-318 -122q-216 0 -331.5 95t-115.5 290q0 87 28.5 155t76 114t121.5 89q107 61 154.5 156t47.5 233v52zM518 1417h37v-151
h-37v151z" />
    <glyph glyph-name="Agrave" unicode="&#xc0;" horiz-adv-x="1220" 
d="M1217 0h-25l-170 399h-825l-168 -399h-25l602 1417h10zM1014 420l-402 954l-405 -954h807zM786 1550l-481 353l17 22l471 -362z" />
    <glyph glyph-name="Aacute" unicode="&#xc1;" horiz-adv-x="1220" 
d="M1217 0h-25l-170 399h-825l-168 -399h-25l602 1417h10zM1014 420l-402 954l-405 -954h807zM922 1903l-482 -353l-6 13l471 362z" />
    <glyph glyph-name="Acircumflex" unicode="&#xc2;" horiz-adv-x="1220" 
d="M1217 0h-25l-170 399h-825l-168 -399h-25l602 1417h10zM1014 420l-402 954l-405 -954h807zM963 1575l-15 -10l-334 370l-335 -370l-13 10l334 385h27z" />
    <glyph glyph-name="Atilde" unicode="&#xc3;" horiz-adv-x="1220" 
d="M1217 0h-25l-170 399h-825l-168 -399h-25l602 1417h10zM1014 420l-402 954l-405 -954h807zM932 1806l18 -8q-37 -73 -84 -104t-112 -31q-32 0 -63 14.5t-56.5 34.5t-51 40.5t-54 35t-56.5 14.5q-115 0 -178 -123l-19 9q37 73 84.5 104t112.5 31q36 0 75.5 -22t68.5 -48
t66.5 -48t70.5 -22q115 0 178 123z" />
    <glyph glyph-name="Adieresis" unicode="&#xc4;" horiz-adv-x="1220" 
d="M1217 0h-25l-170 399h-825l-168 -399h-25l602 1417h10zM1014 420l-402 954l-405 -954h807zM412 1665h-35v152h35v-152zM850 1665h-37v152h37v-152z" />
    <glyph glyph-name="Aring" unicode="&#xc5;" horiz-adv-x="1220" 
d="M1217 0h-25l-170 399h-825l-168 -399h-25l602 1417h10zM1014 420l-402 954l-405 -954h807zM614 1550q-198 0 -198 205t198 205q201 0 201 -205q0 -104 -47.5 -154.5t-153.5 -50.5zM614 1571q94 0 136.5 45.5t42.5 138.5q0 91 -43 136.5t-136 45.5q-178 0 -178 -182
q0 -184 178 -184z" />
    <glyph glyph-name="AE" unicode="&#xc6;" horiz-adv-x="1757" 
d="M1698 0h-860v406h-652l-155 -406h-27l549 1417h1114v-20h-809v-639h756v-21h-756v-717h840v-20zM838 428v969h-271l-372 -969h643z" />
    <glyph glyph-name="Ccedilla" unicode="&#xc7;" horiz-adv-x="1304" 
d="M1204 487h21q-40 -249 -184.5 -392.5t-366.5 -143.5q-126 0 -232.5 48t-186 139.5t-124.5 235t-45 324.5q0 352 160.5 559t435.5 207q116 0 214.5 -39.5t166.5 -109t110 -162.5t52 -201h-21q-22 218 -162.5 355t-359.5 137q-263 0 -419.5 -201.5t-156.5 -544.5
q0 -175 43.5 -315t120.5 -229t179 -136t221 -47q209 0 347.5 136.5t186.5 379.5zM655 -498v23q25 11 25 121h-25v131h35v-111q0 -73 -7 -113.5t-28 -50.5z" />
    <glyph glyph-name="Egrave" unicode="&#xc8;" horiz-adv-x="1204" 
d="M1126 0h-966v1417h938v-20h-916v-639h862v-21h-862v-717h944v-20zM817 1550l-481 353l16 22l471 -362z" />
    <glyph glyph-name="Eacute" unicode="&#xc9;" horiz-adv-x="1204" 
d="M1126 0h-966v1417h938v-20h-916v-639h862v-21h-862v-717h944v-20zM930 1903l-481 -353l-7 13l471 362z" />
    <glyph glyph-name="Ecircumflex" unicode="&#xca;" horiz-adv-x="1204" 
d="M1126 0h-966v1417h938v-20h-916v-639h862v-21h-862v-717h944v-20zM993 1575l-14 -10l-334 370l-336 -370l-12 10l334 385h26z" />
    <glyph glyph-name="Edieresis" unicode="&#xcb;" horiz-adv-x="1204" 
d="M1126 0h-966v1417h938v-20h-916v-639h862v-21h-862v-717h944v-20zM432 1665h-35v152h35v-152zM870 1665h-36v152h36v-152z" />
    <glyph glyph-name="Igrave" unicode="&#xcc;" horiz-adv-x="358" 
d="M190 0h-22v1417h22v-1417zM354 1550l-481 353l16 22l471 -362z" />
    <glyph glyph-name="Iacute" unicode="&#xcd;" horiz-adv-x="358" 
d="M190 0h-22v1417h22v-1417zM487 1903l-481 -353l-6 13l471 362z" />
    <glyph glyph-name="Icircumflex" unicode="&#xce;" horiz-adv-x="358" 
d="M190 0h-22v1417h22v-1417zM528 1575l-14 -10l-334 370l-336 -370l-12 10l334 385h27z" />
    <glyph glyph-name="Idieresis" unicode="&#xcf;" horiz-adv-x="358" 
d="M190 0h-22v1417h22v-1417zM-23 1665h-34v152h34v-152zM416 1665h-37v152h37v-152z" />
    <glyph glyph-name="Eth" unicode="&#xd0;" horiz-adv-x="1214" 
d="M590 0h-535v700h-45v21h45v696h494q264 0 428 -187.5t164 -506.5q0 -324 -152 -523.5t-399 -199.5zM78 20h512q236 0 382 194.5t146 508.5q0 311 -157.5 492.5t-411.5 181.5h-471v-676h440v-21h-440v-680z" />
    <glyph glyph-name="Ntilde" unicode="&#xd1;" horiz-adv-x="1353" 
d="M1198 0h-27l-991 1393v-1393h-22v1417h30l988 -1388v1388h22v-1417zM1006 1806l18 -8q-37 -73 -84.5 -104t-112.5 -31q-38 0 -77.5 21.5t-67.5 48t-64.5 48t-70.5 21.5q-115 0 -178 -123l-19 9q37 73 84.5 104t112.5 31q36 0 75.5 -22t68 -48t66 -48t70.5 -22
q116 0 179 123z" />
    <glyph glyph-name="Ograve" unicode="&#xd2;" horiz-adv-x="1372" 
d="M690 -49q-300 0 -458 191t-158 554q0 361 161.5 564.5t454.5 203.5q291 0 449.5 -204t158.5 -570q0 -368 -155 -553.5t-453 -185.5zM690 -29q289 0 437.5 180.5t148.5 538.5q0 356 -152.5 555t-433.5 199q-284 0 -439 -197.5t-155 -550.5q0 -354 152.5 -539.5
t441.5 -185.5zM860 1550l-481 353l16 22l471 -362z" />
    <glyph glyph-name="Oacute" unicode="&#xd3;" horiz-adv-x="1372" 
d="M690 -49q-300 0 -458 191t-158 554q0 361 161.5 564.5t454.5 203.5q291 0 449.5 -204t158.5 -570q0 -368 -155 -553.5t-453 -185.5zM690 -29q289 0 437.5 180.5t148.5 538.5q0 356 -152.5 555t-433.5 199q-284 0 -439 -197.5t-155 -550.5q0 -354 152.5 -539.5
t441.5 -185.5zM993 1903l-481 -353l-6 13l471 362z" />
    <glyph glyph-name="Ocircumflex" unicode="&#xd4;" horiz-adv-x="1372" 
d="M690 -49q-300 0 -458 191t-158 554q0 361 161.5 564.5t454.5 203.5q291 0 449.5 -204t158.5 -570q0 -368 -155 -553.5t-453 -185.5zM690 -29q289 0 437.5 180.5t148.5 538.5q0 356 -152.5 555t-433.5 199q-284 0 -439 -197.5t-155 -550.5q0 -354 152.5 -539.5
t441.5 -185.5zM1034 1575l-14 -10l-334 370l-336 -370l-12 10l334 385h26z" />
    <glyph glyph-name="Otilde" unicode="&#xd5;" horiz-adv-x="1372" 
d="M690 -49q-300 0 -458 191t-158 554q0 361 161.5 564.5t454.5 203.5q291 0 449.5 -204t158.5 -570q0 -368 -155 -553.5t-453 -185.5zM690 -29q289 0 437.5 180.5t148.5 538.5q0 356 -152.5 555t-433.5 199q-284 0 -439 -197.5t-155 -550.5q0 -354 152.5 -539.5
t441.5 -185.5zM1004 1806l18 -8q-37 -73 -84.5 -104t-112.5 -31q-38 0 -77.5 21.5t-67.5 48t-64.5 48t-70.5 21.5q-115 0 -178 -123l-19 9q37 73 84.5 104t112.5 31q36 0 75.5 -22t68 -48t66 -48t70.5 -22q116 0 179 123z" />
    <glyph glyph-name="Odieresis" unicode="&#xd6;" horiz-adv-x="1372" 
d="M690 -49q-300 0 -458 191t-158 554q0 361 161.5 564.5t454.5 203.5q291 0 449.5 -204t158.5 -570q0 -368 -155 -553.5t-453 -185.5zM690 -29q289 0 437.5 180.5t148.5 538.5q0 356 -152.5 555t-433.5 199q-284 0 -439 -197.5t-155 -550.5q0 -354 152.5 -539.5
t441.5 -185.5zM483 1665h-34v152h34v-152zM922 1665h-37v152h37v-152z" />
    <glyph glyph-name="multiply" unicode="&#xd7;" horiz-adv-x="1036" 
d="M844 422l-15 -14l-313 311l-311 -311l-15 14l312 313l-312 312l15 14l311 -311l313 311l15 -14l-312 -312z" />
    <glyph glyph-name="Oslash" unicode="&#xd8;" horiz-adv-x="1368" 
d="M281 -88l-23 8l70 135q-256 185 -256 641q0 361 161.5 564.5t454.5 203.5q188 0 318 -84l77 146l21 -8l-80 -152q272 -187 272 -676q0 -368 -155 -553.5t-453 -185.5q-203 0 -342 92zM1016 1348l-660 -1287q137 -90 332 -90q289 0 437.5 180.5t148.5 538.5
q0 476 -258 658zM338 74l659 1286q-134 84 -309 84q-284 0 -439 -197.5t-155 -550.5q0 -439 244 -622z" />
    <glyph glyph-name="Ugrave" unicode="&#xd9;" horiz-adv-x="1331" 
d="M1157 471v946h23v-946q0 -255 -136.5 -387.5t-390.5 -132.5q-236 0 -368.5 126.5t-132.5 377.5v962h20v-962q0 -240 126 -362t355 -122q247 0 375.5 126t128.5 374zM838 1550l-482 353l17 22l471 -362z" />
    <glyph glyph-name="Uacute" unicode="&#xda;" horiz-adv-x="1331" 
d="M1157 471v946h23v-946q0 -255 -136.5 -387.5t-390.5 -132.5q-236 0 -368.5 126.5t-132.5 377.5v962h20v-962q0 -240 126 -362t355 -122q247 0 375.5 126t128.5 374zM973 1903l-481 -353l-7 13l471 362z" />
    <glyph glyph-name="Ucircumflex" unicode="&#xdb;" horiz-adv-x="1331" 
d="M1157 471v946h23v-946q0 -255 -136.5 -387.5t-390.5 -132.5q-236 0 -368.5 126.5t-132.5 377.5v962h20v-962q0 -240 126 -362t355 -122q247 0 375.5 126t128.5 374zM1014 1575l-15 -10l-333 370l-336 -370l-13 10l334 385h27z" />
    <glyph glyph-name="Udieresis" unicode="&#xdc;" horiz-adv-x="1331" 
d="M1157 471v946h23v-946q0 -255 -136.5 -387.5t-390.5 -132.5q-236 0 -368.5 126.5t-132.5 377.5v962h20v-962q0 -240 126 -362t355 -122q247 0 375.5 126t128.5 374zM463 1665h-35v152h35v-152zM901 1665h-37v152h37v-152z" />
    <glyph glyph-name="Yacute" unicode="&#xdd;" horiz-adv-x="1136" 
d="M580 0h-23v625l-557 792h29l538 -770l541 770h29l-557 -792v-625zM877 1903l-482 -353l-6 13l471 362z" />
    <glyph glyph-name="Thorn" unicode="&#xde;" horiz-adv-x="1206" 
d="M764 322h-582v-322h-22v1417h22v-250h590q156 0 258.5 -124t102.5 -304q0 -182 -103 -299.5t-266 -117.5zM182 344h582q153 0 249.5 111t96.5 284q0 169 -97 288.5t-241 119.5h-590v-803z" />
    <glyph glyph-name="germandbls" unicode="&#xdf;" horiz-adv-x="1146" 
d="M500 -18v20q68 -12 116 -12q184 0 291 124.5t107 319.5q0 163 -108 257.5t-310 94.5h-43v21h43q181 0 263.5 76t82.5 223q0 142 -98.5 231.5t-290.5 89.5q-197 0 -299 -98t-102 -266v-1063h-21v1063q0 179 107 283t315 104q202 0 306 -96t104 -248q0 -147 -73 -221.5
t-202 -87.5q68 -6 129 -32t110.5 -70t79 -111.5t29.5 -149.5q0 -206 -113.5 -336.5t-308.5 -130.5q-52 0 -114 15z" />
    <glyph glyph-name="agrave" unicode="&#xe0;" horiz-adv-x="1046" 
d="M918 0h-21v291q-26 -135 -159 -227.5t-304 -92.5q-364 0 -364 299q0 84 28 142.5t86.5 93.5t131.5 53.5t180 28.5q40 3 89.5 5t83.5 3.5t72 4t63 6.5t46.5 11t33 18.5t13.5 27.5q0 197 -87.5 295t-295.5 98q-201 0 -294 -89.5t-99 -258.5h-21q10 370 414 370
q218 0 311 -103.5t93 -311.5v-664zM897 365v264q-10 -18 -33.5 -28.5t-64.5 -15.5t-80.5 -7t-105 -5.5t-115.5 -7.5q-102 -10 -169.5 -25t-125 -47t-84.5 -87t-27 -136q0 -276 342 -276q64 0 127.5 14.5t122 45.5t104.5 74t75 104.5t34 132.5zM696 1184l-481 352l16 23
l471 -363z" />
    <glyph glyph-name="aacute" unicode="&#xe1;" horiz-adv-x="1046" 
d="M918 0h-21v291q-26 -135 -159 -227.5t-304 -92.5q-364 0 -364 299q0 84 28 142.5t86.5 93.5t131.5 53.5t180 28.5q40 3 89.5 5t83.5 3.5t72 4t63 6.5t46.5 11t33 18.5t13.5 27.5q0 197 -87.5 295t-295.5 98q-201 0 -294 -89.5t-99 -258.5h-21q10 370 414 370
q218 0 311 -103.5t93 -311.5v-664zM897 365v264q-10 -18 -33.5 -28.5t-64.5 -15.5t-80.5 -7t-105 -5.5t-115.5 -7.5q-102 -10 -169.5 -25t-125 -47t-84.5 -87t-27 -136q0 -276 342 -276q64 0 127.5 14.5t122 45.5t104.5 74t75 104.5t34 132.5zM829 1536l-481 -352l-6 12
l471 363z" />
    <glyph glyph-name="acircumflex" unicode="&#xe2;" horiz-adv-x="1046" 
d="M918 0h-21v291q-26 -135 -159 -227.5t-304 -92.5q-364 0 -364 299q0 84 28 142.5t86.5 93.5t131.5 53.5t180 28.5q40 3 89.5 5t83.5 3.5t72 4t63 6.5t46.5 11t33 18.5t13.5 27.5q0 197 -87.5 295t-295.5 98q-201 0 -294 -89.5t-99 -258.5h-21q10 370 414 370
q218 0 311 -103.5t93 -311.5v-664zM897 365v264q-10 -18 -33.5 -28.5t-64.5 -15.5t-80.5 -7t-105 -5.5t-115.5 -7.5q-102 -10 -169.5 -25t-125 -47t-84.5 -87t-27 -136q0 -276 342 -276q64 0 127.5 14.5t122 45.5t104.5 74t75 104.5t34 132.5zM872 1208l-14 -10l-334 371
l-336 -371l-12 10l334 385h27z" />
    <glyph glyph-name="atilde" unicode="&#xe3;" horiz-adv-x="1046" 
d="M918 0h-21v291q-26 -135 -159 -227.5t-304 -92.5q-364 0 -364 299q0 84 28 142.5t86.5 93.5t131.5 53.5t180 28.5q40 3 89.5 5t83.5 3.5t72 4t63 6.5t46.5 11t33 18.5t13.5 27.5q0 197 -87.5 295t-295.5 98q-201 0 -294 -89.5t-99 -258.5h-21q10 370 414 370
q218 0 311 -103.5t93 -311.5v-664zM897 365v264q-10 -18 -33.5 -28.5t-64.5 -15.5t-80.5 -7t-105 -5.5t-115.5 -7.5q-102 -10 -169.5 -25t-125 -47t-84.5 -87t-27 -136q0 -276 342 -276q64 0 127.5 14.5t122 45.5t104.5 74t75 104.5t34 132.5zM842 1440l18 -8
q-37 -73 -84 -104.5t-112 -31.5q-38 0 -78 22t-67.5 48t-64.5 48t-71 22q-115 0 -178 -123l-19 8q37 73 84.5 104t112.5 31q36 0 75.5 -21.5t68.5 -48t66.5 -48t70.5 -21.5q115 0 178 123z" />
    <glyph glyph-name="adieresis" unicode="&#xe4;" horiz-adv-x="1046" 
d="M918 0h-21v291q-26 -135 -159 -227.5t-304 -92.5q-364 0 -364 299q0 84 28 142.5t86.5 93.5t131.5 53.5t180 28.5q40 3 89.5 5t83.5 3.5t72 4t63 6.5t46.5 11t33 18.5t13.5 27.5q0 197 -87.5 295t-295.5 98q-201 0 -294 -89.5t-99 -258.5h-21q10 370 414 370
q218 0 311 -103.5t93 -311.5v-664zM897 365v264q-10 -18 -33.5 -28.5t-64.5 -15.5t-80.5 -7t-105 -5.5t-115.5 -7.5q-102 -10 -169.5 -25t-125 -47t-84.5 -87t-27 -136q0 -276 342 -276q64 0 127.5 14.5t122 45.5t104.5 74t75 104.5t34 132.5zM311 1298h-35v152h35v-152z
M750 1298h-37v152h37v-152z" />
    <glyph glyph-name="aring" unicode="&#xe5;" horiz-adv-x="1046" 
d="M918 0h-21v291q-26 -135 -159 -227.5t-304 -92.5q-364 0 -364 299q0 84 28 142.5t86.5 93.5t131.5 53.5t180 28.5q40 3 89.5 5t83.5 3.5t72 4t63 6.5t46.5 11t33 18.5t13.5 27.5q0 197 -87.5 295t-295.5 98q-201 0 -294 -89.5t-99 -258.5h-21q10 370 414 370
q218 0 311 -103.5t93 -311.5v-664zM897 365v264q-10 -18 -33.5 -28.5t-64.5 -15.5t-80.5 -7t-105 -5.5t-115.5 -7.5q-102 -10 -169.5 -25t-125 -47t-84.5 -87t-27 -136q0 -276 342 -276q64 0 127.5 14.5t122 45.5t104.5 74t75 104.5t34 132.5zM522 1184q-198 0 -198 205
q0 204 198 204q201 0 201 -204q0 -104 -47.5 -154.5t-153.5 -50.5zM522 1204q93 0 135.5 46t42.5 139q0 91 -42.5 136.5t-135.5 45.5q-178 0 -178 -182q0 -185 178 -185z" />
    <glyph glyph-name="ae" unicode="&#xe6;" horiz-adv-x="1845" 
d="M1759 309h27q-44 -161 -153 -249.5t-263 -88.5q-191 0 -301.5 93.5t-153.5 287.5q-20 -169 -154 -275t-327 -106q-364 0 -364 299q0 83 28 141.5t86.5 94t132 54t179.5 28.5q40 3 89.5 5t84 3t72 3t62.5 6t46.5 11t33 19t13.5 29q0 197 -87.5 295t-295.5 98
q-201 0 -294 -89.5t-99 -258.5h-21q10 370 414 370q201 0 295 -91.5t106 -278.5q37 180 151 275t290 95q212 0 328 -151t116 -396h-882q6 -538 452 -538q143 0 245 81.5t144 233.5zM897 365v264q-10 -18 -33.5 -28.5t-64.5 -15.5t-80.5 -7t-105 -5.5t-115.5 -7.5
q-102 -10 -169.5 -25t-125 -47t-84.5 -87t-27 -136q0 -276 342 -276q64 0 127.5 14.5t122 45.5t104.5 74t75 104.5t34 132.5zM918 553h860q-5 231 -113.5 367.5t-308.5 136.5q-208 0 -323 -136t-115 -368z" />
    <glyph glyph-name="ccedilla" unicode="&#xe7;" horiz-adv-x="1001" 
d="M918 381h22q-22 -183 -142 -296.5t-292 -113.5q-198 0 -317 146.5t-119 421.5q0 272 118 406t324 134q187 0 301.5 -109t128.5 -296h-24q-13 185 -121.5 284t-284.5 99q-197 0 -308.5 -128.5t-111.5 -389.5q0 -264 111.5 -404.5t302.5 -140.5q161 0 276.5 105t135.5 282z
M494 -498v23q24 10 24 121h-24v131h34v-111q0 -74 -6.5 -114t-27.5 -50z" />
    <glyph glyph-name="egrave" unicode="&#xe8;" horiz-adv-x="1015" 
d="M934 309h24q-43 -161 -151 -249.5t-262 -88.5q-475 0 -475 574q0 246 122 390t338 144q211 0 327 -151t116 -396h-881q6 -538 453 -538q142 0 243.5 81t145.5 234zM92 553h860q-5 231 -114 367.5t-308 136.5q-208 0 -323 -136t-115 -368zM680 1184l-481 352l16 23
l471 -363z" />
    <glyph glyph-name="eacute" unicode="&#xe9;" horiz-adv-x="1015" 
d="M934 309h24q-43 -161 -151 -249.5t-262 -88.5q-475 0 -475 574q0 246 122 390t338 144q211 0 327 -151t116 -396h-881q6 -538 453 -538q142 0 243.5 81t145.5 234zM92 553h860q-5 231 -114 367.5t-308 136.5q-208 0 -323 -136t-115 -368zM815 1536l-481 -352l-6 12
l471 363z" />
    <glyph glyph-name="ecircumflex" unicode="&#xea;" horiz-adv-x="1015" 
d="M934 309h24q-43 -161 -151 -249.5t-262 -88.5q-475 0 -475 574q0 246 122 390t338 144q211 0 327 -151t116 -396h-881q6 -538 453 -538q142 0 243.5 81t145.5 234zM92 553h860q-5 231 -114 367.5t-308 136.5q-208 0 -323 -136t-115 -368zM868 1208l-14 -10l-334 371
l-336 -371l-12 10l334 385h26z" />
    <glyph glyph-name="edieresis" unicode="&#xeb;" horiz-adv-x="1015" 
d="M934 309h24q-43 -161 -151 -249.5t-262 -88.5q-475 0 -475 574q0 246 122 390t338 144q211 0 327 -151t116 -396h-881q6 -538 453 -538q142 0 243.5 81t145.5 234zM92 553h860q-5 231 -114 367.5t-308 136.5q-208 0 -323 -136t-115 -368zM317 1298h-34v152h34v-152z
M756 1298h-37v152h37v-152z" />
    <glyph glyph-name="igrave" unicode="&#xec;" horiz-adv-x="522" 
d="M319 0h-20v1051h20v-1051zM481 1184l-481 352l16 23l471 -363z" />
    <glyph glyph-name="iacute" unicode="&#xed;" horiz-adv-x="507" 
d="M211 0h-21v1051h21v-1051zM508 1536l-481 -352l-7 12l472 363z" />
    <glyph glyph-name="icircumflex" unicode="&#xee;" horiz-adv-x="696" 
d="M358 0h-20v1051h20v-1051zM696 1208l-14 -10l-334 371l-336 -371l-12 10l334 385h26z" />
    <glyph glyph-name="idieresis" unicode="&#xef;" horiz-adv-x="473" 
d="M248 0h-21v1051h21v-1051zM35 1298h-35v152h35v-152zM473 1298h-37v152h37v-152z" />
    <glyph glyph-name="eth" unicode="&#xf0;" horiz-adv-x="1058" 
d="M936 1427l-168 -110q103 -131 162 -328.5t59 -382.5q0 -141 -26 -252.5t-68.5 -182t-100.5 -117t-118 -65t-125 -18.5q-125 0 -219.5 41.5t-150.5 116.5t-83.5 171t-27.5 214q0 234 116 376t332 142q142 0 268.5 -88t174.5 -215q-13 146 -69 304.5t-144 271.5l-289 -193
l-13 18l289 191q-56 68 -127 115h37q51 -32 111 -101l166 111zM967 606v15q-5 99 -70 189.5t-167 145t-210 54.5q-208 0 -318 -135t-110 -361q0 -112 26 -204.5t79.5 -164t143.5 -111.5t210 -40q62 0 119 18t112 63t95.5 112.5t65 175t24.5 243.5z" />
    <glyph glyph-name="ntilde" unicode="&#xf1;" horiz-adv-x="1116" 
d="M989 0h-22v680q0 89 -17.5 155.5t-48 108.5t-78 67.5t-101 35.5t-122.5 10q-89 0 -164 -30.5t-126.5 -82t-87.5 -120.5t-53 -144.5t-17 -155.5v-524h-21v1051h21v-369q20 107 68 186.5t111.5 124t130.5 65.5t138 21q93 0 160 -18t121 -61.5t81 -123t27 -196.5v-680z
M877 1440l18 -8q-37 -73 -84.5 -104.5t-112.5 -31.5q-38 0 -77.5 22t-67.5 48t-64.5 48t-70.5 22q-115 0 -178 -123l-19 8q37 73 84.5 104t112.5 31q36 0 75.5 -21.5t68 -48t66 -48t70.5 -21.5q116 0 179 123z" />
    <glyph glyph-name="ograve" unicode="&#xf2;" 
d="M557 -29q-226 0 -356.5 152.5t-130.5 400.5q0 252 132 403.5t355 151.5q222 0 351.5 -151t129.5 -404q0 -250 -130.5 -401.5t-350.5 -151.5zM557 -6q211 0 335 145t124 385q0 245 -123 389t-336 144q-214 0 -339.5 -146t-125.5 -387q0 -239 124.5 -384.5t340.5 -145.5z
M727 1184l-481 352l16 23l471 -363z" />
    <glyph glyph-name="oacute" unicode="&#xf3;" 
d="M557 -29q-226 0 -356.5 152.5t-130.5 400.5q0 252 132 403.5t355 151.5q222 0 351.5 -151t129.5 -404q0 -250 -130.5 -401.5t-350.5 -151.5zM557 -6q211 0 335 145t124 385q0 245 -123 389t-336 144q-214 0 -339.5 -146t-125.5 -387q0 -239 124.5 -384.5t340.5 -145.5z
M862 1536l-481 -352l-6 12l471 363z" />
    <glyph glyph-name="ocircumflex" unicode="&#xf4;" 
d="M557 -29q-226 0 -356.5 152.5t-130.5 400.5q0 252 132 403.5t355 151.5q222 0 351.5 -151t129.5 -404q0 -250 -130.5 -401.5t-350.5 -151.5zM557 -6q211 0 335 145t124 385q0 245 -123 389t-336 144q-214 0 -339.5 -146t-125.5 -387q0 -239 124.5 -384.5t340.5 -145.5z
M901 1208l-14 -10l-334 371l-336 -371l-12 10l334 385h26z" />
    <glyph glyph-name="otilde" unicode="&#xf5;" 
d="M557 -29q-226 0 -356.5 152.5t-130.5 400.5q0 252 132 403.5t355 151.5q222 0 351.5 -151t129.5 -404q0 -250 -130.5 -401.5t-350.5 -151.5zM557 -6q211 0 335 145t124 385q0 245 -123 389t-336 144q-214 0 -339.5 -146t-125.5 -387q0 -239 124.5 -384.5t340.5 -145.5z
M872 1440l19 -8q-37 -73 -84.5 -104.5t-112.5 -31.5q-38 0 -77.5 22t-67.5 48t-64.5 48t-70.5 22q-115 0 -178 -123l-19 8q37 73 84.5 104t112.5 31q36 0 75.5 -21.5t68 -48t66 -48t70.5 -21.5q115 0 178 123z" />
    <glyph glyph-name="odieresis" unicode="&#xf6;" 
d="M557 -29q-226 0 -356.5 152.5t-130.5 400.5q0 252 132 403.5t355 151.5q222 0 351.5 -151t129.5 -404q0 -250 -130.5 -401.5t-350.5 -151.5zM557 -6q211 0 335 145t124 385q0 245 -123 389t-336 144q-214 0 -339.5 -146t-125.5 -387q0 -239 124.5 -384.5t340.5 -145.5z
M352 1298h-35v152h35v-152zM791 1298h-37v152h37v-152z" />
    <glyph glyph-name="divide" unicode="&#xf7;" horiz-adv-x="1087" 
d="M995 723h-905v22h905v-22zM561 1022h-37v152h37v-152zM561 295h-37v151h37v-151z" />
    <glyph glyph-name="oslash" unicode="&#xf8;" horiz-adv-x="1099" 
d="M258 -121l-16 8l67 146q-117 64 -180 191.5t-63 299.5q0 252 132 403.5t355 151.5q128 0 229 -55l66 139l16 -8l-65 -139q115 -64 175 -191t60 -301q0 -250 -130.5 -401.5t-350.5 -151.5q-118 0 -225 49zM317 51l455 955q-102 51 -219 51q-214 0 -339.5 -146t-125.5 -387
q0 -165 59 -286.5t170 -186.5zM788 995l-452 -952q91 -49 217 -49q211 0 335 145t124 385q0 167 -57.5 287.5t-166.5 183.5z" />
    <glyph glyph-name="ugrave" unicode="&#xf9;" 
d="M979 0h-23v369q-17 -86 -51.5 -155t-78 -113.5t-97.5 -74.5t-107.5 -42.5t-109.5 -12.5q-92 0 -158.5 18t-119.5 61.5t-80 123.5t-27 197v680h20v-680q0 -111 25 -186.5t75.5 -116t113.5 -57.5t151 -17q89 0 163 30.5t125 82t87 120t52.5 143.5t16.5 154v527h23v-1051z
M727 1184l-481 352l16 23l471 -363z" />
    <glyph glyph-name="uacute" unicode="&#xfa;" 
d="M979 0h-23v369q-17 -86 -51.5 -155t-78 -113.5t-97.5 -74.5t-107.5 -42.5t-109.5 -12.5q-92 0 -158.5 18t-119.5 61.5t-80 123.5t-27 197v680h20v-680q0 -111 25 -186.5t75.5 -116t113.5 -57.5t151 -17q89 0 163 30.5t125 82t87 120t52.5 143.5t16.5 154v527h23v-1051z
M862 1536l-481 -352l-6 12l471 363z" />
    <glyph glyph-name="ucircumflex" unicode="&#xfb;" 
d="M979 0h-23v369q-17 -86 -51.5 -155t-78 -113.5t-97.5 -74.5t-107.5 -42.5t-109.5 -12.5q-92 0 -158.5 18t-119.5 61.5t-80 123.5t-27 197v680h20v-680q0 -111 25 -186.5t75.5 -116t113.5 -57.5t151 -17q89 0 163 30.5t125 82t87 120t52.5 143.5t16.5 154v527h23v-1051z
M901 1208l-14 -10l-334 371l-336 -371l-12 10l334 385h26z" />
    <glyph glyph-name="udieresis" unicode="&#xfc;" 
d="M979 0h-23v369q-17 -86 -51.5 -155t-78 -113.5t-97.5 -74.5t-107.5 -42.5t-109.5 -12.5q-92 0 -158.5 18t-119.5 61.5t-80 123.5t-27 197v680h20v-680q0 -111 25 -186.5t75.5 -116t113.5 -57.5t151 -17q89 0 163 30.5t125 82t87 120t52.5 143.5t16.5 154v527h23v-1051z
M352 1298h-35v152h35v-152zM791 1298h-37v152h37v-152z" />
    <glyph glyph-name="yacute" unicode="&#xfd;" horiz-adv-x="960" 
d="M287 -498h-29l215 502l-463 1047h29l448 -1018l435 1018h28zM799 1536l-482 -352l-6 12l471 363z" />
    <glyph glyph-name="thorn" unicode="&#xfe;" horiz-adv-x="1122" 
d="M158 -498h-21v1934h21v-754q16 90 52.5 161t81 114.5t99.5 71.5t106 39t103 11q205 0 329 -144.5t124 -414.5q0 -267 -123.5 -408t-329.5 -141q-65 0 -130.5 21.5t-129 65.5t-113 124.5t-69.5 186.5v-867zM600 -6q199 0 315.5 134t116.5 392q0 261 -118.5 399t-313.5 138
t-318.5 -140t-123.5 -393q0 -79 16 -154t51.5 -144t86 -120t125 -81.5t163.5 -30.5z" />
    <glyph glyph-name="ydieresis" unicode="&#xff;" horiz-adv-x="960" 
d="M287 -498h-29l215 502l-463 1047h29l448 -1018l435 1018h28zM285 1298h-35v152h35v-152zM723 1298h-37v152h37v-152z" />
    <glyph glyph-name="OE" unicode="&#x152;" horiz-adv-x="1990" 
d="M1911 0h-957q-122 -49 -264 -49q-300 0 -458 191t-158 554q0 361 161.5 564.5t454.5 203.5q143 0 254 -51v4h938v-20h-901q294 -157 315 -639h531v-21h-529v-47q0 -506 -299 -670h912v-20zM690 -29q289 0 437.5 180.5t148.5 538.5q0 356 -152.5 555t-433.5 199
q-284 0 -439 -197.5t-155 -550.5q0 -354 152.5 -539.5t441.5 -185.5z" />
    <glyph glyph-name="oe" unicode="&#x153;" horiz-adv-x="1968" 
d="M1878 309h27q-43 -161 -151.5 -249.5t-262.5 -88.5q-406 0 -467 420q-31 -195 -154 -307.5t-313 -112.5q-226 0 -356.5 152.5t-130.5 400.5q0 252 132 403.5t355 151.5q191 0 313 -108t154 -301q31 195 146.5 302t304.5 107q212 0 328 -151t116 -396h-881
q6 -538 453 -538q141 0 243 81.5t144 233.5zM557 -6q211 0 335 145t124 385q0 245 -123 389t-336 144q-214 0 -339.5 -146t-125.5 -387q0 -239 124.5 -384.5t340.5 -145.5zM1038 553h860q-5 231 -114 367.5t-309 136.5q-207 0 -322 -136t-115 -368z" />
    <glyph glyph-name="Ydieresis" unicode="&#x178;" horiz-adv-x="1136" 
d="M580 0h-23v625l-557 792h29l538 -770l541 770h29l-557 -792v-625zM367 1665h-35v152h35v-152zM805 1665h-37v152h37v-152z" />
    <glyph glyph-name="circumflex" unicode="&#x2c6;" horiz-adv-x="960" 
d="M829 1208l-14 -10l-334 371l-336 -371l-12 10l334 385h27z" />
    <glyph glyph-name="tilde" unicode="&#x2dc;" horiz-adv-x="940" 
d="M788 1440l19 -8q-37 -73 -84.5 -104.5t-112.5 -31.5q-38 0 -77.5 22t-67.5 48t-64.5 48t-70.5 22q-115 0 -178 -123l-19 8q37 73 84.5 104t112.5 31q36 0 75.5 -21.5t68 -48t66 -48t70.5 -21.5q115 0 178 123z" />
    <glyph glyph-name="uni2000" unicode="&#x2000;" horiz-adv-x="980" 
 />
    <glyph glyph-name="uni2001" unicode="&#x2001;" horiz-adv-x="1960" 
 />
    <glyph glyph-name="enspace" unicode="&#x2002;" horiz-adv-x="980" 
 />
    <glyph glyph-name="uni2003" unicode="&#x2003;" horiz-adv-x="1960" 
 />
    <glyph glyph-name="uni2004" unicode="&#x2004;" horiz-adv-x="653" 
 />
    <glyph glyph-name="uni2005" unicode="&#x2005;" horiz-adv-x="490" 
 />
    <glyph glyph-name="uni2006" unicode="&#x2006;" horiz-adv-x="326" 
 />
    <glyph glyph-name="uni2007" unicode="&#x2007;" horiz-adv-x="326" 
 />
    <glyph glyph-name="uni2008" unicode="&#x2008;" horiz-adv-x="245" 
 />
    <glyph glyph-name="uni2009" unicode="&#x2009;" horiz-adv-x="392" 
 />
    <glyph glyph-name="uni200A" unicode="&#x200a;" horiz-adv-x="108" 
 />
    <glyph glyph-name="hyphentwo" unicode="&#x2010;" horiz-adv-x="647" 
d="M561 649h-475v21h475v-21z" />
    <glyph glyph-name="uni2011" unicode="&#x2011;" horiz-adv-x="647" 
d="M561 649h-475v21h475v-21z" />
    <glyph glyph-name="figuredash" unicode="&#x2012;" horiz-adv-x="647" 
d="M561 649h-475v21h475v-21z" />
    <glyph glyph-name="endash" unicode="&#x2013;" horiz-adv-x="948" 
d="M862 649h-776v21h776v-21z" />
    <glyph glyph-name="emdash" unicode="&#x2014;" horiz-adv-x="1296" 
d="M1210 649h-1124v21h1124v-21z" />
    <glyph glyph-name="quoteleft" unicode="&#x2018;" horiz-adv-x="313" 
d="M174 1202v-20q-21 10 -28 50t-7 114v129h35v-152h-24q0 -111 24 -121z" />
    <glyph glyph-name="quoteright" unicode="&#x2019;" horiz-adv-x="313" 
d="M139 1182v20q25 11 25 121h-25v152h35v-129q0 -74 -7 -114t-28 -50z" />
    <glyph glyph-name="quotesinglbase" unicode="&#x201a;" horiz-adv-x="313" 
d="M139 -143v22q25 11 25 121h-25v152h35v-132q0 -72 -7 -112.5t-28 -50.5z" />
    <glyph glyph-name="quotedblleft" unicode="&#x201c;" horiz-adv-x="464" 
d="M174 1202v-20q-21 10 -28 50t-7 114v129h35v-152h-24q0 -111 24 -121zM324 1202v-20q-21 10 -28 50t-7 114v129h35v-152h-25q0 -110 25 -121z" />
    <glyph glyph-name="quotedblright" unicode="&#x201d;" horiz-adv-x="464" 
d="M139 1182v20q25 11 25 121h-25v152h35v-129q0 -74 -7 -114t-28 -50zM289 1182v20q24 10 24 121h-24v152h35v-129q0 -74 -7 -114t-28 -50z" />
    <glyph glyph-name="quotedblbase" unicode="&#x201e;" horiz-adv-x="464" 
d="M139 -143v22q25 11 25 121h-25v152h35v-132q0 -72 -7 -112.5t-28 -50.5zM289 -143v22q24 10 24 121h-24v152h35v-132q0 -72 -7 -112.5t-28 -50.5z" />
    <glyph glyph-name="bullet" unicode="&#x2022;" horiz-adv-x="737" 
d="M594 733q0 -86 -65.5 -142t-161.5 -56q-98 0 -164 56t-66 142q0 88 66 144.5t164 56.5t162.5 -56.5t64.5 -144.5z" />
    <glyph glyph-name="ellipsis" unicode="&#x2026;" horiz-adv-x="1081" 
d="M207 0h-37v152h37v-152zM557 0h-37v152h37v-152zM907 0h-37v152h37v-152z" />
    <glyph glyph-name="uni202F" unicode="&#x202f;" horiz-adv-x="392" 
 />
    <glyph glyph-name="guilsinglleft" unicode="&#x2039;" horiz-adv-x="503" 
d="M373 309l-273 369l273 371l16 -19l-262 -350l262 -352z" />
    <glyph glyph-name="guilsinglright" unicode="&#x203a;" horiz-adv-x="503" 
d="M131 309l-16 19l264 352l-264 350l16 19l272 -371z" />
    <glyph glyph-name="uni205F" unicode="&#x205f;" horiz-adv-x="490" 
 />
    <glyph glyph-name="Euro" unicode="&#x20ac;" horiz-adv-x="1118" 
d="M1110 227l20 -12q-73 -124 -194.5 -194t-269.5 -70q-144 0 -264.5 62.5t-205.5 192t-110 308.5h-96l4 23h90q-6 61 -6 127q0 96 8 172h-96l4 20h94q39 291 189 449.5t393 158.5q175 0 331 -106l-8 -19q-81 57 -156.5 81t-166.5 24q-235 0 -378.5 -152.5t-180.5 -435.5
h647l-10 -20h-642q-8 -71 -8 -172q0 -66 6 -127h498l-10 -23h-483q25 -174 106.5 -298.5t197 -184.5t253.5 -60q136 0 249 65.5t195 190.5z" />
    <glyph glyph-name="trademark" unicode="&#x2122;" horiz-adv-x="1511" 
d="M401 641h-20v756h-250v20h502v-20h-232v-756zM1382 641h-22v754l-270 -754l-283 754v-754h-21v776h39l265 -715l256 715h36v-776z" />
    <glyph glyph-name="uni25FC" unicode="&#x25fc;" horiz-adv-x="1054" 
d="M0 1055h1055v-1055h-1055v1055z" />
    </font>
</defs>
</svg>
