<?xml version="1.0" standalone="no"?>
<!DOCTYPE svg PUBLIC "-//W3C//DTD SVG 1.1//EN" "http://www.w3.org/Graphics/SVG/1.1/DTD/svg11.dtd" >
<svg xmlns="http://www.w3.org/2000/svg">
<metadata></metadata>
<defs>
<font id="ggx88light" horiz-adv-x="1183" >
<font-face units-per-em="2048" ascent="1550" descent="-498" />
<missing-glyph horiz-adv-x="593" />
<glyph horiz-adv-x="0" />
<glyph horiz-adv-x="682" />
<glyph horiz-adv-x="593" />
<glyph unicode=" "  horiz-adv-x="593" />
<glyph unicode="&#x09;" horiz-adv-x="593" />
<glyph unicode="&#xa0;" horiz-adv-x="593" />
<glyph unicode="!" horiz-adv-x="475" d="M317 0h-161v215h161v-215zM281 336h-84q-45 466 -45 950q0 122 4 131h163q0 -11 2.5 -105t2.5 -110q0 -365 -43 -866z" />
<glyph unicode="&#x22;" horiz-adv-x="755" d="M270 885h-131v532h131v-532zM616 885h-131v532h131v-532z" />
<glyph unicode="#" d="M696 545l39 329h-248l-41 -329h250zM731 0h-106l59 442h-250l-53 -442h-102l53 442h-213l12 103h213l41 329h-215l14 101h213l56 442h100l-53 -442h248l55 442h102l-53 -442h211l-14 -101h-209l-41 -329h213l-13 -103h-213z" />
<glyph unicode="$" d="M647 -117h-104v84q-214 19 -315 127t-107 326h139q10 -168 78 -246t205 -90v567q-99 18 -167.5 43.5t-122.5 68.5t-80 109t-26 158q0 152 104.5 256.5t291.5 116.5v96h104v-96q180 -10 277.5 -120.5t109.5 -307.5h-137q-20 288 -250 313v-534q224 -44 319 -130t95 -262 q0 -170 -113 -275.5t-301 -119.5v-84zM647 625v-541q127 10 200 83t73 189q0 129 -68.5 190t-204.5 79zM543 772v516q-130 -12 -193 -79t-63 -173q0 -220 256 -264z" />
<glyph unicode="%" horiz-adv-x="1431" d="M315 795q64 0 95.5 68t31.5 224q0 155 -31.5 222t-95.5 67q-65 0 -97 -67t-32 -222q0 -157 32 -224.5t97 -67.5zM311 707q-118 0 -176.5 92.5t-58.5 290.5q0 196 58.5 285t176.5 89q238 0 238 -372q0 -385 -238 -385zM233 -43h-83l1007 1503h84zM1122 41q64 0 95.5 68.5 t31.5 224.5q0 155 -31.5 222t-95.5 67q-65 0 -97 -67t-32 -222q0 -157 32 -225t97 -68zM1118 -47q-118 0 -176.5 92.5t-58.5 290.5q0 196 58.5 285.5t176.5 89.5q238 0 238 -373q0 -385 -238 -385z" />
<glyph unicode="&#x26;" horiz-adv-x="1187" d="M1198 0h-188l-117 154l-49 -60q-132 -143 -365 -143q-187 0 -299 115t-112 307q0 157 70 252t253 194q-72 94 -111.5 176.5t-39.5 178.5q0 141 89.5 215.5t231.5 74.5q152 0 235 -74.5t83 -224.5q0 -68 -22.5 -127t-64 -104.5t-87.5 -79.5t-107 -66l285 -374 q52 139 61 295h135q-13 -229 -104 -416zM809 264l-344 455q-144 -66 -201 -144t-57 -200q0 -132 70.5 -216.5t201.5 -84.5q214 0 330 190zM520 887q110 58 167.5 121t57.5 157q0 88 -44.5 128t-133.5 40q-81 0 -130.5 -44t-49.5 -126q0 -66 29.5 -122.5t103.5 -153.5z" />
<glyph unicode="'" horiz-adv-x="409" d="M270 885h-131v532h131v-532z" />
<glyph unicode="(" horiz-adv-x="550" d="M580 -305h-119q-158 198 -241 443t-83 505q0 250 81 483t243 428h119q-289 -414 -289 -913q0 -516 289 -946z" />
<glyph unicode=")" horiz-adv-x="550" d="M90 -305h-119q289 430 289 946q0 499 -289 913h119q162 -195 243 -428t81 -483q0 -260 -83 -505t-241 -443z" />
<glyph unicode="*" horiz-adv-x="890" d="M715 739l-82 -57l-189 256l-186 -258l-86 59l190 262l-299 95l33 96l295 -98v323h107v-323l295 98l30 -96l-299 -95z" />
<glyph unicode="+" horiz-adv-x="1138" d="M623 254h-111v424h-422v110h422v422h111v-422h424v-110h-424v-424z" />
<glyph unicode="," horiz-adv-x="509" d="M170 -240v66q93 24 96 174h-96v219h168v-174q0 -126 -37 -193.5t-131 -91.5z" />
<glyph unicode="-" horiz-adv-x="673" d="M590 598h-504v119h504v-119z" />
<glyph unicode="." horiz-adv-x="509" d="M338 0h-168v219h168v-219z" />
<glyph unicode="/" horiz-adv-x="608" d="M127 0h-127l481 1417h127z" />
<glyph unicode="0" d="M592 72q153 0 232 155t79 486t-78.5 480.5t-232.5 149.5q-102 0 -168.5 -62.5t-102.5 -203.5t-36 -364q0 -334 77 -487.5t230 -153.5zM588 -49q-459 0 -459 764q0 387 117 568t342 181q467 0 467 -745q0 -386 -121.5 -577t-345.5 -191z" />
<glyph unicode="1" d="M700 0h-149v1065h-283v106q42 0 65 0.5t54.5 2t47.5 5t38 9.5t32.5 15t24.5 23t20 31.5t13 41t10 52.5t5 66h122v-1417z" />
<glyph unicode="2" d="M1049 0h-916q0 103 18.5 182.5t66.5 160.5t134 159t219 164q77 49 124.5 82.5t90.5 72t65.5 74.5t35 80t12.5 98q0 117 -73.5 189.5t-219.5 72.5q-165 0 -235.5 -86.5t-75.5 -281.5h-143q0 259 114.5 378t333.5 119q98 0 179 -24t141 -71t93.5 -122.5t33.5 -173.5 q0 -84 -21.5 -149.5t-74.5 -127.5t-124.5 -117.5t-187.5 -127.5q-169 -104 -250.5 -204t-85.5 -216h746v-131z" />
<glyph unicode="3" d="M481 688v109q91 0 157.5 12t109.5 33.5t68.5 55.5t35.5 73.5t10 91.5q0 133 -74.5 206.5t-203.5 73.5q-131 0 -210 -90t-79 -243h-139q0 206 117 330t317 124q178 0 298 -107.5t120 -289.5q0 -129 -64 -203.5t-190 -109.5q132 -27 213.5 -121.5t81.5 -233.5 q0 -208 -130.5 -328t-345.5 -120q-198 0 -319 126t-121 339h146q0 -163 82 -252.5t221 -89.5q142 0 228.5 87t86.5 240q0 150 -96.5 218.5t-319.5 68.5z" />
<glyph unicode="4" d="M782 461v749l-495 -749h495zM930 0h-150v344h-639v131l615 942h174v-956h151v-117h-151v-344z" />
<glyph unicode="5" d="M135 365h152q8 -130 82 -210.5t215 -80.5q152 0 233.5 100.5t81.5 276.5q0 159 -76 244t-217 85q-111 0 -185 -51t-128 -172h-154l29 860h829v-127h-694l-20 -590q64 111 151 157t203 46q183 0 297.5 -118.5t114.5 -327.5q0 -228 -129 -367t-336 -139q-122 0 -222.5 52 t-161 147t-65.5 215z" />
<glyph unicode="6" d="M1024 1110h-145q-15 115 -80 174t-170 59q-173 0 -257.5 -148t-90.5 -466q63 92 157.5 144.5t208.5 52.5q180 0 292 -125.5t112 -343.5q0 -220 -124 -363t-321 -143q-473 0 -473 711q0 421 123 611.5t379 190.5q167 0 268 -91t121 -263zM283 539q5 -227 86 -347t235 -120 q134 0 216.5 107.5t82.5 271.5q0 165 -79.5 260.5t-215.5 95.5q-110 0 -198.5 -73t-126.5 -195z" />
<glyph unicode="7" d="M514 0h-154q26 339 172 689t365 595h-778v133h944v-117q-228 -240 -379 -600t-170 -700z" />
<glyph unicode="8" d="M592 74q148 0 228.5 86t80.5 241q0 129 -76 208t-233 79q-158 0 -233.5 -79t-75.5 -208q0 -155 80.5 -241t228.5 -86zM858 1073q0 124 -72 196t-194 72t-195 -72t-73 -196q0 -51 13 -95t41.5 -83.5t83 -62.5t130.5 -23q74 0 128 23t83 62.5t42 84t13 94.5zM762 762 q133 -20 213 -121t80 -240q0 -207 -121 -328.5t-342 -121.5q-219 0 -342 121t-123 323q0 139 79 237t218 124q-62 13 -110 47t-75 81.5t-40 98.5t-13 104q0 168 114 272.5t292 104.5q186 0 294.5 -102t108.5 -270q0 -55 -12.5 -106t-39 -97.5t-73 -80t-108.5 -46.5z" />
<glyph unicode="9" d="M158 305h147q26 -233 250 -233q171 0 256.5 148t91.5 466q-65 -93 -158.5 -145t-207.5 -52q-180 0 -292 125.5t-112 343.5q0 220 123.5 363t321.5 143q473 0 473 -710q0 -420 -123 -611.5t-379 -191.5q-167 0 -268 91t-123 263zM901 874q-5 227 -86 347t-235 120 q-135 0 -217 -106t-82 -270q0 -165 79 -261t213 -96q110 0 201 73t127 193z" />
<glyph unicode=":" horiz-adv-x="509" d="M338 0h-168v219h168v-219zM338 723h-168v219h168v-219z" />
<glyph unicode=";" horiz-adv-x="507" d="M170 -240v66q93 24 96 174h-96v219h168v-174q0 -126 -37 -193.5t-131 -91.5zM338 723h-168v219h168v-219z" />
<glyph unicode="&#x3c;" horiz-adv-x="1138" d="M1047 205l-957 473v110l957 472v-123l-834 -404l834 -403v-125z" />
<glyph unicode="=" horiz-adv-x="1138" d="M1047 461h-957v110h957v-110zM1047 893h-957v111h957v-111z" />
<glyph unicode="&#x3e;" horiz-adv-x="1138" d="M1047 678l-957 -473v125l832 403l-832 404v123l957 -472v-110z" />
<glyph unicode="?" horiz-adv-x="1118" d="M631 346h-142q-1 112 15.5 184t56.5 134q21 34 54.5 66t65.5 54t66 50.5t59 57.5t41.5 73t16.5 98q0 145 -82.5 211.5t-226.5 66.5q-148 0 -226 -86.5t-83 -248.5h-150q0 214 121.5 336t333.5 122q225 0 349 -98t124 -295q0 -88 -28 -154.5t-72.5 -111t-120.5 -94.5 q-100 -64 -136 -149.5t-36 -215.5zM643 0h-162v215h162v-215z" />
<glyph unicode="@" horiz-adv-x="1574" d="M1341 47l48 -86q-75 -60 -223.5 -99.5t-350.5 -39.5q-175 0 -314 54.5t-229 152.5t-137 232.5t-47 295.5q0 226 85.5 402t251.5 277t390 101q113 0 211 -21t184 -69t146.5 -119.5t95.5 -178t35 -238.5q0 -112 -20.5 -206t-54 -156.5t-78 -106t-91 -63t-94.5 -19.5 q-74 0 -119.5 40.5t-50.5 106.5q-40 -72 -102 -109.5t-166 -37.5q-74 0 -132 29.5t-92 80t-51.5 112t-17.5 130.5q0 209 107.5 346t279.5 137q200 0 231 -213l33 191h119l-96 -520q-11 -33 -11 -82t20.5 -70.5t51.5 -21.5q38 0 75.5 24t71 71.5t54 131t20.5 190.5 q0 148 -40 253.5t-116.5 166.5t-176 89t-228.5 28q-143 0 -260.5 -55t-192.5 -148t-116 -213.5t-41 -253.5q0 -298 160 -462t460 -164q172 0 309.5 29.5t208.5 80.5zM733 279q110 0 185 102.5t75 263.5q0 124 -52 181t-132 57q-119 0 -190.5 -97t-71.5 -274q0 -233 186 -233 z" />
<glyph unicode="A" horiz-adv-x="1290" d="M1286 0h-174l-129 346h-676l-135 -346h-168l555 1417h178zM936 479l-289 758l-295 -758h584z" />
<glyph unicode="B" horiz-adv-x="1339" d="M745 0h-585v1417h643q201 0 303 -94.5t102 -259.5q0 -123 -65.5 -199.5t-159.5 -97.5q52 -12 96 -35.5t84 -64.5t63 -107.5t23 -152.5q0 -193 -126 -299.5t-378 -106.5zM313 131h445q168 0 252 76.5t84 208.5q0 140 -78.5 207t-214.5 67h-488v-559zM313 819h484 q258 0 258 238q0 113 -65.5 170t-215.5 57h-461v-465z" />
<glyph unicode="C" horiz-adv-x="1368" d="M1130 487h160q-42 -246 -196 -391t-385 -145q-133 0 -246 48t-197.5 139t-132 233.5t-47.5 320.5q0 358 169.5 565t457.5 207q246 0 400 -144.5t177 -367.5h-160q-26 167 -139 270t-276 103q-224 0 -345.5 -164t-121.5 -461q0 -293 123.5 -451.5t333.5 -158.5 q168 0 278 104t147 293z" />
<glyph unicode="D" horiz-adv-x="1380" d="M315 131h379q215 0 333 156.5t118 435.5t-124 420t-359 141h-347v-1153zM723 0h-563v1417h522q279 0 452 -187t173 -507q0 -324 -161 -523.5t-423 -199.5z" />
<glyph unicode="E" horiz-adv-x="1259" d="M1184 0h-1024v1417h991v-133h-836v-473h779v-133h-779v-541h869v-137z" />
<glyph unicode="F" horiz-adv-x="1169" d="M1036 651h-717v-651h-159v1417h958v-133h-799v-496h717v-137z" />
<glyph unicode="G" horiz-adv-x="1466" d="M1341 0h-135q0 48 -1 145t-1 148q-51 -151 -173.5 -246.5t-319.5 -95.5q-140 0 -258.5 61t-198 164.5t-124 242t-44.5 292.5q0 159 43 295t124.5 238.5t209.5 161t287 58.5q238 0 404 -136t185 -347h-159q-9 101 -70 181.5t-156 124.5t-204 44q-233 0 -367.5 -172.5 t-134.5 -453.5q0 -123 32.5 -233.5t92.5 -197t154.5 -137.5t209.5 -51q92 0 168 29t128.5 78t89 115t53 139.5t16.5 152.5h-414v131h563v-731z" />
<glyph unicode="H" horiz-adv-x="1411" d="M1251 0h-159v694h-773v-694h-159v1417h159v-588h773v588h159v-1417z" />
<glyph unicode="I" horiz-adv-x="497" d="M330 0h-162v1417h162v-1417z" />
<glyph unicode="J" horiz-adv-x="1058" d="M739 395v1022h160v-1034q0 -200 -114 -316t-328 -116q-200 0 -308 111.5t-108 328.5v80h145v-74q0 -315 271 -315q147 0 214.5 78t67.5 235z" />
<glyph unicode="K" horiz-adv-x="1298" d="M1298 0h-194l-502 725l-285 -285v-440h-157v1417h157v-782l762 782h209l-573 -573z" />
<glyph unicode="L" horiz-adv-x="1126" d="M1110 0h-950v1417h159v-1278h791v-139z" />
<glyph unicode="M" horiz-adv-x="1636" d="M1470 0h-149v1184l-422 -1184h-162l-424 1182v-1182h-149v1417h237l420 -1218l420 1218h229v-1417z" />
<glyph unicode="N" horiz-adv-x="1411" d="M1255 0h-149l-799 1171v-1171h-149v1417h174l774 -1151v1151h149v-1417z" />
<glyph unicode="O" horiz-adv-x="1441" d="M723 88q228 0 356.5 153t128.5 449q0 308 -124 469.5t-361 161.5q-238 0 -364 -161.5t-126 -467.5q0 -300 125 -452t365 -152zM723 -49q-314 0 -481.5 191t-167.5 554q0 362 169.5 565t479.5 203q308 0 475.5 -204t167.5 -570q0 -368 -163 -553.5t-480 -185.5z" />
<glyph unicode="P" horiz-adv-x="1261" d="M319 0h-159v1417h600q192 0 310 -129.5t118 -322.5q0 -194 -116.5 -314.5t-311.5 -120.5h-441v-530zM319 659h418q149 0 229.5 85.5t80.5 224.5q0 138 -82.5 226.5t-227.5 88.5h-418v-625z" />
<glyph unicode="Q" horiz-adv-x="1441" d="M1247 -195h-168l-110 183q-112 -37 -246 -37q-314 0 -481.5 191t-167.5 554q0 362 169.5 565t479.5 203q308 0 475.5 -204t167.5 -570q0 -455 -266 -639zM893 113l-207 348h168l166 -279q188 149 188 508q0 308 -124 469.5t-361 161.5q-238 0 -364 -161.5t-126 -467.5 q0 -300 125 -452t365 -152q90 0 170 25z" />
<glyph unicode="R" horiz-adv-x="1359" d="M1221 0h-156v369q0 63 -13 106t-45.5 75t-91 47t-145.5 15h-455v-612h-155v1417h682q189 0 301 -106t112 -281q0 -134 -74 -230t-206 -120q133 -18 189.5 -87t56.5 -204v-389zM315 743h484q156 0 231.5 77t75.5 196q0 127 -73 197.5t-218 70.5h-500v-541z" />
<glyph unicode="S" horiz-adv-x="1255" d="M1153 999h-152q-3 328 -389 328q-177 0 -266.5 -67.5t-89.5 -186.5q0 -66 26.5 -114.5t54.5 -75t100.5 -49.5t106 -29t130.5 -21q99 -15 150.5 -25.5t132.5 -39.5t121.5 -69t73 -112t32.5 -169q0 -128 -68.5 -224t-183.5 -145t-258 -49q-294 0 -442.5 118t-157.5 355h155 q4 -170 114 -256t312 -86q170 0 272.5 78t102.5 211q0 123 -66.5 182t-213.5 82q-104 14 -174 26.5t-143 31t-119 40t-88.5 53t-65 72t-36 94t-13.5 121.5q0 82 31 152t91.5 124t157.5 84.5t221 30.5q256 0 398.5 -122.5t142.5 -342.5z" />
<glyph unicode="T" horiz-adv-x="1116" d="M639 0h-158v1284h-471v133h1096v-133h-467v-1284z" />
<glyph unicode="U" horiz-adv-x="1388" d="M1073 471v946h164v-946q0 -256 -141.5 -388t-411.5 -132q-252 0 -392 126.5t-140 377.5v962h161v-950q0 -186 97 -284.5t272 -98.5q391 0 391 387z" />
<glyph unicode="V" horiz-adv-x="1187" d="M666 0h-146l-516 1417h170l422 -1184l422 1184h166z" />
<glyph unicode="W" horiz-adv-x="1744" d="M1346 0h-156l-322 1153l-321 -1153h-152l-385 1417h170l295 -1151l309 1151h168l318 -1151l295 1151h161z" />
<glyph unicode="X" horiz-adv-x="1210" d="M1206 0h-194l-406 596l-411 -596h-189l506 723l-481 694h188l387 -567l387 567h187l-482 -686z" />
<glyph unicode="Y" horiz-adv-x="1200" d="M684 0h-160v582l-524 835h188l418 -674l408 674h186l-516 -837v-580z" />
<glyph unicode="Z" horiz-adv-x="1132" d="M1094 0h-1053v137l854 1147h-834v133h1033v-127l-856 -1153h856v-137z" />
<glyph unicode="[" horiz-adv-x="610" d="M588 -279h-410v1815h410v-109h-277v-1601h277v-105z" />
<glyph unicode="\" horiz-adv-x="608" d="M608 0h-125l-483 1417h129z" />
<glyph unicode="]" horiz-adv-x="602" d="M424 -279h-412v105h279v1601h-279v109h412v-1815z" />
<glyph unicode="^" horiz-adv-x="950" d="M905 1010h-164l-266 286l-268 -286h-164l377 407h108z" />
<glyph unicode="_" horiz-adv-x="985" d="M993 -252h-999v90h999v-90z" />
<glyph unicode="`" horiz-adv-x="790" d="M610 1184l-477 252l72 123l452 -295z" />
<glyph unicode="a" horiz-adv-x="1095" d="M815 383l2 186q-9 -12 -25.5 -20t-46.5 -13.5t-55.5 -9t-76.5 -9t-85 -9.5q-85 -11 -137 -24t-94 -38t-60 -64.5t-18 -100.5q0 -99 57.5 -148t182.5 -49q141 0 245 81.5t111 217.5zM967 0h-142q-8 16 -8 193q-39 -98 -144.5 -160t-244.5 -62q-185 0 -271.5 77t-86.5 216 q0 79 22 137t57.5 93.5t97.5 59.5t123.5 35.5t153.5 20.5q158 18 221 36t68 63q0 125 -66 188.5t-212 63.5q-147 0 -216 -64.5t-75 -187.5h-142q10 370 439 370q229 0 327.5 -103.5t98.5 -311.5v-664z" />
<glyph unicode="b" horiz-adv-x="1173" d="M616 96q151 0 243.5 112.5t92.5 313.5q0 211 -86.5 318.5t-249.5 107.5q-111 0 -188 -59t-112 -155.5t-35 -221.5q0 -193 94.5 -304.5t240.5 -111.5zM283 0h-146v1436h148v-639q48 144 151.5 213t225.5 69q203 0 322.5 -146.5t119.5 -400.5q0 -265 -126 -413t-329 -148 q-57 0 -110 14.5t-103.5 45t-90.5 86.5t-62 131v-248z" />
<glyph unicode="c" horiz-adv-x="1050" d="M838 381h151q-22 -182 -150.5 -296t-308.5 -114q-211 0 -335.5 146t-124.5 422q0 272 125 406t344 134q194 0 316.5 -109.5t135.5 -295.5h-151q-13 134 -93.5 206t-209.5 72q-147 0 -232.5 -100.5t-85.5 -310.5q0 -214 86 -328.5t225 -114.5q124 0 208.5 75.5t99.5 207.5 z" />
<glyph unicode="d" horiz-adv-x="1173" d="M557 96q147 0 242.5 111.5t95.5 304.5q0 125 -35.5 221.5t-113 155.5t-189.5 59q-162 0 -249 -107.5t-87 -318.5q0 -201 92.5 -313.5t243.5 -112.5zM1038 0h-145v248q-22 -75 -62.5 -131t-92 -86.5t-104.5 -45t-110 -14.5q-203 0 -328.5 148t-125.5 413q0 254 120 400.5 t322 146.5q78 0 148.5 -26.5t134 -92t96.5 -163.5v639h147v-1436z" />
<glyph unicode="e" horiz-adv-x="1064" d="M852 309h156q-44 -160 -160.5 -249t-278.5 -89q-499 0 -499 574q0 246 128.5 390t356.5 144q230 0 348.5 -152t118.5 -435h-803q6 -194 94.5 -297t249.5 -103q105 0 182 57t107 160zM223 590h645q-4 171 -89 268.5t-228 97.5q-148 0 -235 -97t-93 -269z" />
<glyph unicode="f" horiz-adv-x="589" d="M313 0h-147v942h-148v109h148v100q0 285 319 285h107v-125h-107q-94 0 -133 -39.5t-39 -120.5v-100h285v-109h-285v-942z" />
<glyph unicode="g" horiz-adv-x="1181" d="M563 111q160 0 251 117.5t91 287.5q0 212 -91.5 321t-250.5 109t-247.5 -107.5t-88.5 -316.5q0 -199 91 -305t245 -106zM901 -20v280q-16 -70 -55 -123.5t-90.5 -84t-107 -45.5t-113.5 -15q-227 0 -346 146.5t-119 393.5q0 250 129.5 398.5t330.5 148.5q80 0 149 -24.5 t130.5 -88.5t91.5 -163v248h150v-1061q0 -115 -38 -209t-102.5 -154t-148.5 -92.5t-178 -32.5q-100 0 -185.5 31t-142.5 83.5t-89 120.5t-32 142h139q6 -108 93.5 -177t216.5 -69t223 93.5t94 253.5z" />
<glyph unicode="h" horiz-adv-x="1157" d="M1030 0h-149v664q0 85 -17.5 142.5t-54 90t-84.5 46t-117 13.5q-76 0 -134.5 -27.5t-94 -72t-58.5 -107t-31.5 -126t-8.5 -136.5v-487h-150v1436h150v-639q24 94 84 159t133.5 94t156.5 29q177 0 276 -89t99 -279v-711z" />
<glyph unicode="i" horiz-adv-x="430" d="M291 0h-150v1051h150v-1051zM291 1176h-150v260h150v-260z" />
<glyph unicode="j" horiz-adv-x="518" d="M61 -498h-106v125h106q93 0 131.5 39t38.5 121v1264h150v-1264q0 -285 -320 -285zM381 1176h-150v260h150v-260z" />
<glyph unicode="k" horiz-adv-x="1058" d="M1051 0h-168l-334 553l-256 -240v-313h-152v1436h152v-949l579 564h187l-402 -396z" />
<glyph unicode="l" horiz-adv-x="430" d="M291 0h-150v1436h150v-1436z" />
<glyph unicode="m" horiz-adv-x="1687" d="M1559 0h-146v657q0 297 -227 297q-114 0 -188 -88t-74 -213v-653h-150v655q0 116 -26.5 181.5t-74.5 89.5t-128 24q-264 0 -264 -434v-516h-150v1051h139v-263q42 152 131 221.5t205 69.5q123 0 194.5 -56.5t104.5 -191.5q32 121 120 184.5t198 63.5q158 0 247 -94.5 t89 -282.5v-702z" />
<glyph unicode="n" horiz-adv-x="1163" d="M1036 0h-149v657q0 86 -17.5 144t-54.5 90t-85.5 45.5t-117.5 13.5q-95 0 -161.5 -35t-102.5 -101t-51.5 -145t-15.5 -182v-487h-150v1051h141v-263q42 147 150 219t246 72q172 0 270 -91t98 -286v-702z" />
<glyph unicode="o" horiz-adv-x="1161" d="M586 98q167 0 261.5 113t94.5 313q0 202 -92.5 314t-263.5 112q-173 0 -268 -112t-95 -314q0 -200 95.5 -313t267.5 -113zM586 -29q-239 0 -377.5 152.5t-138.5 400.5q0 252 139.5 403.5t376.5 151.5q232 0 369 -151t137 -404q0 -250 -137.5 -401.5t-368.5 -151.5z" />
<glyph unicode="p" horiz-adv-x="1173" d="M616 100q164 0 250 106.5t86 321.5q0 199 -92.5 312.5t-243.5 113.5q-146 0 -240.5 -111t-94.5 -304q0 -126 35 -223t112 -156.5t188 -59.5zM285 -498h-148v1549h146v-250q22 76 62 132t90.5 86.5t103 45t110.5 14.5q204 0 329.5 -147.5t125.5 -415.5q0 -257 -118 -401 t-324 -144q-121 0 -225 69t-152 212v-750z" />
<glyph unicode="q" horiz-adv-x="1179" d="M559 100q112 0 189.5 59.5t113 156.5t35.5 223q0 193 -95.5 304t-242.5 111q-151 0 -243.5 -113.5t-92.5 -312.5q0 -215 86.5 -321.5t249.5 -106.5zM1040 -498h-147v750q-33 -97 -96.5 -162t-134 -92t-148.5 -27q-205 0 -323.5 144.5t-118.5 400.5q0 268 125.5 415.5 t330.5 147.5q57 0 110 -14.5t103.5 -45t91 -86.5t62.5 -132v250h145v-1549z" />
<glyph unicode="r" horiz-adv-x="712" d="M272 0h-149v1051h141v-248q27 78 70 134t95.5 86t105 43t110.5 13h57v-155q-69 6 -77 6q-170 0 -261.5 -111.5t-91.5 -281.5v-537z" />
<glyph unicode="s" horiz-adv-x="1036" d="M948 733h-143q-11 120 -78 175t-219 55q-134 0 -200 -37.5t-66 -128.5q0 -88 59.5 -124.5t222.5 -64.5q51 -9 84 -15t75 -15.5t68 -17.5t58.5 -19.5t52 -24.5t41 -29.5t33.5 -36.5t23 -44t15.5 -53.5t4.5 -63.5q0 -140 -114 -229t-328 -89q-222 0 -347.5 99t-130.5 268 h154q4 -122 88.5 -186t233.5 -64q82 0 143.5 19t94.5 51t49 67t16 74q0 34 -16.5 60.5t-40.5 43.5t-67 31.5t-78.5 22.5t-91.5 20l-30 6q-165 32 -254.5 71.5t-126.5 96t-37 146.5q0 125 108 203.5t304 78.5q227 0 329.5 -88t110.5 -258z" />
<glyph unicode="t" horiz-adv-x="634" d="M379 0h-148v942h-213v109h213v366h148v-366h219v-109h-219v-942z" />
<glyph unicode="u" horiz-adv-x="1155" d="M1024 0h-139v258q-30 -101 -93 -167.5t-136 -93t-158 -26.5q-174 0 -272.5 97.5t-98.5 296.5v686h147v-600q0 -195 62.5 -274t210.5 -79q76 0 135 26t95.5 69t60 104t32.5 124.5t9 137.5v492h145v-1051z" />
<glyph unicode="v" horiz-adv-x="1021" d="M592 0h-156l-422 1051h170l334 -856l330 856h160z" />
<glyph unicode="w" horiz-adv-x="1476" d="M1133 0h-152l-244 809l-243 -809h-154l-317 1051h159l246 -848l231 848h154l242 -848l239 848h156z" />
<glyph unicode="x" horiz-adv-x="1007" d="M995 0h-184l-311 414l-307 -414h-183l402 532l-392 519h183l303 -406l303 406h176l-395 -519z" />
<glyph unicode="y" horiz-adv-x="1032" d="M391 -498h-155l204 498l-430 1051h170l342 -856l338 856h160z" />
<glyph unicode="z" horiz-adv-x="942" d="M901 0h-860v117l664 813h-631v121h813v-121l-670 -807h684v-123z" />
<glyph unicode="{" horiz-adv-x="673" d="M631 -281h-62q-74 0 -128 8.5t-90.5 28.5t-59.5 45.5t-35 66.5t-16 83.5t-4 105.5q0 25 5 152t5 147q0 124 -36 174t-130 50v102q94 0 130 49.5t36 173.5q0 21 -5 145t-5 150q0 63 4 105.5t16 84t35 66.5t59.5 45t90.5 28.5t128 8.5h62v-98h-45q-73 0 -117.5 -12.5 t-68 -42.5t-31 -69t-7.5 -104q0 -51 6.5 -176t6.5 -180q0 -94 -48 -154t-126 -71q79 -14 126.5 -74t47.5 -154q0 -50 -6.5 -177.5t-6.5 -182.5q0 -64 7.5 -102t31 -68t68 -42.5t117.5 -12.5h45v-99z" />
<glyph unicode="|" horiz-adv-x="436" d="M279 -266h-121v1837h121v-1837z" />
<glyph unicode="}" horiz-adv-x="679" d="M104 -281h-59v99h45q72 0 116.5 12.5t67.5 42.5t30 68t7 102q0 55 -6 182.5t-6 177.5q0 94 47.5 154t126.5 74q-78 11 -126 71t-48 154q0 55 6 180t6 176q0 66 -7 104t-30 69t-67 43t-117 12h-45v98h59q64 0 112.5 -7t84 -19.5t60.5 -34.5t40.5 -47t24 -62.5t11.5 -76 t3 -91.5q0 -26 -5 -150t-5 -145q0 -125 35.5 -174t130.5 -49v-102q-95 0 -130.5 -49.5t-35.5 -174.5q0 -20 5 -147t5 -152q0 -62 -4.5 -105t-17 -84t-35.5 -66.5t-60 -45.5t-91 -28.5t-128 -8.5z" />
<glyph unicode="~" horiz-adv-x="1138" d="M1047 854v-123q-60 -76 -126.5 -109.5t-156.5 -33.5q-51 0 -109 21.5t-101.5 47t-100 47t-105.5 21.5q-79 0 -139.5 -39t-118.5 -119v125q111 144 254 144q59 0 121.5 -21.5t106 -47.5t97.5 -47.5t99 -21.5q87 0 152.5 35t126.5 121z" />
<glyph unicode="&#xa1;" horiz-adv-x="475" d="M158 1417h161v-215h-161v215zM195 1081h84q45 -466 45 -950q0 -119 -5 -131h-163q0 10 -2 104t-2 111q0 365 43 866z" />
<glyph unicode="&#xa2;" horiz-adv-x="1089" d="M586 0h-62v147q-201 8 -316.5 153.5t-115.5 414.5q0 261 114.5 396.5t317.5 143.5v162h62v-162q187 -8 300.5 -114t125.5 -287h-156q-19 248 -270 272v-847q109 11 184.5 87t87.5 191h152q-21 -171 -136 -287t-288 -120v-150zM524 279v847q-133 -8 -207.5 -108.5 t-74.5 -300.5q0 -205 75.5 -316t206.5 -122z" />
<glyph unicode="&#xa3;" d="M1137 197v-166q-54 -80 -215 -80q-76 0 -148 17t-117.5 38t-102.5 38t-108 17q-19 0 -55 -4q-68 -49 -149.5 -76.5t-157.5 -29.5v145q50 4 100.5 22.5t95.5 50.5t73 82t28 109q0 89 -37 181h-231v118h176q-70 116 -106 209.5t-36 204.5q0 98 33.5 173.5t93.5 122.5 t141 71t179 24q217 0 332.5 -119t115.5 -378h-143q-5 195 -75.5 281.5t-235.5 86.5q-146 0 -219.5 -72.5t-73.5 -189.5q0 -204 141 -414h381v-118h-323q45 -122 45 -199q0 -88 -41 -162q78 0 193 -40t202 -40q94 0 148.5 22.5t95.5 74.5z" />
<glyph unicode="&#xa4;" d="M979 244l-135 143q-125 -84 -252 -84q-140 0 -252 84l-135 -143l-107 106l142 135q-84 115 -84 254q0 127 84 252l-140 131l105 105l131 -137q117 84 256 84q138 0 252 -84l131 137l108 -105l-141 -131q84 -114 84 -252q0 -146 -84 -254l143 -135zM930 739 q0 138 -99.5 237t-238.5 99q-140 0 -239 -98.5t-99 -237.5q0 -141 98.5 -239.5t239.5 -98.5q140 0 239 98.5t99 239.5z" />
<glyph unicode="&#xa5;" d="M995 201h-340v-201h-125v201h-340v92h340v207h-340v90h340v180l-440 647h139l363 -543l362 543h140l-439 -647v-180h340v-90h-340v-207h340v-92z" />
<glyph unicode="&#xa6;" horiz-adv-x="698" d="M408 -266h-119v770h119v-770zM408 850h-119v721h119v-721z" />
<glyph unicode="&#xa7;" horiz-adv-x="1148" d="M100 98h154q5 -135 87.5 -209.5t229.5 -74.5q82 0 143 21.5t94 57.5t48.5 76t15.5 84q0 34 -11 61.5t-36 48t-50 35t-67.5 27t-73 20t-81.5 17.5q-163 35 -253 81.5t-126.5 111t-36.5 166.5q0 160 131 247q-66 45 -92 103.5t-26 150.5q0 142 108 232t301 90 q227 0 328.5 -99.5t109.5 -293.5h-143q-11 139 -77 200.5t-218 61.5q-134 0 -199 -43t-65 -148q0 -96 60.5 -139.5t222.5 -75.5q197 -44 263 -70q118 -47 158 -137q27 -62 27 -155q0 -162 -111 -258q99 -71 99 -244q0 -159 -114 -259.5t-327 -100.5q-218 0 -343 110.5 t-130 304.5zM770 356q59 35 88 88.5t29 110.5q0 37 -14 66.5t-41.5 50t-60 35.5t-77.5 27t-84.5 21t-92 21t-89.5 23q-73 -19 -109 -61.5t-36 -116.5q0 -98 59.5 -140.5t220.5 -74.5q125 -25 207 -50z" />
<glyph unicode="&#xa8;" horiz-adv-x="890" d="M330 1257h-197v228h197v-228zM758 1257h-195v228h195v-228z" />
<glyph unicode="&#xa9;" horiz-adv-x="1447" d="M723 -18q-139 0 -263 52t-216 145.5t-145.5 231t-53.5 300.5t53.5 300.5t145.5 231t216 145.5t263 52q141 0 265.5 -52t216 -145.5t145 -231t53.5 -300.5q0 -162 -53.5 -299.5t-145 -231t-216 -146t-265.5 -52.5zM725 88q119 0 225 45t184.5 125t124.5 197t46 254 t-46 254.5t-124.5 197.5t-184.5 125t-225 45q-118 0 -224.5 -46.5t-184.5 -127.5t-123.5 -197.5t-45.5 -250.5t45.5 -250.5t123.5 -197.5t184 -127t225 -46zM946 610h105q-13 -109 -97 -184.5t-217 -75.5q-153 0 -242 100.5t-89 268.5q0 167 88 257.5t243 90.5 q138 0 218 -66.5t98 -185.5h-105q-11 70 -67 113t-144 43q-102 0 -165.5 -64t-63.5 -188t64.5 -195t164.5 -71q83 0 142.5 39t66.5 118z" />
<glyph unicode="&#xaa;" horiz-adv-x="735" d="M522 850l2 104q-13 -15 -52.5 -22t-84.5 -11.5t-88.5 -14.5t-72.5 -37.5t-29 -73.5q0 -109 131 -109q73 0 131.5 46t62.5 118zM606 641h-76q0 3 -3 52t-3 55q-21 -53 -80.5 -88t-134.5 -35q-100 0 -148 42.5t-48 118.5q0 54 16.5 89t52.5 55t75.5 29t104.5 16 q86 10 120 20.5t38 36.5q0 68 -35.5 102.5t-117.5 34.5q-80 0 -116.5 -35t-41.5 -102h-78q3 203 240 203q128 0 181.5 -57.5t53.5 -171.5v-365z" />
<glyph unicode="&#xab;" horiz-adv-x="1044" d="M395 309l-295 369l295 371l94 -103l-223 -268l223 -268zM836 309l-295 369l295 371l94 -103l-223 -268l223 -268z" />
<glyph unicode="&#xac;" horiz-adv-x="1271" d="M1176 0h-136v913h-946v138h1082v-1051z" />
<glyph unicode="&#xad;" horiz-adv-x="673" d="M590 598h-504v119h504v-119z" />
<glyph unicode="&#xae;" horiz-adv-x="1447" d="M723 -18q-139 0 -263 52t-216 145.5t-145.5 231t-53.5 300.5t53.5 300.5t145.5 231t216 145.5t263 52q141 0 265.5 -52t216 -145.5t145 -231t53.5 -300.5q0 -162 -53.5 -299.5t-145 -231t-216 -146t-265.5 -52.5zM725 88q119 0 225 45t184.5 125t124.5 197t46 254 t-46 254.5t-124.5 197.5t-184.5 125t-225 45q-118 0 -224.5 -46.5t-184.5 -127.5t-123.5 -197.5t-45.5 -250.5t45.5 -250.5t123.5 -197.5t184 -127t225 -46zM586 748h198q60 0 89.5 30t29.5 76q0 104 -112 104h-205v-210zM985 393h-100v170q0 54 -26 76.5t-95 22.5h-178 v-269h-103v656h322q90 0 144.5 -51.5t54.5 -133.5q0 -58 -29.5 -101t-83.5 -56q51 -11 72.5 -41t21.5 -93v-180z" />
<glyph unicode="&#xaf;" horiz-adv-x="1050" d="M918 1317h-785v135h785v-135z" />
<glyph unicode="&#xb0;" horiz-adv-x="858" d="M428 758q-164 0 -244 94t-80 246t79.5 245t244.5 93q164 0 244 -93t80 -245q0 -151 -80.5 -245.5t-243.5 -94.5zM428 854q113 0 166 68t53 178q0 109 -52.5 175t-166.5 66q-115 0 -168 -66t-53 -175q0 -110 53.5 -178t167.5 -68z" />
<glyph unicode="&#xb1;" horiz-adv-x="1138" d="M623 254h-111v424h-422v110h422v422h111v-422h424v-110h-424v-424zM1047 37h-957v110h957v-110z" />
<glyph unicode="&#xb2;" horiz-adv-x="667" d="M567 733h-469q0 103 44 177.5t171 162.5q87 60 117.5 97t30.5 90q0 112 -121 112q-67 0 -98.5 -36.5t-32.5 -118.5h-103q0 120 60 183.5t170 63.5q106 0 167.5 -50.5t61.5 -151.5q0 -81 -44.5 -138t-158.5 -131q-124 -83 -133 -170h338v-90z" />
<glyph unicode="&#xb3;" horiz-adv-x="667" d="M274 1063v76q96 0 133 29t37 85q0 123 -114 123q-55 0 -88 -37.5t-33 -101.5h-100q0 102 61.5 164.5t163.5 62.5q92 0 152.5 -53.5t60.5 -142.5q0 -112 -105 -158q58 -18 91.5 -63t33.5 -113q0 -107 -66 -167t-177 -60q-103 0 -164.5 62.5t-61.5 170.5h103q0 -71 34 -108 t95 -37q59 0 94 37t35 104q0 68 -41.5 97.5t-143.5 29.5z" />
<glyph unicode="&#xb4;" horiz-adv-x="790" d="M657 1436l-477 -252l-47 80l453 295z" />
<glyph unicode="&#xb6;" horiz-adv-x="1155" d="M995 -213h-127v1571h-374v-1571h-129v1198q-76 6 -130.5 29t-83 57.5t-41 71.5t-12.5 78q0 108 84.5 175.5t251.5 67.5h653l-92 -108v-1569z" />
<glyph unicode="&#xb7;" horiz-adv-x="509" d="M338 662h-168v221h168v-221z" />
<glyph unicode="&#xb8;" horiz-adv-x="440" d="M133 -498v68q98 12 98 133h-98v160h174v-113q0 -108 -39.5 -172.5t-134.5 -75.5z" />
<glyph unicode="&#xb9;" horiz-adv-x="690" d="M416 733h-107v510h-143v74q91 0 124.5 25t39.5 100h86v-709z" />
<glyph unicode="&#xba;" horiz-adv-x="794" d="M399 694q91 0 144 63.5t53 172.5q0 110 -50.5 171.5t-146.5 61.5t-147 -61.5t-51 -171.5t51.5 -173t146.5 -63zM399 625q-133 0 -208.5 84t-75.5 221q0 141 75 223t209 82q128 0 203.5 -83t75.5 -222q0 -137 -76 -221t-203 -84z" />
<glyph unicode="&#xbb;" horiz-adv-x="1044" d="M209 309l-94 101l223 268l-223 268l94 103l295 -371zM649 309l-94 101l223 268l-223 268l94 103l295 -371z" />
<glyph unicode="&#xbc;" horiz-adv-x="1355" d="M324 733h-107v510h-143v74q91 0 124.5 25t39.5 100h86v-709zM164 -43h-84l1007 1503h84zM1098 223v314l-197 -314h197zM1202 -20h-106v161h-297v95l282 452h121v-465h80v-82h-80v-161z" />
<glyph unicode="&#xbd;" horiz-adv-x="1359" d="M324 733h-107v510h-143v74q91 0 124.5 25t39.5 100h86v-709zM164 -43h-84l1007 1503h84zM1284 -20h-469q0 103 44 177t171 162q87 60 117.5 97t30.5 90q0 112 -121 112q-67 0 -98.5 -36.5t-32.5 -118.5h-103q0 120 60 184t170 64q105 0 167 -51t62 -152q0 -81 -44.5 -137 t-158.5 -131q-124 -83 -133 -170h338v-90z" />
<glyph unicode="&#xbe;" horiz-adv-x="1359" d="M252 1063v76q96 0 133 29t37 85q0 123 -115 123q-55 0 -88 -37.5t-33 -101.5h-100q0 102 61.5 164.5t163.5 62.5q92 0 152.5 -53.5t60.5 -142.5q0 -112 -104 -158q58 -18 91.5 -63t33.5 -113q0 -107 -66.5 -167t-177.5 -60q-103 0 -164 62.5t-61 170.5h102q0 -71 34 -108 t95 -37q59 0 94 37t35 104q0 68 -41.5 97.5t-142.5 29.5zM190 -43h-84l1008 1503h84zM1102 223v314l-197 -314h197zM1206 -20h-106v161h-297v95l282 452h121v-465h80v-82h-80v-161z" />
<glyph unicode="&#xbf;" horiz-adv-x="1118" d="M489 1071h142q1 -112 -15.5 -183t-56.5 -134q-21 -34 -54.5 -66t-65.5 -54t-66 -51t-59 -58t-41.5 -73t-16.5 -98q0 -145 82.5 -211.5t226.5 -66.5q148 0 226 87t83 249h150q0 -214 -121.5 -336.5t-333.5 -122.5q-225 0 -349 98t-124 295q0 128 53 206.5t168 154.5 q100 64 136 149t36 215zM477 1417h162v-215h-162v215z" />
<glyph unicode="&#xc0;" horiz-adv-x="1290" d="M1286 0h-174l-129 346h-676l-135 -346h-168l555 1417h178zM936 479l-289 758l-295 -758h584zM799 1550l-477 252l71 123l453 -295z" />
<glyph unicode="&#xc1;" horiz-adv-x="1290" d="M1286 0h-174l-129 346h-676l-135 -346h-168l555 1417h178zM936 479l-289 758l-295 -758h584zM973 1802l-477 -252l-47 80l452 295z" />
<glyph unicode="&#xc2;" horiz-adv-x="1290" d="M1286 0h-174l-129 346h-676l-135 -346h-168l555 1417h178zM936 479l-289 758l-295 -758h584zM952 1565l-305 293l-303 -293l-68 73l291 322h162l293 -322z" />
<glyph unicode="&#xc3;" horiz-adv-x="1290" d="M1286 0h-174l-129 346h-676l-135 -346h-168l555 1417h178zM936 479l-289 758l-295 -758h584zM895 1843l111 -39q-66 -184 -220 -184q-39 0 -78.5 17t-67.5 37.5t-63.5 37.5t-66.5 17q-77 0 -115 -103l-104 55q35 93 85 131.5t118 38.5q42 0 84 -18t70 -40t63 -40t65 -18 q35 0 68.5 27t50.5 81z" />
<glyph unicode="&#xc4;" horiz-adv-x="1290" d="M1286 0h-174l-129 346h-676l-135 -346h-168l555 1417h178zM936 479l-289 758l-295 -758h584zM532 1624h-196v227h196v-227zM961 1624h-195v227h195v-227z" />
<glyph unicode="&#xc5;" horiz-adv-x="1290" d="M1286 0h-174l-129 346h-676l-135 -346h-168l555 1417h178zM936 479l-289 758l-295 -758h584zM862 1755q0 -105 -50.5 -155t-164.5 -50q-213 0 -213 205q0 99 53 152t160 53q215 0 215 -205zM782 1755q0 133 -135 133q-65 0 -98 -34.5t-33 -98.5q0 -133 131 -133 q135 0 135 133z" />
<glyph unicode="&#xc6;" horiz-adv-x="1849" d="M1790 0h-973v348h-514l-129 -348h-170l528 1417h1225v-133h-782v-473h725v-133h-725v-541h815v-137zM817 481v803h-180l-291 -803h471z" />
<glyph unicode="&#xc7;" horiz-adv-x="1368" d="M1130 487h160q-42 -246 -196 -391t-385 -145q-133 0 -246 48t-197.5 139t-132 233.5t-47.5 320.5q0 358 169.5 565t457.5 207q246 0 400 -144.5t177 -367.5h-160q-26 167 -139 270t-276 103q-224 0 -345.5 -164t-121.5 -461q0 -293 123.5 -451.5t333.5 -158.5 q168 0 278 104t147 293zM618 -498v68q99 12 99 133h-99v160h175v-113q0 -227 -175 -248z" />
<glyph unicode="&#xc8;" horiz-adv-x="1259" d="M1184 0h-1024v1417h991v-133h-836v-473h779v-133h-779v-541h869v-137zM803 1550l-477 252l71 123l453 -295z" />
<glyph unicode="&#xc9;" horiz-adv-x="1259" d="M1184 0h-1024v1417h991v-133h-836v-473h779v-133h-779v-541h869v-137zM977 1802l-477 -252l-47 80l452 295z" />
<glyph unicode="&#xca;" horiz-adv-x="1259" d="M1184 0h-1024v1417h991v-133h-836v-473h779v-133h-779v-541h869v-137zM954 1565l-305 293l-303 -293l-67 73l290 322h162l293 -322z" />
<glyph unicode="&#xcb;" horiz-adv-x="1259" d="M1184 0h-1024v1417h991v-133h-836v-473h779v-133h-779v-541h869v-137zM541 1624h-197v227h197v-227zM969 1624h-195v227h195v-227z" />
<glyph unicode="&#xcc;" horiz-adv-x="497" d="M330 0h-162v1417h162v-1417zM401 1550l-477 252l72 123l453 -295z" />
<glyph unicode="&#xcd;" horiz-adv-x="497" d="M330 0h-162v1417h162v-1417zM575 1802l-477 -252l-47 80l453 295z" />
<glyph unicode="&#xce;" horiz-adv-x="497" d="M330 0h-162v1417h162v-1417zM553 1565l-305 293l-303 -293l-68 73l291 322h162l293 -322z" />
<glyph unicode="&#xcf;" horiz-adv-x="497" d="M330 0h-162v1417h162v-1417zM133 1624h-196v227h196v-227zM561 1624h-194v227h194v-227z" />
<glyph unicode="&#xd0;" horiz-adv-x="1280" d="M621 0h-564v651h-47v115h47v651h523q279 0 451.5 -187t172.5 -507q0 -324 -160.5 -523.5t-422.5 -199.5zM213 131h379q215 0 332.5 156.5t117.5 435.5t-124 420t-359 141h-346v-518h336v-115h-336v-520z" />
<glyph unicode="&#xd1;" horiz-adv-x="1411" d="M1255 0h-149l-799 1171v-1171h-149v1417h174l774 -1151v1151h149v-1417zM975 1843l110 -39q-66 -184 -219 -184q-39 0 -78.5 17t-67.5 37.5t-63.5 37.5t-66.5 17q-77 0 -115 -103l-104 55q35 93 84.5 131.5t117.5 38.5q42 0 84 -18t70.5 -40t63.5 -40t65 -18 q35 0 68.5 27t50.5 81z" />
<glyph unicode="&#xd2;" horiz-adv-x="1441" d="M723 88q228 0 356.5 153t128.5 449q0 308 -124 469.5t-361 161.5q-238 0 -364 -161.5t-126 -467.5q0 -300 125 -452t365 -152zM723 -49q-314 0 -481.5 191t-167.5 554q0 362 169.5 565t479.5 203q308 0 475.5 -204t167.5 -570q0 -368 -163 -553.5t-480 -185.5zM870 1550 l-477 252l72 123l453 -295z" />
<glyph unicode="&#xd3;" horiz-adv-x="1441" d="M723 88q228 0 356.5 153t128.5 449q0 308 -124 469.5t-361 161.5q-238 0 -364 -161.5t-126 -467.5q0 -300 125 -452t365 -152zM723 -49q-314 0 -481.5 191t-167.5 554q0 362 169.5 565t479.5 203q308 0 475.5 -204t167.5 -570q0 -368 -163 -553.5t-480 -185.5zM1047 1802 l-478 -252l-47 80l453 295z" />
<glyph unicode="&#xd4;" horiz-adv-x="1441" d="M723 88q228 0 356.5 153t128.5 449q0 308 -124 469.5t-361 161.5q-238 0 -364 -161.5t-126 -467.5q0 -300 125 -452t365 -152zM723 -49q-314 0 -481.5 191t-167.5 554q0 362 169.5 565t479.5 203q308 0 475.5 -204t167.5 -570q0 -368 -163 -553.5t-480 -185.5zM1024 1565 l-305 293l-303 -293l-68 73l291 322h162l293 -322z" />
<glyph unicode="&#xd5;" horiz-adv-x="1441" d="M723 88q228 0 356.5 153t128.5 449q0 308 -124 469.5t-361 161.5q-238 0 -364 -161.5t-126 -467.5q0 -300 125 -452t365 -152zM723 -49q-314 0 -481.5 191t-167.5 554q0 362 169.5 565t479.5 203q308 0 475.5 -204t167.5 -570q0 -368 -163 -553.5t-480 -185.5zM969 1843 l110 -39q-66 -184 -219 -184q-39 0 -78.5 17t-67.5 37.5t-63.5 37.5t-66.5 17q-77 0 -115 -103l-104 55q35 93 84.5 131.5t117.5 38.5q42 0 84 -18t70.5 -40t63.5 -40t65 -18q35 0 68.5 27t50.5 81z" />
<glyph unicode="&#xd6;" horiz-adv-x="1441" d="M723 88q228 0 356.5 153t128.5 449q0 308 -124 469.5t-361 161.5q-238 0 -364 -161.5t-126 -467.5q0 -300 125 -452t365 -152zM723 -49q-314 0 -481.5 191t-167.5 554q0 362 169.5 565t479.5 203q308 0 475.5 -204t167.5 -570q0 -368 -163 -553.5t-480 -185.5zM604 1624 h-196v227h196v-227zM1032 1624h-194v227h194v-227z" />
<glyph unicode="&#xd7;" horiz-adv-x="1138" d="M946 434l-80 -80l-299 299l-299 -299l-78 80l299 299l-299 299l78 78l299 -299l299 299l80 -78l-299 -299z" />
<glyph unicode="&#xd8;" horiz-adv-x="1437" d="M354 -88l-86 33l62 118q-258 185 -258 633q0 362 169.5 565t479.5 203q165 0 289 -59l61 121l90 -33l-69 -135q272 -198 272 -668q0 -368 -163 -553.5t-480 -185.5q-183 0 -313 65zM1020 1219l-549 -1074q105 -57 250 -57q228 0 356.5 153t128.5 449q0 371 -186 529z M397 197l545 1075q-91 49 -221 49q-238 0 -364 -161.5t-126 -467.5q0 -342 166 -495z" />
<glyph unicode="&#xd9;" horiz-adv-x="1388" d="M1073 471v946h164v-946q0 -256 -141.5 -388t-411.5 -132q-252 0 -392 126.5t-140 377.5v962h161v-950q0 -186 97 -284.5t272 -98.5q391 0 391 387zM846 1550l-477 252l71 123l453 -295z" />
<glyph unicode="&#xda;" horiz-adv-x="1388" d="M1073 471v946h164v-946q0 -256 -141.5 -388t-411.5 -132q-252 0 -392 126.5t-140 377.5v962h161v-950q0 -186 97 -284.5t272 -98.5q391 0 391 387zM1020 1802l-477 -252l-47 80l452 295z" />
<glyph unicode="&#xdb;" horiz-adv-x="1388" d="M1073 471v946h164v-946q0 -256 -141.5 -388t-411.5 -132q-252 0 -392 126.5t-140 377.5v962h161v-950q0 -186 97 -284.5t272 -98.5q391 0 391 387zM997 1565l-305 293l-303 -293l-67 73l290 322h162l293 -322z" />
<glyph unicode="&#xdc;" horiz-adv-x="1388" d="M1073 471v946h164v-946q0 -256 -141.5 -388t-411.5 -132q-252 0 -392 126.5t-140 377.5v962h161v-950q0 -186 97 -284.5t272 -98.5q391 0 391 387zM578 1624h-197v227h197v-227zM1006 1624h-195v227h195v-227z" />
<glyph unicode="&#xdd;" horiz-adv-x="1200" d="M684 0h-160v582l-524 835h188l418 -674l408 674h186l-516 -837v-580zM928 1802l-477 -252l-48 80l453 295z" />
<glyph unicode="&#xde;" horiz-adv-x="1261" d="M319 440h433q129 0 212 84t83 217q0 128 -82.5 218t-208.5 90h-437v-609zM784 307h-465v-307h-159v1417h159v-233h476q170 0 281.5 -129t111.5 -316q0 -188 -113 -310t-291 -122z" />
<glyph unicode="&#xdf;" horiz-adv-x="1198" d="M520 -18v120q44 -8 88 -8q151 0 241.5 96t90.5 246q0 151 -103 227t-282 76v99q166 4 234.5 63.5t68.5 173.5q0 122 -77.5 187t-209.5 65q-139 0 -215.5 -72t-76.5 -200v-1055h-148v1063q0 178 114 282.5t333 104.5q214 0 323 -99t109 -259q0 -67 -15.5 -117t-45.5 -83 t-65.5 -53t-82.5 -34q137 -37 211.5 -129.5t74.5 -231.5q0 -216 -120.5 -345.5t-327.5 -129.5q-62 0 -119 13z" />
<glyph unicode="&#xe0;" horiz-adv-x="1095" d="M815 383l2 186q-9 -12 -25.5 -20t-46.5 -13.5t-55.5 -9t-76.5 -9t-85 -9.5q-85 -11 -137 -24t-94 -38t-60 -64.5t-18 -100.5q0 -99 57.5 -148t182.5 -49q141 0 245 81.5t111 217.5zM967 0h-142q-8 16 -8 193q-39 -98 -144.5 -160t-244.5 -62q-185 0 -271.5 77t-86.5 216 q0 79 22 137t57.5 93.5t97.5 59.5t123.5 35.5t153.5 20.5q158 18 221 36t68 63q0 125 -66 188.5t-212 63.5q-147 0 -216 -64.5t-75 -187.5h-142q10 370 439 370q229 0 327.5 -103.5t98.5 -311.5v-664zM698 1184l-477 252l72 123l452 -295z" />
<glyph unicode="&#xe1;" horiz-adv-x="1095" d="M815 383l2 186q-9 -12 -25.5 -20t-46.5 -13.5t-55.5 -9t-76.5 -9t-85 -9.5q-85 -11 -137 -24t-94 -38t-60 -64.5t-18 -100.5q0 -99 57.5 -148t182.5 -49q141 0 245 81.5t111 217.5zM967 0h-142q-8 16 -8 193q-39 -98 -144.5 -160t-244.5 -62q-185 0 -271.5 77t-86.5 216 q0 79 22 137t57.5 93.5t97.5 59.5t123.5 35.5t153.5 20.5q158 18 221 36t68 63q0 125 -66 188.5t-212 63.5q-147 0 -216 -64.5t-75 -187.5h-142q10 370 439 370q229 0 327.5 -103.5t98.5 -311.5v-664zM872 1436l-477 -252l-47 80l453 295z" />
<glyph unicode="&#xe2;" horiz-adv-x="1095" d="M815 383l2 186q-9 -12 -25.5 -20t-46.5 -13.5t-55.5 -9t-76.5 -9t-85 -9.5q-85 -11 -137 -24t-94 -38t-60 -64.5t-18 -100.5q0 -99 57.5 -148t182.5 -49q141 0 245 81.5t111 217.5zM967 0h-142q-8 16 -8 193q-39 -98 -144.5 -160t-244.5 -62q-185 0 -271.5 77t-86.5 216 q0 79 22 137t57.5 93.5t97.5 59.5t123.5 35.5t153.5 20.5q158 18 221 36t68 63q0 125 -66 188.5t-212 63.5q-147 0 -216 -64.5t-75 -187.5h-142q10 370 439 370q229 0 327.5 -103.5t98.5 -311.5v-664zM852 1198l-305 293l-303 -293l-68 74l291 321h162l293 -321z" />
<glyph unicode="&#xe3;" horiz-adv-x="1095" d="M815 383l2 186q-9 -12 -25.5 -20t-46.5 -13.5t-55.5 -9t-76.5 -9t-85 -9.5q-85 -11 -137 -24t-94 -38t-60 -64.5t-18 -100.5q0 -99 57.5 -148t182.5 -49q141 0 245 81.5t111 217.5zM967 0h-142q-8 16 -8 193q-39 -98 -144.5 -160t-244.5 -62q-185 0 -271.5 77t-86.5 216 q0 79 22 137t57.5 93.5t97.5 59.5t123.5 35.5t153.5 20.5q158 18 221 36t68 63q0 125 -66 188.5t-212 63.5q-147 0 -216 -64.5t-75 -187.5h-142q10 370 439 370q229 0 327.5 -103.5t98.5 -311.5v-664zM795 1477l110 -39q-66 -185 -219 -185q-39 0 -78.5 17t-67.5 37.5 t-63.5 37.5t-66.5 17q-77 0 -115 -102l-105 55q35 93 85 131.5t118 38.5q42 0 84 -18.5t70.5 -40t63.5 -40t65 -18.5q34 0 68 27.5t51 81.5z" />
<glyph unicode="&#xe4;" horiz-adv-x="1095" d="M815 383l2 186q-9 -12 -25.5 -20t-46.5 -13.5t-55.5 -9t-76.5 -9t-85 -9.5q-85 -11 -137 -24t-94 -38t-60 -64.5t-18 -100.5q0 -99 57.5 -148t182.5 -49q141 0 245 81.5t111 217.5zM967 0h-142q-8 16 -8 193q-39 -98 -144.5 -160t-244.5 -62q-185 0 -271.5 77t-86.5 216 q0 79 22 137t57.5 93.5t97.5 59.5t123.5 35.5t153.5 20.5q158 18 221 36t68 63q0 125 -66 188.5t-212 63.5q-147 0 -216 -64.5t-75 -187.5h-142q10 370 439 370q229 0 327.5 -103.5t98.5 -311.5v-664zM432 1257h-196v228h196v-228zM860 1257h-194v228h194v-228z" />
<glyph unicode="&#xe5;" horiz-adv-x="1095" d="M815 383l2 186q-9 -12 -25.5 -20t-46.5 -13.5t-55.5 -9t-76.5 -9t-85 -9.5q-85 -11 -137 -24t-94 -38t-60 -64.5t-18 -100.5q0 -99 57.5 -148t182.5 -49q141 0 245 81.5t111 217.5zM967 0h-142q-8 16 -8 193q-39 -98 -144.5 -160t-244.5 -62q-185 0 -271.5 77t-86.5 216 q0 79 22 137t57.5 93.5t97.5 59.5t123.5 35.5t153.5 20.5q158 18 221 36t68 63q0 125 -66 188.5t-212 63.5q-147 0 -216 -64.5t-75 -187.5h-142q10 370 439 370q229 0 327.5 -103.5t98.5 -311.5v-664zM762 1389q0 -105 -50.5 -155t-164.5 -50q-213 0 -213 205q0 99 53 151.5 t160 52.5q112 0 163.5 -52t51.5 -152zM682 1389q0 133 -135 133q-65 0 -98 -34.5t-33 -98.5q0 -134 131 -134q135 0 135 134z" />
<glyph unicode="&#xe6;" horiz-adv-x="1814" d="M1599 309h156q-44 -160 -160 -249t-278 -89q-336 0 -447 258q-48 -115 -162 -186.5t-280 -71.5q-185 0 -271.5 77t-86.5 216q0 79 22 137t57.5 93.5t97.5 59.5t123.5 35.5t153.5 20.5q158 18 221 36t68 63q0 125 -66 188.5t-212 63.5q-147 0 -216 -64.5t-75 -187.5h-142 q10 370 439 370q152 0 243 -43.5t136 -134.5q132 178 383 178q229 0 347.5 -152t118.5 -435h-802q4 -193 93.5 -296.5t250.5 -103.5q105 0 181 57t107 160zM815 383l2 186q-9 -12 -25.5 -20t-46.5 -13.5t-55.5 -9t-76.5 -9t-85 -9.5q-85 -11 -137 -24t-94 -38t-60 -64.5 t-18 -100.5q0 -99 57.5 -148t182.5 -49q141 0 245 81.5t111 217.5zM971 590h645q-4 171 -89.5 268.5t-228.5 97.5q-148 0 -234.5 -97t-92.5 -269z" />
<glyph unicode="&#xe7;" horiz-adv-x="1050" d="M838 381h151q-22 -182 -150.5 -296t-308.5 -114q-211 0 -335.5 146t-124.5 422q0 272 125 406t344 134q194 0 316.5 -109.5t135.5 -295.5h-151q-13 134 -93.5 206t-209.5 72q-147 0 -232.5 -100.5t-85.5 -310.5q0 -214 86 -328.5t225 -114.5q124 0 208.5 75.5t99.5 207.5 zM449 -498v68q98 12 98 133h-98v160h174v-113q0 -108 -39.5 -172.5t-134.5 -75.5z" />
<glyph unicode="&#xe8;" horiz-adv-x="1064" d="M852 309h156q-44 -160 -160.5 -249t-278.5 -89q-499 0 -499 574q0 246 128.5 390t356.5 144q230 0 348.5 -152t118.5 -435h-803q6 -194 94.5 -297t249.5 -103q105 0 182 57t107 160zM223 590h645q-4 171 -89 268.5t-228 97.5q-148 0 -235 -97t-93 -269zM694 1184 l-477 252l72 123l452 -295z" />
<glyph unicode="&#xe9;" horiz-adv-x="1064" d="M852 309h156q-44 -160 -160.5 -249t-278.5 -89q-499 0 -499 574q0 246 128.5 390t356.5 144q230 0 348.5 -152t118.5 -435h-803q6 -194 94.5 -297t249.5 -103q105 0 182 57t107 160zM223 590h645q-4 171 -89 268.5t-228 97.5q-148 0 -235 -97t-93 -269zM868 1436 l-477 -252l-47 80l453 295z" />
<glyph unicode="&#xea;" horiz-adv-x="1064" d="M852 309h156q-44 -160 -160.5 -249t-278.5 -89q-499 0 -499 574q0 246 128.5 390t356.5 144q230 0 348.5 -152t118.5 -435h-803q6 -194 94.5 -297t249.5 -103q105 0 182 57t107 160zM223 590h645q-4 171 -89 268.5t-228 97.5q-148 0 -235 -97t-93 -269zM848 1198 l-305 293l-303 -293l-68 74l291 321h162l293 -321z" />
<glyph unicode="&#xeb;" horiz-adv-x="1064" d="M852 309h156q-44 -160 -160.5 -249t-278.5 -89q-499 0 -499 574q0 246 128.5 390t356.5 144q230 0 348.5 -152t118.5 -435h-803q6 -194 94.5 -297t249.5 -103q105 0 182 57t107 160zM223 590h645q-4 171 -89 268.5t-228 97.5q-148 0 -235 -97t-93 -269zM418 1257h-197 v228h197v-228zM846 1257h-195v228h195v-228z" />
<glyph unicode="&#xec;" horiz-adv-x="552" d="M401 0h-149v1051h149v-1051zM477 1184l-477 252l72 123l452 -295z" />
<glyph unicode="&#xed;" horiz-adv-x="544" d="M293 0h-150v1051h150v-1051zM545 1436l-477 -252l-48 80l453 295z" />
<glyph unicode="&#xee;" horiz-adv-x="745" d="M449 0h-150v1051h150v-1051zM676 1198l-305 293l-303 -293l-68 74l291 321h162l292 -321z" />
<glyph unicode="&#xef;" horiz-adv-x="624" d="M389 0h-149v1051h149v-1051zM197 1257h-197v228h197v-228zM625 1257h-195v228h195v-228z" />
<glyph unicode="&#xf0;" horiz-adv-x="1110" d="M956 1448l27 -39l-149 -94q100 -125 153 -312.5t53 -396.5q0 -141 -27.5 -252.5t-72 -182t-105.5 -117t-124.5 -65t-132.5 -18.5q-131 0 -230.5 41.5t-159 116t-89 171.5t-29.5 214q0 152 51.5 268t155.5 183t247 67q119 0 215.5 -55t149.5 -158q-27 241 -164 434 l-231 -147l-27 39l231 145q-72 87 -163 146h165q61 -44 101 -86zM569 98q66 0 123 24.5t104 75.5t74 139.5t27 205.5q0 150 -95.5 254t-244.5 104q-163 0 -248.5 -106t-85.5 -291q0 -186 88.5 -296t257.5 -110z" />
<glyph unicode="&#xf1;" horiz-adv-x="1163" d="M1036 0h-149v657q0 86 -17.5 144t-54.5 90t-85.5 45.5t-117.5 13.5q-95 0 -161.5 -35t-102.5 -101t-51.5 -145t-15.5 -182v-487h-150v1051h141v-263q42 147 150 219t246 72q172 0 270 -91t98 -286v-702zM850 1477l111 -39q-66 -185 -220 -185q-39 0 -78.5 17t-67.5 37.5 t-63.5 37.5t-66.5 17q-77 0 -115 -102l-104 55q35 93 85 131.5t118 38.5q42 0 84 -18.5t70 -40t63 -40t65 -18.5q34 0 68 27.5t51 81.5z" />
<glyph unicode="&#xf2;" horiz-adv-x="1161" d="M586 98q167 0 261.5 113t94.5 313q0 202 -92.5 314t-263.5 112q-173 0 -268 -112t-95 -314q0 -200 95.5 -313t267.5 -113zM586 -29q-239 0 -377.5 152.5t-138.5 400.5q0 252 139.5 403.5t376.5 151.5q232 0 369 -151t137 -404q0 -250 -137.5 -401.5t-368.5 -151.5z M731 1184l-477 252l72 123l452 -295z" />
<glyph unicode="&#xf3;" horiz-adv-x="1161" d="M586 98q167 0 261.5 113t94.5 313q0 202 -92.5 314t-263.5 112q-173 0 -268 -112t-95 -314q0 -200 95.5 -313t267.5 -113zM586 -29q-239 0 -377.5 152.5t-138.5 400.5q0 252 139.5 403.5t376.5 151.5q232 0 369 -151t137 -404q0 -250 -137.5 -401.5t-368.5 -151.5z M907 1436l-477 -252l-47 80l453 295z" />
<glyph unicode="&#xf4;" horiz-adv-x="1161" d="M586 98q167 0 261.5 113t94.5 313q0 202 -92.5 314t-263.5 112q-173 0 -268 -112t-95 -314q0 -200 95.5 -313t267.5 -113zM586 -29q-239 0 -377.5 152.5t-138.5 400.5q0 252 139.5 403.5t376.5 151.5q232 0 369 -151t137 -404q0 -250 -137.5 -401.5t-368.5 -151.5z M883 1198l-305 293l-304 -293l-67 74l291 321h161l293 -321z" />
<glyph unicode="&#xf5;" horiz-adv-x="1161" d="M586 98q167 0 261.5 113t94.5 313q0 202 -92.5 314t-263.5 112q-173 0 -268 -112t-95 -314q0 -200 95.5 -313t267.5 -113zM586 -29q-239 0 -377.5 152.5t-138.5 400.5q0 252 139.5 403.5t376.5 151.5q232 0 369 -151t137 -404q0 -250 -137.5 -401.5t-368.5 -151.5z M827 1477l111 -39q-66 -185 -219 -185q-49 0 -98.5 27.5t-94.5 54.5t-84 27q-76 0 -114 -102l-105 55q35 93 85 131.5t118 38.5q42 0 84 -18.5t70.5 -40t63.5 -40t65 -18.5q34 0 67.5 27.5t50.5 81.5z" />
<glyph unicode="&#xf6;" horiz-adv-x="1161" d="M586 98q167 0 261.5 113t94.5 313q0 202 -92.5 314t-263.5 112q-173 0 -268 -112t-95 -314q0 -200 95.5 -313t267.5 -113zM586 -29q-239 0 -377.5 152.5t-138.5 400.5q0 252 139.5 403.5t376.5 151.5q232 0 369 -151t137 -404q0 -250 -137.5 -401.5t-368.5 -151.5z M465 1257h-197v228h197v-228zM893 1257h-195v228h195v-228z" />
<glyph unicode="&#xf7;" horiz-adv-x="1138" d="M1047 678h-957v110h957v-110zM651 1001h-168v220h168v-220zM651 244h-168v219h168v-219z" />
<glyph unicode="&#xf8;" horiz-adv-x="1153" d="M322 -121l-70 31l59 129q-120 68 -182.5 193t-62.5 292q0 252 139.5 403.5t376.5 151.5q106 0 196 -35l56 119l75 -30l-57 -125q115 -69 175 -192.5t60 -291.5q0 -250 -137 -401.5t-368 -151.5q-95 0 -199 33zM367 160l354 764q-56 26 -139 26q-173 0 -268 -112t-95 -314 q0 -252 148 -364zM795 885l-357 -764q59 -23 144 -23q167 0 261.5 113t94.5 313q0 252 -143 361z" />
<glyph unicode="&#xf9;" horiz-adv-x="1155" d="M1024 0h-139v258q-30 -101 -93 -167.5t-136 -93t-158 -26.5q-174 0 -272.5 97.5t-98.5 296.5v686h147v-600q0 -195 62.5 -274t210.5 -79q76 0 135 26t95.5 69t60 104t32.5 124.5t9 137.5v492h145v-1051zM727 1184l-477 252l72 123l452 -295z" />
<glyph unicode="&#xfa;" horiz-adv-x="1155" d="M1024 0h-139v258q-30 -101 -93 -167.5t-136 -93t-158 -26.5q-174 0 -272.5 97.5t-98.5 296.5v686h147v-600q0 -195 62.5 -274t210.5 -79q76 0 135 26t95.5 69t60 104t32.5 124.5t9 137.5v492h145v-1051zM903 1436l-477 -252l-47 80l452 295z" />
<glyph unicode="&#xfb;" horiz-adv-x="1155" d="M1024 0h-139v258q-30 -101 -93 -167.5t-136 -93t-158 -26.5q-174 0 -272.5 97.5t-98.5 296.5v686h147v-600q0 -195 62.5 -274t210.5 -79q76 0 135 26t95.5 69t60 104t32.5 124.5t9 137.5v492h145v-1051zM881 1198l-306 293l-303 -293l-67 74l291 321h161l293 -321z" />
<glyph unicode="&#xfc;" horiz-adv-x="1155" d="M1024 0h-139v258q-30 -101 -93 -167.5t-136 -93t-158 -26.5q-174 0 -272.5 97.5t-98.5 296.5v686h147v-600q0 -195 62.5 -274t210.5 -79q76 0 135 26t95.5 69t60 104t32.5 124.5t9 137.5v492h145v-1051zM463 1257h-197v228h197v-228zM891 1257h-195v228h195v-228z" />
<glyph unicode="&#xfd;" horiz-adv-x="1032" d="M391 -498h-155l204 498l-430 1051h170l342 -856l338 856h160zM846 1436l-477 -252l-47 80l452 295z" />
<glyph unicode="&#xfe;" horiz-adv-x="1173" d="M616 96q151 0 242.5 110.5t91.5 311.5q0 214 -88.5 322t-247.5 108q-158 0 -246.5 -110.5t-88.5 -325.5q0 -111 37 -204t115.5 -152.5t184.5 -59.5zM285 -498h-148v1934h148v-635q21 76 59 132t87.5 87t103 45t114.5 14q211 0 333 -153.5t122 -407.5q0 -257 -118 -402 t-324 -145q-56 0 -111.5 15.5t-108.5 47t-95 87t-62 129.5v-748z" />
<glyph unicode="&#xff;" horiz-adv-x="1032" d="M391 -498h-155l204 498l-430 1051h170l342 -856l338 856h160zM403 1257h-196v228h196v-228zM831 1257h-194v228h194v-228z" />
<glyph unicode="&#x152;" horiz-adv-x="2146" d="M2066 0h-1062q-128 -49 -281 -49q-314 0 -481.5 191t-167.5 554q0 362 169.5 565t479.5 203q154 0 262 -47h1051v-133h-856q156 -173 180 -473h616v-133h-610q-3 -358 -168 -541h868v-137zM723 88q228 0 356.5 153t128.5 449q0 308 -124 469.5t-361 161.5 q-238 0 -364 -161.5t-126 -467.5q0 -300 125 -452t365 -152z" />
<glyph unicode="&#x153;" horiz-adv-x="1933" d="M1712 309h156q-46 -161 -161 -249.5t-275 -88.5q-333 0 -428 277q-50 -130 -158.5 -203.5t-259.5 -73.5q-239 0 -377.5 152.5t-138.5 400.5q0 252 139.5 403.5t376.5 151.5q152 0 260 -72t160 -202q51 131 154 202.5t253 71.5q228 0 349.5 -155t121.5 -432h-803 q5 -195 91 -297.5t251 -102.5q97 0 178 59t111 158zM586 98q167 0 261.5 113t94.5 313q0 202 -92.5 314t-263.5 112q-173 0 -268 -112t-95 -314q0 -200 95.5 -313t267.5 -113zM1085 590h646q-6 173 -90.5 269.5t-231.5 96.5q-148 0 -233.5 -97t-90.5 -269z" />
<glyph unicode="&#x178;" horiz-adv-x="1200" d="M684 0h-160v582l-524 835h188l418 -674l408 674h186l-516 -837v-580zM489 1624h-196v227h196v-227zM918 1624h-195v227h195v-227z" />
<glyph unicode="&#x2c6;" horiz-adv-x="1009" d="M809 1198l-305 293l-303 -293l-68 74l291 321h162l293 -321z" />
<glyph unicode="&#x2dc;" horiz-adv-x="980" d="M737 1477l111 -39q-66 -185 -219 -185q-39 0 -78.5 17t-67.5 37.5t-64 37.5t-67 17q-76 0 -114 -102l-105 55q35 93 85 131.5t118 38.5q42 0 84 -18.5t70 -40t63 -40t65 -18.5q34 0 68 27.5t51 81.5z" />
<glyph unicode="&#x2000;" horiz-adv-x="980" />
<glyph unicode="&#x2001;" horiz-adv-x="1960" />
<glyph unicode="&#x2002;" horiz-adv-x="980" />
<glyph unicode="&#x2003;" horiz-adv-x="1960" />
<glyph unicode="&#x2004;" horiz-adv-x="653" />
<glyph unicode="&#x2005;" horiz-adv-x="490" />
<glyph unicode="&#x2006;" horiz-adv-x="326" />
<glyph unicode="&#x2007;" horiz-adv-x="326" />
<glyph unicode="&#x2008;" horiz-adv-x="245" />
<glyph unicode="&#x2009;" horiz-adv-x="392" />
<glyph unicode="&#x200a;" horiz-adv-x="108" />
<glyph unicode="&#x2010;" horiz-adv-x="673" d="M590 598h-504v119h504v-119z" />
<glyph unicode="&#x2011;" horiz-adv-x="673" d="M590 598h-504v119h504v-119z" />
<glyph unicode="&#x2012;" horiz-adv-x="673" d="M590 598h-504v119h504v-119z" />
<glyph unicode="&#x2013;" horiz-adv-x="993" d="M907 598h-821v119h821v-119z" />
<glyph unicode="&#x2014;" horiz-adv-x="1359" d="M1274 598h-1188v119h1188v-119z" />
<glyph unicode="&#x2018;" horiz-adv-x="485" d="M346 1042v-77q-114 27 -160.5 102.5t-46.5 220.5v187h207v-240h-117q1 -85 29.5 -130t87.5 -63z" />
<glyph unicode="&#x2019;" horiz-adv-x="485" d="M139 965v77q59 18 88 63.5t29 129.5h-117v240h207v-187q0 -146 -45.5 -221t-161.5 -102z" />
<glyph unicode="&#x201a;" horiz-adv-x="485" d="M139 -268v78q117 31 117 190h-117v242h207v-189q0 -146 -45.5 -221t-161.5 -100z" />
<glyph unicode="&#x201c;" horiz-adv-x="804" d="M346 1042v-77q-114 27 -160.5 102.5t-46.5 220.5v187h207v-240h-117q1 -85 29.5 -130t87.5 -63zM668 1042v-77q-114 27 -160.5 102.5t-46.5 220.5v187h207v-240h-117q1 -85 29.5 -130t87.5 -63z" />
<glyph unicode="&#x201d;" horiz-adv-x="804" d="M139 965v77q59 18 88 63.5t29 129.5h-117v240h207v-187q0 -146 -45.5 -221t-161.5 -102zM461 965v77q59 18 88 63.5t29 129.5h-117v240h207v-187q0 -146 -45.5 -221t-161.5 -102z" />
<glyph unicode="&#x201e;" horiz-adv-x="804" d="M139 -268v78q117 31 117 190h-117v242h207v-189q0 -146 -45.5 -221t-161.5 -100zM461 -268v78q117 31 117 190h-117v242h207v-189q0 -146 -45.5 -221t-161.5 -100z" />
<glyph unicode="&#x2022;" horiz-adv-x="856" d="M713 733q0 -107 -82.5 -179.5t-202.5 -72.5q-124 0 -207.5 72.5t-83.5 179.5q0 110 83 181t208 71q121 0 203 -71.5t82 -180.5z" />
<glyph unicode="&#x2026;" horiz-adv-x="1732" d="M338 0h-168v219h168v-219zM948 0h-168v219h168v-219zM1561 0h-168v219h168v-219z" />
<glyph unicode="&#x202f;" horiz-adv-x="392" />
<glyph unicode="&#x2039;" horiz-adv-x="604" d="M395 309l-295 369l295 371l94 -103l-223 -268l223 -268z" />
<glyph unicode="&#x203a;" horiz-adv-x="604" d="M209 309l-94 101l223 268l-223 268l94 103l295 -371z" />
<glyph unicode="&#x205f;" horiz-adv-x="490" />
<glyph unicode="&#x20ac;" d="M1059 291l135 -76q-78 -125 -204.5 -194.5t-284.5 -69.5q-148 0 -272.5 58t-213.5 179t-119 291h-110l20 90h76q-4 70 -4 109q0 64 6 119h-98l20 94h88q53 277 207.5 425t403.5 148q188 0 350 -106l-72 -135q-113 102 -278 102q-178 0 -293 -113.5t-154 -320.5h557 l-49 -94h-524q-4 -66 -4 -90q0 -27 6 -138h407l-49 -90h-336q39 -188 154 -288.5t274 -100.5q236 0 361 201z" />
<glyph unicode="&#x2122;" horiz-adv-x="1593" d="M459 641h-117v666h-211v110h537v-110h-209v-666zM1462 641h-114v530l-201 -530l-213 545v-545h-115v776h144l184 -502l178 502h137v-776z" />
<glyph unicode="&#x25fc;" horiz-adv-x="1054" d="M0 1055h1055v-1055h-1055v1055z" />
</font>
</defs>
</svg>
